<svg xmlns="http://www.w3.org/2000/svg" viewBox="0 0 33.19 41.69"><defs><style>.cls-1{fill:none;stroke:#8dc63f;stroke-linecap:round;stroke-linejoin:round;stroke-width:2px;}</style></defs><title>bloom</title><g id="Layer_2" data-name="Layer 2"><g id="Layer_9" data-name="Layer 9"><path class="cls-1" d="M26.91,18.84a22.4,22.4,0,0,1-.82,4.82A45.31,45.31,0,0,1,23,31.31l-.35.67h0c-.81,1.55-1.78,3-2.64,4.57a9.07,9.07,0,0,1-3.38,3.94l-.16.19a9.12,9.12,0,0,1-3.38-4c-.89-1.57-1.89-3.09-2.73-4.7q-.15-.27-.27-.54a44.64,44.64,0,0,1-3.16-7.95A20.33,20.33,0,0,1,6.19,19c-.16-3.14,0-8.15,3.53-9.57a4,4,0,0,1,1.68-.28h0a4,4,0,0,1,1.36.3,4.44,4.44,0,0,1,1.71,1.18c1.53,1.64,2,4.27,2.07,6.4,0-2.13.48-4.79,2-6.47A4.79,4.79,0,0,1,20.33,9.3,3.83,3.83,0,0,1,21.78,9h0a3.89,3.89,0,0,1,1.58.29C26.85,10.71,27.06,15.71,26.91,18.84Z"/><path class="cls-1" d="M11.4,9a13.73,13.73,0,0,1,.33-3,17.19,17.19,0,0,0-.32,3.16h0a4,4,0,0,0-1.68.28C6.24,10.88,6,15.89,6.19,19a20.33,20.33,0,0,0,.74,4.51,44.64,44.64,0,0,0,3.16,8q.12.27.27.54a11.61,11.61,0,0,1-2.43-3.3c-1-1.76-2.11-3.44-3-5.24l-.13-.25C3,19.41,1.26,15.33,1,11c-.16-3.14.05-8.14,3.53-9.56a4.07,4.07,0,0,1,3.05,0C10.46,2.6,11.35,6.21,11.4,9Z"/><path class="cls-1" d="M21.74,7.93C21.5,5.36,20.5,2.47,18,1.48a4.34,4.34,0,0,0-1.46-.31h0a3.85,3.85,0,0,0-1.57.3,4.63,4.63,0,0,0-1.36.86,4.47,4.47,0,0,1,1.57-1A3.94,3.94,0,0,1,16.54,1h0a3.92,3.92,0,0,1,1.67.27C20.74,2.31,21.55,5.22,21.74,7.93Z"/><path class="cls-1" d="M12,5.07a6.32,6.32,0,0,1,1.36-2.48A7.3,7.3,0,0,0,12,5.07Z"/><path class="cls-1" d="M21.8,9h0c0-.17,0-.36,0-.54A4.84,4.84,0,0,1,21.8,9Z"/><path class="cls-1" d="M32.15,10.84c-.21,4.25-1.86,8.27-3.69,12.05-.07.14-.13.28-.21.42-.88,1.81-2,3.49-3,5.25A10.9,10.9,0,0,1,22.66,32l.35-.67a45.31,45.31,0,0,0,3.08-7.65,22.4,22.4,0,0,0,.82-4.82c.15-3.13-.06-8.13-3.53-9.55A3.89,3.89,0,0,0,21.8,9c0-2.81.86-6.55,3.77-7.7a4.15,4.15,0,0,1,3.06,0C32.1,2.71,32.31,7.7,32.15,10.84Z"/><path class="cls-1" d="M21.78,9a3.83,3.83,0,0,0-1.45.29,4.79,4.79,0,0,0-1.82,1.29c-1.48,1.68-2,4.34-2,6.47,0-2.13-.54-4.76-2.07-6.4a4.44,4.44,0,0,0-1.71-1.18,4,4,0,0,0-1.36-.3A17.19,17.19,0,0,1,11.73,6c.08-.32.16-.63.27-.95a7.3,7.3,0,0,1,1.36-2.48,3,3,0,0,1,.25-.26A4.63,4.63,0,0,1,15,1.47a3.85,3.85,0,0,1,1.57-.3h0A4.34,4.34,0,0,1,18,1.48c2.49,1,3.49,3.88,3.73,6.45a5.17,5.17,0,0,1,0,.54C21.78,8.65,21.78,8.84,21.78,9Z"/></g></g></svg>