<svg id="Layer_1" data-name="Layer 1" xmlns="http://www.w3.org/2000/svg" xmlns:xlink="http://www.w3.org/1999/xlink" viewBox="0 0 969 748"><defs><style>.cls-1{fill:url(#linear-gradient);}.cls-2{fill:#1a1a1a;}.cls-3{fill:#fff;}.cls-4{fill:#fcee21;}</style><linearGradient id="linear-gradient" x1="474.23" y1="543.7" x2="935.02" y2="543.7" gradientUnits="userSpaceOnUse"><stop offset="0" stop-color="#f0f"/><stop offset="1" stop-color="blue"/></linearGradient></defs><path class="cls-1" d="M881.35,836.94c2.07-9.21,6.61-17.39,9-26.52,23.17-90,39.82-180.9,43.86-273.78,2.26-51.85,4.66-117.8-59.46-131.78-23.37-5.09-31.18-14.05-28.46-40.51,4.81-46.68,6.14-86.52-45.43-105.71C761.88,244.16,719.74,251.71,680,260c-8.66,1.8-16.75,5.41-22.78,13-10.59,13.38-12.75,26.51-14.63,44.21-19.27,181.88-106.26,344.39-168.32,514,88.86,2.75,177.74,3.43,266.63,4.25"/><path class="cls-2" d="M882.79,837.33c1.52-6.41,4.14-12.43,6.42-18.59a186.88,186.88,0,0,0,5.44-19.31q5-20.05,9.61-40.21c6.11-27,11.55-54.16,16.14-81.46A1169,1169,0,0,0,936.21,523c1-31.21,1.37-67.86-18.54-93.95-10.41-13.63-25.6-21.85-42.17-25.57-7.51-1.69-15.76-3.75-21.45-9.31-5.27-5.14-6.69-12.54-6.81-19.64-.15-9.47,1.49-19,2.13-28.39a182.74,182.74,0,0,0,.17-26.16c-1.22-15.68-5.86-31-16.65-42.82-14.19-15.52-35.95-23.16-56.21-26.34-25.4-4-51.25-1-76.36,3.58-6.59,1.2-13.17,2.51-19.73,3.88a49.63,49.63,0,0,0-14.53,5.12c-9.21,5.27-15.43,14.84-19.19,24.55-4,10.32-5,21.45-6.16,32.34q-2.15,19.53-5.34,38.91c-8.28,50.58-21.51,100.23-37.48,148.91s-34.7,96.61-54,144.17c-19.4,47.82-39.41,95.4-58,143.56q-6.71,17.42-13.14,34.93a1.52,1.52,0,0,0,1.45,1.9c69.23,2.13,138.5,3,207.75,3.7l58.88.55a1.5,1.5,0,0,0,0-3c-69.26-.64-138.53-1.2-207.77-2.71q-29.43-.65-58.86-1.54l1.45,1.9c17.44-47.62,36.74-94.52,56-141.44s38.4-93.86,55.5-141.59c17-47.37,31.92-95.54,42.7-144.73,5.37-24.51,9.69-49.25,12.76-74.15,1.44-11.68,2-23.65,5.2-35,2.91-10.38,8.66-21.42,17.88-27.49,4.77-3.14,10.14-4.81,15.69-6,6.22-1.3,12.44-2.55,18.68-3.7a325.43,325.43,0,0,1,39.58-5.17c24.77-1.47,50.69,1.32,72.88,13.16,15,8,26.22,20.53,31,37,4.7,16.27,3.78,33.73,2.35,50.4-1.22,14.26-5.41,33.21,6.82,44.13,5.56,5,13,7.3,20.13,9,9,2.09,17.62,4.81,25.54,9.64,29,17.74,34.58,53.92,35.13,85.18.33,19.38-.76,38.86-2,58.2-1.77,27.31-4.61,54.55-8.37,81.66-7.48,54-18.55,107.36-31.87,160.16a167.16,167.16,0,0,1-5.25,18.1c-2.2,5.83-4.63,11.55-6.06,17.63-.44,1.87,2.45,2.68,2.89.79Z"/><path class="cls-2" d="M758.28,399.62a11.32,11.32,0,0,1-2.82-.42A151.24,151.24,0,0,0,714.77,401c-6.67,1.14-12.93,2.59-19.61,4.2-4.63,1.12-9.59,3.2-14.52,3.25.2-3.24,1.42-5.68,1-9.1-.54-4.92-1.8-10.05-2.36-15.14-3.32-30.34-1.66-60.9-6.48-91.18-1.05-6.54-1.73-14-6.22-19.3s-10.09-9.77-15.72-13.9c-11.45-8.4-23.33-15.64-37.29-18.91-13.23-3.11-26.27-2.11-39.19,1.63-11.85,3.42-23.57,9.86-25.66,22.51a258.48,258.48,0,0,0-3.56,47.68,19,19,0,0,0,1.12,6.56c2.73,7.34,7.91,12.41,13.34,18.16A46,46,0,0,0,574,347.58a6.4,6.4,0,0,0,.68.27c5.51,1.83,11,2,16.8,2.14-.53,23.42-.54,46.52,1.33,69.88a24.56,24.56,0,0,1-3.09-.86c-32.39-10.9-47.28-11.75-79.23,2.4a25.77,25.77,0,0,1-3.29,1.07c4.31-1.71-.12-.82-1.17.23a1258.51,1258.51,0,0,0,15.4-155.39c.76-19.48,2.92-31.78,6.51-49.92,0,.29.05.06,0,.14,3.32-11.57,6.72-22.6,12.4-33.34C547,171.62,556,161.33,567,152.28a80.23,80.23,0,0,1,9.94-6.84,115.53,115.53,0,0,1,17.89-8.72,57.54,57.54,0,0,1,6.33-2.45c3.26-1,9.84-2.87,14.51-4,2.41-.56,7.34-1.53,10.23-2.07s5.75-1.23,8.67-1.62c12.1-1.63,23.6-2.7,35.83-.46a72.69,72.69,0,0,1,29.46,13,84.45,84.45,0,0,1,21.93,23.49c6,9.28,9.62,19.86,13.12,30.32,1.24,3.71,2.13,7.53,3.17,11.29,0,0,0,0,0,0,1.73,7.26,3.32,14.56,4.45,21.95,1.73,11.34,2.91,22.7,3.68,34.16s1.14,22.84,1.5,34.35.56,23,1.07,34.57,1.15,23.27,2.51,34.88A245.54,245.54,0,0,0,758.28,399.62Z"/><path class="cls-2" d="M758.28,398.12c-2.39-.18-4.76-.61-7.17-.77-2.68-.17-5.37-.27-8.05-.29a149.54,149.54,0,0,0-15.41.71A225.71,225.71,0,0,0,697,403.22c-5.39,1.29-10.8,3.6-16.39,3.74l1.5,1.5c.24-3.08,1.33-6,1-9.1-.3-3.32-1-6.6-1.57-9.88A198.81,198.81,0,0,1,679.46,368c-.9-14.33-1.15-28.69-2-43-.4-7.17-.93-14.34-1.75-21.48-.73-6.36-1.52-12.82-2.86-19.09a32.28,32.28,0,0,0-2.67-7.88,30.59,30.59,0,0,0-5.74-7.28A117,117,0,0,0,649.58,257c-10-7.2-20.84-13.55-32.82-16.86-13.29-3.67-27.25-3.19-40.52.32-9.71,2.56-20.22,6.88-25.76,15.77-3.19,5.11-3.67,11.18-4.46,17q-1.39,10.34-2,20.74-.28,5.22-.35,10.45a94.61,94.61,0,0,0,.13,10.38c.57,5.95,3.84,11.21,7.54,15.75a79.17,79.17,0,0,0,12.88,12.93,45.27,45.27,0,0,0,8.07,4.93,31.45,31.45,0,0,0,9.32,2.45,89.75,89.75,0,0,0,9.84.58L590,350c-.52,23.31-.51,46.64,1.33,69.88l1.9-1.44c-3-.71-5.93-1.83-8.87-2.76-3.12-1-6.26-1.93-9.42-2.78a109.24,109.24,0,0,0-16.23-3.16,76.17,76.17,0,0,0-31.11,3.48c-3.31,1-6.57,2.23-9.8,3.51-3.62,1.45-7.18,3.36-11,4.32l.79,2.89c1.2-.49,2.8-.88,3-2.38a1.49,1.49,0,0,0-.75-1.3c-1.45-.71-3.73.43-4.83,1.4l2.51,1.46q6.85-41.43,10.68-83.28,1.92-20.61,3.19-41.26c.85-13.68,1.12-27.39,2.12-41.05,1-13.39,3.31-26.56,5.91-39.72h-2.89l0,.15a1.52,1.52,0,0,0,2.51.66v0l-2.56-1.06h0a1.51,1.51,0,0,0,2.95.4c2.78-9.71,5.73-19.42,10-28.57a100.41,100.41,0,0,1,36.85-41.8A115.09,115.09,0,0,1,588.55,141c3.68-1.69,7.47-3.39,11.3-4.73A168.85,168.85,0,0,1,623,130.33c9.95-2,19.87-3.63,30-3.91a74.37,74.37,0,0,1,30,5,77.76,77.76,0,0,1,23.72,15.31,84.68,84.68,0,0,1,17,22.17,145.51,145.51,0,0,1,10.89,28.18c.71,2.51,1.34,5,2,7.55a1.53,1.53,0,0,0,1.44,1.1h0l-1.44-1.11a309.25,309.25,0,0,1,6.5,37.73c1.39,12.74,2.12,25.54,2.6,38.34,1,25.78.91,51.65,3.4,77.35a256.2,256.2,0,0,0,7.66,42,1.5,1.5,0,0,0,2.89-.8,246.81,246.81,0,0,1-7.16-37.42c-1.39-12.77-2-25.62-2.48-38.44-.94-25.77-1-51.59-3.52-77.27a321.38,321.38,0,0,0-7-42.28,1.51,1.51,0,0,0-1.45-1.1h0l1.45,1.1a220.2,220.2,0,0,0-10-29.71,90.35,90.35,0,0,0-15.89-24.67c-13.33-14.72-31.7-24.4-51.58-25.83a104.3,104.3,0,0,0-16.39.25A141.12,141.12,0,0,0,629.54,126c-8.37,1.69-16.67,3.34-24.89,5.7a121,121,0,0,0-23.63,9.7,103.51,103.51,0,0,0-40.75,39.86c-5,8.92-8.55,18.58-11.52,28.34-.77,2.51-1.5,5-2.22,7.55l2.94.4h0a1.52,1.52,0,0,0-2.56-1.06l0,0,2.51.66,0-.15a1.51,1.51,0,0,0-2.89,0,354.07,354.07,0,0,0-5.56,35c-1.28,13.38-1.44,26.86-2.2,40.28q-2.38,41.67-7.41,83.14-2.88,23.51-6.73,46.89a1.51,1.51,0,0,0,2.5,1.45,3.43,3.43,0,0,1,1.07-.52c.19-.07.53-.08.68-.2s.24.18-.55-.21l-.74-1.29v0l.44-1.06c.24-.24,0,.06-.18.07a5.07,5.07,0,0,0-1,.44c-1.75.7-1.13,3.37.79,2.89,3.3-.83,6.36-2.44,9.49-3.71,2.91-1.19,5.84-2.31,8.81-3.31a90.74,90.74,0,0,1,15.91-4c10.33-1.48,20.66-.15,30.71,2.42,3.28.83,6.53,1.78,9.76,2.79s6.69,2.36,10.13,3.16a1.51,1.51,0,0,0,1.9-1.45c-1.84-23.24-1.85-46.57-1.33-69.88a1.54,1.54,0,0,0-1.5-1.5c-6.34-.11-13.05-.26-18.81-3.19-5.52-2.82-9.95-6.78-14.17-11.25-3.91-4.13-7.79-8.42-10.13-13.67a21.45,21.45,0,0,1-1.67-8.78q-.08-5.12.06-10.25.24-9.89,1.27-19.73.53-5.07,1.25-10.11a60.16,60.16,0,0,1,1.61-8.95c2.93-9.55,12.42-14.81,21.32-17.75,12.41-4.09,25.87-5.5,38.75-2.93,11.81,2.36,22.58,7.87,32.51,14.55a153.54,153.54,0,0,1,14.86,11.15c4.45,3.85,8.8,8,10.66,13.73,1.81,5.54,2.4,11.59,3.18,17.34.92,6.8,1.53,13.64,2,20.48.91,13.56,1.19,27.14,1.85,40.7.33,6.88.76,13.76,1.43,20.62.31,3.29.71,6.57,1.27,9.83a77,77,0,0,1,1.53,9.87c.12,2.81-.88,5.52-1.1,8.31a1.52,1.52,0,0,0,1.5,1.5c4.91-.12,9.47-1.89,14.17-3.11,5-1.29,10-2.4,15-3.4a166.51,166.51,0,0,1,31.24-3.39q4.32,0,8.62.21c2.9.15,5.73.63,8.61.85C760.21,401.26,760.2,398.26,758.28,398.12Z"/><path class="cls-3" d="M681.72,408.48a32.09,32.09,0,0,1-8.66,7,100.62,100.62,0,0,1-18.24,7.29c-11.35,2.84-22.3,5.68-34.05,5.27-8.51-.4-16.62-1.62-23.92-6.89,0,0-6.57-4.63-9.32-10.24-.41-20.31.4-41-.41-61.25-5.67-.81-10.94-.41-16.62-1.22l-.69-.12a47.52,47.52,0,0,1-15.69-5.3c-6.79-4-10.21-11.78-11.44-19.57a44.82,44.82,0,0,1-.55-7c0-11,1.63-21.55,2.81-32.38,1.12-10.37.8-24.19,7.51-32.81a231.18,231.18,0,0,0,16.33-23.66q1.44-2.43,2.83-4.91h.11c8.63-15.33,15.74-31.47,22.82-47.56a464.91,464.91,0,0,0,34.75,46.85h.17q5.76,6.84,11.79,13.44a194.9,194.9,0,0,0,21,20.34c8.47,6.87,10.69,16,11.56,26.55,1.87,22.42,4,44.82,5.35,67.3.58,9.64,1,19.29,1.52,28.94.28,5.13.53,10.27.71,15.42C681.49,396.57,683.29,406.5,681.72,408.48Z"/><path class="cls-2" d="M680.66,407.42c-5.52,6.81-14.76,10.09-22.78,12.76a150.85,150.85,0,0,1-17.29,4.37,86.67,86.67,0,0,1-17.87,2c-9.1,0-18.87-1.69-26-7.42a38.4,38.4,0,0,1-3.94-3.6,27.14,27.14,0,0,1-2.1-2.45,9,9,0,0,1-1.63-2.7,12,12,0,0,1,0-2.47l0-2c0-1.66,0-3.32,0-5,0-3.16,0-6.32,0-9.48.05-13.95.25-27.9-.3-41.84a1.51,1.51,0,0,0-1.1-1.45c-5.88-.81-11.91-.34-17.75-1.42-5.27-1-10.63-2.43-15.22-5.26-8.44-5.2-11-16.38-10.92-25.61,0-11.64,2.08-23.09,3.07-34.66.77-8.86.77-18.65,5.27-26.6a64.32,64.32,0,0,1,4.92-6.81q3-3.94,5.79-8c3.67-5.31,7.05-10.79,10.22-16.41l-1.29.74h.11a1.52,1.52,0,0,0,1.3-.75c8.61-15.34,15.74-31.45,22.82-47.55h-2.59q8.26,12.73,17.34,24.93,4.51,6,9.22,12c1.57,2,3.17,3.95,4.77,5.9l2.43,2.92c.65.78,1.28,2,2.45,1.88l-1.07-.44c9.12,10.79,18.56,21.51,29.24,30.79a74,74,0,0,1,6.93,6.19,26.43,26.43,0,0,1,4.41,6.92c2.21,5,2.93,10.49,3.39,15.87,1.26,15.06,2.63,30.11,3.81,45.18,1.15,14.84,2,29.7,2.71,44.57.21,4.15.43,8.3.63,12.45.16,3.38.14,6.8.48,10.16.23,2.37.57,4.73.75,7.11a29.67,29.67,0,0,1,.1,3.53,4.32,4.32,0,0,1-.42,2c-1.12,1.57,1.48,3.07,2.59,1.51,1-1.4.89-3.63.83-5.25-.07-2.29-.35-4.56-.62-6.83-.73-6.18-.71-12.47-1-18.68-.8-15.35-1.52-30.71-2.67-46s-2.56-30.79-3.86-46.19c-.51-6-.91-12.14-2.9-17.9a30.37,30.37,0,0,0-9.44-13.72A192.18,192.18,0,0,1,645.78,238c-2.82-3-5.59-6.06-8.31-9.14q-2.09-2.35-4.13-4.74l-1.89-2.2c-.6-.71-1.11-1.61-2.16-1.54l1.06.44a464.74,464.74,0,0,1-34.51-46.54c-.55-.85-2.11-1.1-2.59,0-7.08,16.09-14.21,32.2-22.83,47.55l1.3-.74h-.11a1.5,1.5,0,0,0-1.3.74c-2.94,5.21-6.06,10.31-9.42,15.25q-2.52,3.7-5.18,7.3c-1.7,2.31-3.55,4.53-5.19,6.88-5.44,7.79-5.88,18.07-6.6,27.22-.9,11.65-2.95,23.19-3.25,34.89-.26,10,1.5,21.43,9.36,28.44,4.46,4,10.57,6,16.3,7.28a58.33,58.33,0,0,0,9.58,1.27c3.61.18,7.23.18,10.81.67l-1.1-1.44c.52,13,.38,26.06.31,39.1,0,6.47,0,12.95.05,19.42,0,1.46-.13,2.83.59,4.13a22.44,22.44,0,0,0,2.06,3.06,35.16,35.16,0,0,0,4.63,4.82,34.71,34.71,0,0,0,9.22,5.84,49.1,49.1,0,0,0,15.75,3.37c12.37.88,24.62-1.94,36.51-5.06A89.07,89.07,0,0,0,673,417.17a30.76,30.76,0,0,0,9.79-7.63C684,408.06,681.87,405.92,680.66,407.42Z"/><ellipse class="cls-3" cx="577.51" cy="283.58" rx="16.04" ry="25.33"/><path class="cls-2" d="M592.05,283.58a34.48,34.48,0,0,1-2.75,13.89c-1.49,3.33-3.69,6.62-6.88,8.52a9.32,9.32,0,0,1-8.74.57c-3.35-1.54-5.73-4.64-7.37-7.85-4.2-8.23-4.4-18.79-1.24-27.4,2.24-6.12,7.84-13.5,15.27-11.09,3.81,1.23,6.52,4.66,8.29,8.08a33.65,33.65,0,0,1,3.42,15.28,1.5,1.5,0,0,0,3,0c0-9-2.94-20.48-11.47-25.2a12.3,12.3,0,0,0-10.93-.58c-3.9,1.68-6.82,5.15-8.77,8.84-4.82,9.15-5.22,21.1-1.45,30.68,2.9,7.38,9.76,15.3,18.59,12.56,4.45-1.38,7.79-5.07,10-9.06a36.45,36.45,0,0,0,4.07-17.24A1.5,1.5,0,0,0,592.05,283.58Z"/><ellipse class="cls-2" cx="571.14" cy="284.22" rx="9.82" ry="20.26"/><ellipse class="cls-3" cx="619.88" cy="283.83" rx="16.04" ry="25.33"/><path class="cls-2" d="M634.42,283.83a34.47,34.47,0,0,1-2.74,13.89c-1.5,3.33-3.69,6.62-6.89,8.52a9.32,9.32,0,0,1-8.74.57c-3.35-1.54-5.72-4.64-7.36-7.85-4.21-8.23-4.41-18.79-1.25-27.4,2.25-6.12,7.84-13.5,15.28-11.09,3.8,1.23,6.51,4.66,8.28,8.08a33.65,33.65,0,0,1,3.42,15.28,1.5,1.5,0,0,0,3,0c0-9-2.94-20.48-11.47-25.2A12.32,12.32,0,0,0,615,258c-3.91,1.69-6.83,5.16-8.78,8.85C601.43,276,601,288,604.8,297.57c2.9,7.38,9.76,15.3,18.59,12.56,4.45-1.38,7.79-5.07,10-9.06a36.56,36.56,0,0,0,4.06-17.24A1.5,1.5,0,0,0,634.42,283.83Z"/><ellipse class="cls-2" cx="613.51" cy="284.47" rx="9.82" ry="20.26"/><path class="cls-3" d="M147.13,534.76H147c-15.61-.9-31.22-2.47-46.67-4.86a237.65,237.65,0,0,1-25.23-5.07,105.69,105.69,0,0,1-10.45-3.32c-4.35-1.68-14.57-6.74-10.4-13.17,1.21-1.87,4.06-1.17,6.12-.31a107.65,107.65,0,0,0,33.39,7.92c1.43.1,3.15,0,3.92-1.18s0-2.8-1.08-3.59A8.75,8.75,0,0,0,92.63,510,99,99,0,0,1,47.09,491.8a14.42,14.42,0,0,1-4.57-4.66c-1-1.94-1.07-4.55.44-6.15,2.52-2.67,6.93-.9,10.13.89a148,148,0,0,0,35,14.05c1.56.4,3.41.72,4.61-.35,1.39-1.24.92-3.66-.44-4.93S89,489,87.19,488.52a103.73,103.73,0,0,1-41.14-20.26,15.09,15.09,0,0,1-4.5-5.05c-1-2.07-.91-4.77.72-6.37,3-3,7.95-.14,11.35,2.4a70.41,70.41,0,0,0,39,13.77,4.46,4.46,0,0,0,2.91-.58c1.33-1,1.1-3.22,0-4.47a9.82,9.82,0,0,0-4.37-2.34,98.45,98.45,0,0,1-36-21.82c-2.89-2.75-5.74-7.23-3.27-10.37,2.32-2.93,7-1.65,10.33,0,16.77,8.15,33,19,51.56,20.71,4.47.41,10.24-.68,11.16-5.08.72-3.47-2.18-6.5-4.44-9.23s-4-7.13-1.34-9.51c2.9-2.64,7.38.19,10.18,2.92l19.76,19.28Z"/><path class="cls-2" d="M147.13,533.26c-11.73-.68-23.44-1.72-35.1-3.21a291.27,291.27,0,0,1-34.45-6.13,85,85,0,0,1-14-4.49c-2.84-1.28-6.11-2.95-7.92-5.6A4,4,0,0,1,55,510c.77-2,2.68-1.4,4.32-.8A158.13,158.13,0,0,0,75,514.43a109.77,109.77,0,0,0,16.22,2.79c2.15.21,4.76.7,6.68-.59a3.87,3.87,0,0,0,.63-5.64c-1.5-2-4-2.21-6.32-2.52-2.56-.36-5.11-.82-7.63-1.38a98.33,98.33,0,0,1-14.83-4.52,97,97,0,0,1-14-6.84q-3.33-2-6.51-4.22c-2-1.39-4.32-2.89-5.42-5.12-.82-1.65-.83-4.09,1.07-5s4.31.19,6,1c2.34,1.14,4.58,2.48,6.9,3.66s4.91,2.4,7.42,3.49a152.73,152.73,0,0,0,15.07,5.68c2.57.81,5.18,1.62,7.81,2.23,2.15.5,4.7.6,6.16-1.37a5,5,0,0,0-.22-5.72c-1.4-2-3.8-2.68-6-3.22a107.42,107.42,0,0,1-14.66-4.61A100.86,100.86,0,0,1,47.11,467.2c-1.79-1.45-3.84-3.11-4.5-5.41-.54-1.94.1-4.4,2.39-4.7,2.1-.28,4.31,1.06,6,2.14,2.08,1.34,4,2.89,6.1,4.21a71.91,71.91,0,0,0,28.53,10.44,55.25,55.25,0,0,0,7.59.64c2.23,0,4.33-1,4.69-3.42.78-5.24-5.48-6.56-9.13-7.93a96.4,96.4,0,0,1-26.45-15.12c-2-1.59-3.9-3.27-5.75-5a12.85,12.85,0,0,1-3.93-5.72,3.11,3.11,0,0,1,2.45-4.08c2-.35,4.18.45,5.94,1.25,9.36,4.27,18.15,9.69,27.54,13.89A96.73,96.73,0,0,0,103,453.66c4.45,1.2,9.41,2.35,14.05,2,3.63-.29,7.79-1.62,9.17-5.36,1.72-4.62-2.08-8.36-4.67-11.67-1.17-1.49-2.39-3.65-2.1-5.63.31-2.15,2.42-2.54,4.18-1.92,2.31.81,4.09,2.58,5.8,4.25l6.35,6.19,12.35,12.05-.44-1.06L147,480.37l-1.09,44.32-.24,10.07c0,1.93,3,1.93,3,0l.69-28.33,1.1-44.51.16-6.57a26,26,0,0,0,.06-2.79c-.06-.84-.56-1.23-1.14-1.8l-4.58-4.47L136.45,438a90,90,0,0,0-8-7.6c-2.32-1.77-5.5-3.43-8.46-2.31-2.77,1.05-3.91,3.92-3.46,6.71.5,3,2.36,5.27,4.24,7.54,1.68,2,4.07,5.13,2.17,7.78-1.34,1.87-4.08,2.4-6.22,2.53a35.27,35.27,0,0,1-9.21-1,75.39,75.39,0,0,1-10.21-3,157.76,157.76,0,0,1-18.84-8.64c-3.21-1.67-6.4-3.38-9.62-5a60.84,60.84,0,0,0-8.76-4.13c-2.52-.82-5.6-1.21-7.93.35-2.66,1.79-3.12,5.08-2,7.91,1.19,3,3.53,5.3,5.89,7.44,2.51,2.26,5.14,4.39,7.85,6.4a98.68,98.68,0,0,0,17.89,10.48c3.07,1.39,6.21,2.6,9.39,3.71,1.28.44,3,1,3.64,2.32.78,1.75-.74,2-2.13,2a67,67,0,0,1-20.15-3.9,72.59,72.59,0,0,1-18.42-9.89c-2.42-1.75-5.26-3.5-8.33-3.64a6,6,0,0,0-6.19,4.84c-.62,3.14.87,6.05,3,8.26a57.16,57.16,0,0,0,8.18,6.51A103.72,103.72,0,0,0,68.61,483.8c3.25,1.44,6.57,2.73,10,3.84s6.52,1.8,9.79,2.71c1.36.38,3,.93,3.54,2.37s-.48,2.2-1.91,2.06a29,29,0,0,1-5-1.25q-2.83-.82-5.66-1.74a146.14,146.14,0,0,1-20.24-8.42c-3.07-1.55-6-3.55-9.32-4.64-2.64-.87-5.8-1-7.86,1.2s-2,5.47-.67,8c1.57,3.05,4.82,5.06,7.56,6.94a100.47,100.47,0,0,0,18.13,9.82,99.24,99.24,0,0,0,20.2,6c1.69.31,3.38.57,5.08.8,1.29.17,3.61.25,4.16,1.75s-1.8,1.27-2.63,1.22c-2-.12-4-.35-6-.61A106.47,106.47,0,0,1,66,508.58c-1.76-.63-3.49-1.32-5.22-2a10.5,10.5,0,0,0-4.24-.92c-2.74.13-4.39,2.41-4.69,5-.56,4.77,4.17,8.18,7.83,10.19,5.38,2.94,11.49,4.56,17.39,6,15.46,3.89,31.44,6,47.29,7.58q11.38,1.17,22.82,1.81C149.06,536.37,149.05,533.37,147.13,533.26Z"/><path class="cls-4" d="M769.93,752.81a281.36,281.36,0,0,0,8-27.67c10.8-46.67,22.44-93.24,29.13-140.73,8.14-57.75,24.72-164.61-49.77-188.06-3.67-.26-7.12-1-10.84-1-5.35,0-10.29-.29-15.74.69-16.1,2.9-32.12,7.33-47.91,11.93-3.45,2.54-6.83,5.79-10.55,7.77a110,110,0,0,1-48.89,12.73c-14.5.15-26.64-5.17-35.27-16.91-2-2.7-14.87-4.28-18.31-5.22a181,181,0,0,0-19.37-4.3c-16.37-2.53-32.72,2.81-45.35,13.31-14.33,11.9-20,30.34-31.93,44.22-13.38,15.64-32.17,26.4-51.17,33.73-28.83,11.13-64.72,13.91-94.88,14.94C261,510.55,148.55,452,148.55,452L146.5,567.5s58.53,24.64,106,32.67c59.61,10.08,119.65,11.57,178.92-3.56,6.82-1.74,39.92-12.44,46.76-14.67C473,625.74,461.1,715.8,449.43,752.8"/><path class="cls-2" d="M771.38,753.21c7.76-22.84,12.44-46.7,17.85-70.17,5.53-24,10.83-48,15.09-72.24,5.27-29.94,9.77-60.48,11.26-90.87,1.35-27.7.25-57.22-11.27-82.91a77.54,77.54,0,0,0-23-29.94,73.61,73.61,0,0,0-17.48-9.95c-9.13-3.7-19.72-3.93-29.47-3-11.74,1.07-23.57,4.59-34.92,7.65q-4,1.08-8,2.2c-2.91.82-6.43,1.33-9.14,2.63-1.8.86-3.41,2.55-5,3.78a43.38,43.38,0,0,1-7.44,4.92,110,110,0,0,1-32.14,10.47c-10.06,1.64-20.8,2.23-30.54-1.28A37.23,37.23,0,0,1,595,417.08c-2.59-2.35-4.47-6.08-7.5-7.79-5.75-3.26-13.42-3.33-19.74-5-10.43-2.74-21.16-5.25-32-3.94a60.4,60.4,0,0,0-27.13,10.43C492.16,422.22,485.84,441,474,456.19c-13.17,16.87-32.75,28.12-52.44,35.7C401.05,499.77,379,503.15,357.3,505c-17.21,1.5-34.65,2.74-51.85.66-31.9-3.86-63-14.67-92.78-26.44-20.48-8.11-40.65-17.08-60.32-27l-3-1.55a1.51,1.51,0,0,0-2.25,1.29l-.69,39-1.11,62.16L145,567.5a1.57,1.57,0,0,0,1.1,1.45c11.42,4.8,23.08,9.09,34.78,13.17,22.58,7.88,45.66,15,69.24,19.15,59.32,10.53,121.05,11.9,179.8-2.74,16.43-4.09,32.55-9.9,48.65-15.14l-1.9-1.45c-5.5,46.76-11.57,93.7-21.11,139.83-2.13,10.3-4.43,20.6-7.58,30.64-.57,1.84,2.32,2.63,2.9.79,6.29-20.1,9.86-41.13,13.39-61.86,4.22-24.73,7.78-49.57,11-74.44q2.29-17.46,4.36-35a1.51,1.51,0,0,0-1.9-1.45c-14.59,4.76-29.19,9.61-43.93,13.89-26.92,7.81-55.56,11-83.5,11.81-30.27.86-60.58-1.62-90.47-6.33-24.29-3.83-47.93-10.39-71.21-18.23-14.06-4.75-28.07-9.82-41.76-15.58l1.1,1.45.69-39,1.1-62.16.26-14.37-2.26,1.3c13.92,7.24,28.27,13.75,42.67,20,28.55,12.33,57.93,23.43,88.24,30.56,14.32,3.36,29,5.92,43.79,6a369.61,369.61,0,0,0,59.7-4.81c20.57-3.26,40.62-9,59.05-18.85a122,122,0,0,0,25.25-17.6,101.26,101.26,0,0,0,18-22.78c5-8.25,9.56-16.87,16.07-24.05a58.29,58.29,0,0,1,26.63-16.62c11.12-3.25,22-2.16,33.12.41,4.14.95,8.21,2.19,12.38,3a105.86,105.86,0,0,1,10.43,2.27,8.78,8.78,0,0,1,3.93,2c1.58,1.58,2.82,3.52,4.42,5.11a40.74,40.74,0,0,0,10,7.31c8,4.11,16.91,5.16,25.8,4.68a109.65,109.65,0,0,0,31.11-6.4A99.31,99.31,0,0,0,673,417.07c4.85-2.67,8.43-7.11,13.84-8.67,11.57-3.34,23.2-6.52,35-9,11.41-2.44,23.44-3.76,35-1.47,6.86,1.36,13.89,5.41,19.62,9.32a68.21,68.21,0,0,1,14.44,13.38c17.4,21.47,21.54,51.05,22.06,77.82.54,27.5-3,54.86-6.86,82-6.61,46.8-17.63,92.69-28.33,138.68-2.62,11.24-5.54,22.35-9.26,33.29-.62,1.83,2.28,2.62,2.9.8Z"/><path class="cls-3" d="M376.68,543.84h-.16c-15.61-.9-31.22-2.47-46.67-4.85a240.73,240.73,0,0,1-25.23-5.08,105.5,105.5,0,0,1-10.44-3.32c-4.35-1.68-14.57-6.74-10.41-13.17,1.22-1.87,4.06-1.17,6.12-.31A107.65,107.65,0,0,0,323.28,525c1.44.1,3.16,0,3.92-1.18s.05-2.8-1.08-3.59a8.71,8.71,0,0,0-3.94-1.14,99,99,0,0,1-45.54-18.23,14.29,14.29,0,0,1-4.56-4.66c-1-1.94-1.07-4.55.43-6.15,2.52-2.67,6.93-.9,10.14.89a147.25,147.25,0,0,0,35,14.05c1.55.41,3.41.72,4.6-.35,1.39-1.24.92-3.66-.43-4.93s-3.27-1.7-5.08-2.13a103.77,103.77,0,0,1-41.15-20.26,15.09,15.09,0,0,1-4.5-5c-1-2.07-.9-4.77.73-6.37,3-3,7.95-.13,11.35,2.4a70.38,70.38,0,0,0,39,13.77,4.45,4.45,0,0,0,2.91-.58c1.33-1,1.11-3.22,0-4.47a9.82,9.82,0,0,0-4.37-2.34,98.61,98.61,0,0,1-36-21.81c-2.9-2.76-5.75-7.24-3.27-10.37,2.31-2.94,7-1.66,10.32,0,16.77,8.15,33,19,51.57,20.71,4.47.41,10.24-.68,11.16-5.08.72-3.47-2.18-6.5-4.45-9.23s-4-7.13-1.34-9.51c2.9-2.64,7.39.19,10.19,2.93l19.75,19.27Z"/><path class="cls-2" d="M376.68,542.34q-17.6-1-35.09-3.21A290.91,290.91,0,0,1,307.14,533a85,85,0,0,1-14-4.49c-2.84-1.28-6.12-3-7.92-5.6a4,4,0,0,1-.62-3.8c.78-2,2.68-1.4,4.32-.8a156.4,156.4,0,0,0,15.63,5.2,110.22,110.22,0,0,0,16.22,2.79c2.16.21,4.76.7,6.69-.59a3.88,3.88,0,0,0,.63-5.64c-1.51-2-4-2.21-6.32-2.52q-3.84-.54-7.64-1.38a98.21,98.21,0,0,1-14.82-4.52,96.48,96.48,0,0,1-14-6.84q-3.35-2-6.51-4.22c-2-1.39-4.32-2.89-5.43-5.12-.81-1.65-.83-4.09,1.08-5s4.31.19,6,1c2.33,1.14,4.57,2.48,6.89,3.66s4.92,2.4,7.42,3.49a152.73,152.73,0,0,0,15.07,5.68c2.58.81,5.18,1.62,7.81,2.23,2.15.5,4.7.6,6.17-1.36a5,5,0,0,0-.23-5.73c-1.39-2-3.8-2.68-6-3.21a109,109,0,0,1-14.67-4.62,100.91,100.91,0,0,1-26.21-15.35c-1.78-1.45-3.84-3.11-4.49-5.41-.55-1.93.1-4.4,2.39-4.7,2.1-.27,4.31,1.06,6,2.14,2.09,1.34,4,2.89,6.11,4.21A71.8,71.8,0,0,0,315.19,483a55.12,55.12,0,0,0,7.59.64c2.23,0,4.32-1,4.68-3.42.79-5.23-5.47-6.56-9.12-7.93a96.35,96.35,0,0,1-26.46-15.12c-2-1.59-3.9-3.27-5.75-5-1.65-1.57-3.34-3.46-3.92-5.72a3.1,3.1,0,0,1,2.45-4.07c2-.36,4.17.44,5.94,1.24,9.35,4.27,18.14,9.69,27.53,13.89a97.26,97.26,0,0,0,14.39,5.28c4.45,1.2,9.4,2.36,14,2,3.64-.29,7.79-1.62,9.18-5.36,1.72-4.62-2.08-8.36-4.67-11.67-1.17-1.49-2.4-3.65-2.11-5.63.31-2.15,2.42-2.54,4.19-1.92,2.3.81,4.09,2.58,5.8,4.25l6.34,6.2,12.35,12.05-.44-1.07-.68,27.86-1.09,44.32-.25,10.07c-.05,1.93,2.95,1.93,3,0l.7-28.33L380,471l.16-6.57c0-.91.14-1.88.07-2.79s-.57-1.23-1.14-1.79l-4.59-4.48L366,447.11a90.12,90.12,0,0,0-8-7.6c-2.31-1.77-5.49-3.43-8.45-2.31-2.78,1.05-3.92,3.92-3.46,6.71.49,3,2.36,5.27,4.23,7.54,1.68,2,4.07,5.13,2.18,7.78-1.34,1.87-4.09,2.4-6.23,2.53a35.37,35.37,0,0,1-9.21-1,75.26,75.26,0,0,1-10.2-2.95A157,157,0,0,1,308,449.15c-3.21-1.67-6.41-3.37-9.62-5A62,62,0,0,0,289.6,440c-2.51-.82-5.6-1.21-7.92.35-2.67,1.79-3.13,5.08-2,7.91,1.2,3,3.53,5.3,5.9,7.44s5.13,4.39,7.85,6.4a98.34,98.34,0,0,0,17.89,10.48c3.07,1.39,6.2,2.6,9.39,3.71,1.27.44,3,1,3.64,2.32.77,1.75-.74,2-2.14,2a67,67,0,0,1-20.14-3.9,72.42,72.42,0,0,1-18.42-9.89c-2.42-1.75-5.26-3.5-8.34-3.64a6,6,0,0,0-6.18,4.84c-.62,3.14.87,6.05,3,8.26a57.16,57.16,0,0,0,8.18,6.51,104,104,0,0,0,17.85,10.11c3.26,1.44,6.57,2.73,9.95,3.84,3.23,1.06,6.53,1.8,9.8,2.71,1.35.38,3,.93,3.53,2.37s-.47,2.2-1.91,2.06a28.92,28.92,0,0,1-5-1.25c-1.9-.54-3.79-1.13-5.66-1.74a146.77,146.77,0,0,1-20.25-8.42c-3.07-1.55-6-3.55-9.31-4.64-2.65-.87-5.8-1-7.87,1.2s-2,5.47-.67,8c1.57,3,4.82,5.06,7.57,6.94a100.38,100.38,0,0,0,18.12,9.82,99,99,0,0,0,20.2,6c1.69.31,3.39.57,5.09.8,1.29.18,3.61.25,4.15,1.75s-1.79,1.27-2.63,1.22c-2-.12-4-.35-6-.61a106.4,106.4,0,0,1-21.76-5.25c-1.75-.63-3.48-1.32-5.21-2a10.58,10.58,0,0,0-4.25-.92c-2.73.13-4.39,2.41-4.69,5-.55,4.77,4.17,8.19,7.84,10.19,5.37,2.94,11.48,4.56,17.38,6,15.47,3.89,31.45,6,47.3,7.59q11.38,1.15,22.81,1.8C378.61,545.45,378.6,542.45,376.68,542.34Z"/><path class="cls-4" d="M734.21,424.06c-14.34,11.91-20.05,30.34-31.93,44.22-13.39,15.64-32.18,26.4-51.17,33.73-28.84,11.13-64.73,13.91-94.89,15-66,2.27-178.48-56.26-178.48-56.26l-2,115.48s58.53,24.63,106,32.66c59.6,10.09,119.65,11.57,178.92-3.55,6.82-1.75,39.91-12.44,46.76-14.67"/><path class="cls-2" d="M733.14,423c-12.58,10.58-18.68,26.14-28,39.24-10,14.05-24.65,24.36-40,32-31.89,15.88-68,19.56-103.14,21A174.9,174.9,0,0,1,525.45,513a318.11,318.11,0,0,1-38.16-9.16A618.32,618.32,0,0,1,415.78,477c-12.41-5.46-24.63-11.3-36.76-17.35l-.52-.27a1.52,1.52,0,0,0-2.26,1.3l-.69,39.07L374.45,562l-.25,14.2a1.54,1.54,0,0,0,1.1,1.44c11.33,4.77,22.9,9,34.5,13.08,22.79,8,46.08,15.12,69.88,19.31a506.43,506.43,0,0,0,90.21,8,377.49,377.49,0,0,0,89.75-10.95c7.1-1.78,14.08-4.13,21.06-6.33q12-3.79,23.94-7.67l3.13-1c1.82-.59,1-3.49-.8-2.89-14.58,4.75-29.16,9.58-43.89,13.87a288.09,288.09,0,0,1-37.14,7.74,380.8,380.8,0,0,1-45.36,4.05c-30.3.94-60.65-1.48-90.58-6.15-24.57-3.83-48.48-10.41-72-18.34q-13.8-4.65-27.4-9.86c-4.63-1.77-9.19-3.84-13.87-5.49l-.62-.26,1.11,1.45.69-39.08,1.1-62.21.25-14.19L377,462c10.14,5.28,20.53,10.11,30.95,14.8a668.14,668.14,0,0,0,70,27.33,365,365,0,0,0,38.88,10.35c11.82,2.39,23.9,4.1,36,4a395.47,395.47,0,0,0,51.11-3.72c17.56-2.36,35-6.11,51.43-12.88,16-6.57,31.28-15.4,43.5-27.73a102.85,102.85,0,0,0,14.88-19.82c4.2-7,8.11-14.18,13.17-20.58a59,59,0,0,1,8.35-8.67c1.48-1.24-.66-3.35-2.13-2.12Z"/></svg>