<svg id="Layer_3" data-name="Layer 3" xmlns="http://www.w3.org/2000/svg" xmlns:xlink="http://www.w3.org/1999/xlink" viewBox="0 0 969 748"><defs><style>.cls-1{fill:url(#linear-gradient);}.cls-2{fill:#1a1a1a;}.cls-3{fill:#ff0;}.cls-4{fill:blue;}.cls-5{fill:red;}.cls-6{fill:#ef1010;}.cls-7{fill:#df2020;}.cls-8{fill:#cf3030;}.cls-9{fill:#bf4040;}.cls-10{fill:#af5050;}.cls-11{fill:#9f6060;}.cls-12{fill:#8f7070;}.cls-13{fill:gray;}.cls-14{fill:#708f8f;}.cls-15{fill:#609f9f;}.cls-16{fill:#50afaf;}.cls-17{fill:#40bfbf;}.cls-18{fill:#30cfcf;}.cls-19{fill:#20dfdf;}.cls-20{fill:#10efef;}.cls-21{fill:aqua;}.cls-22{fill:#f0f;}</style><linearGradient id="linear-gradient" x1="234.5" y1="276.49" x2="360.5" y2="276.49" gradientUnits="userSpaceOnUse"><stop offset="0" stop-color="#ff0"/><stop offset="0.08" stop-color="#ffcb34"/><stop offset="0.17" stop-color="#ff9c63"/><stop offset="0.26" stop-color="#ff728d"/><stop offset="0.36" stop-color="#ff4fb0"/><stop offset="0.46" stop-color="#ff32cd"/><stop offset="0.56" stop-color="#ff1ce3"/><stop offset="0.68" stop-color="#ff0cf3"/><stop offset="0.81" stop-color="#ff03fc"/><stop offset="1" stop-color="#f0f"/></linearGradient></defs><title>brainstorm_obj</title><circle class="cls-1" cx="297.5" cy="276.49" r="63"/><path class="cls-2" d="M359,276.49a61.09,61.09,0,1,1-.71-9.45,62,62,0,0,1,.71,9.45,1.5,1.5,0,0,0,3,0,64.43,64.43,0,1,0-.79,10.08,68,68,0,0,0,.79-10.08A1.5,1.5,0,0,0,359,276.49Z"/><circle class="cls-3" cx="241.5" cy="181.5" r="18"/><path class="cls-2" d="M258,181.5a16.5,16.5,0,1,1-13.31-16.2A16.67,16.67,0,0,1,258,181.5a1.5,1.5,0,0,0,3,0,19.51,19.51,0,1,0-15.68,19.12A19.75,19.75,0,0,0,261,181.5,1.5,1.5,0,0,0,258,181.5Z"/><circle class="cls-4" cx="198.5" cy="351.5" r="36"/><path class="cls-2" d="M233,351.5a34.37,34.37,0,1,1-.42-5.47,35.7,35.7,0,0,1,.42,5.47,1.5,1.5,0,0,0,3,0,37.58,37.58,0,1,0-.48,5.93,39.2,39.2,0,0,0,.48-5.93A1.5,1.5,0,0,0,233,351.5Z"/><path class="cls-5" d="M292.83,328,301,342.87a2.84,2.84,0,0,0,1.14,1.14l14.92,8.16a5.67,5.67,0,0,1,0,9.95l-14.92,8.16a2.84,2.84,0,0,0-1.14,1.14l-8.16,14.92a5.67,5.67,0,0,1-9.95,0l-8.16-14.92a2.84,2.84,0,0,0-1.14-1.14l-14.92-8.16a5.67,5.67,0,0,1,0-9.95L273.58,344a2.84,2.84,0,0,0,1.14-1.14L282.88,328A5.67,5.67,0,0,1,292.83,328Z"/><path class="cls-2" d="M291.53,328.7c2.69,4.92,5.23,10,8.08,14.78,1.19,2,3.8,2.94,5.76,4l9.46,5.18a11.12,11.12,0,0,1,2.4,1.47,4.22,4.22,0,0,1,.4,5.58,8.1,8.1,0,0,1-2.67,1.83l-4.3,2.35-8.73,4.78c-2,1.09-2.77,2.95-3.81,4.87l-5.29,9.66c-.43.79-.84,1.59-1.29,2.36a4.2,4.2,0,0,1-4.94,2c-2.48-.77-3.69-4.33-4.83-6.41l-5.09-9.32a6.88,6.88,0,0,0-2.07-2.71c-.68-.46-1.45-.82-2.18-1.22l-9.59-5.24c-2.23-1.22-5.43-2.32-5.63-5.28-.21-3.27,3.09-4.43,5.44-5.72l9.63-5.27c.68-.37,1.39-.72,2.05-1.12a6.46,6.46,0,0,0,2.28-2.77l5.05-9.24,2.11-3.84a5.24,5.24,0,0,1,2.4-2.62,4.23,4.23,0,0,1,5.36,1.86,1.5,1.5,0,0,0,2.59-1.51,7.24,7.24,0,0,0-12.53,0c-1.4,2.42-2.69,4.91-4,7.35s-2.58,5.19-4.14,7.56a5.82,5.82,0,0,1-2.22,1.5l-4.66,2.55c-2.83,1.55-5.69,3.06-8.51,4.65-4.15,2.35-5.23,8.21-1.57,11.57a13.75,13.75,0,0,0,2.83,1.81l4.65,2.55c2.88,1.57,5.79,3.11,8.64,4.72a3.39,3.39,0,0,1,1.3,1.59l2.27,4.14,5.1,9.31a8,8,0,0,0,3.15,3.43,7.32,7.32,0,0,0,7.14-.14c2.52-1.52,3.78-4.89,5.14-7.37l5.21-9.53a3.13,3.13,0,0,1,1.28-1.46c1.16-.66,2.34-1.29,3.51-1.93l9.85-5.38a12.11,12.11,0,0,0,2.91-1.94,7.28,7.28,0,0,0,1.76-7.07c-1-3.35-4.13-4.62-6.92-6.15l-9.93-5.43a5.31,5.31,0,0,1-2.09-1.43c-.54-.82-.95-1.74-1.42-2.6l-5.52-10.09-1.21-2.21C293.19,325.5,290.6,327,291.53,328.7Z"/><path class="cls-6" d="M250.86,352.35c.09,0,14.08-7.47,14-7.42.45-.24.48-.43.72-.88l7.63-14c2-3.69,7.11-3.34,9.13.35-.05.09,7.47,14.08,7.42,14,.24.45.42.47.88.72l14,7.62c3.68,2,3.33,7.12-.35,9.14-.09-.05-14.08,7.46-14,7.41-.45.25-.47.43-.72.88,0,0-7.63,14-7.63,14-2,3.68-7.11,3.33-9.13-.35.05-.1-7.47-14.08-7.41-14-.25-.45-.43-.48-.89-.72l-14-7.63C246.83,359.47,247.18,354.37,250.86,352.35Z"/><path class="cls-2" d="M250.86,353.85a7.74,7.74,0,0,0,2.52-1.1l4.21-2.23c2.59-1.38,5.21-2.71,7.76-4.16,1.65-.93,2.51-3.38,3.39-5l4.82-8.83a16.11,16.11,0,0,1,1.28-2.25,3.6,3.6,0,0,1,5-.49,9.37,9.37,0,0,1,1,1.1c.55.58-.66-1.63,0-.05l.18.42c.12.3.29.58.44.87.68,1.32,1.38,2.64,2.08,4l4.47,8.37a4.36,4.36,0,0,0,1.85,2l2.31,1.25,9.1,5c2.2,1.2,5.26,2.47,4.15,5.63a4.09,4.09,0,0,1-.6,1.13,4.37,4.37,0,0,1-.64.65l-.19.16c-.36.17-.37.22,0,.16-.1.11,1-.42-.18,0l-.42.17-.37.18c-1.09.54-2.16,1.13-3.24,1.7l-8.91,4.77a6.6,6.6,0,0,0-2.25,1.49,16.76,16.76,0,0,0-1.25,2.23q-2.44,4.49-4.9,9c-1,1.89-2.08,5-4.58,5.26a3.88,3.88,0,0,1-2.68-.8,4.37,4.37,0,0,1-.65-.64l-.16-.2c-.17-.35-.22-.36-.16,0-.11-.1.41,1,0-.19-.06-.15-.12-.3-.19-.45-.42-.9-.91-1.76-1.37-2.63-1.6-3-3.23-6.07-4.85-9.11-.38-.7-.73-1.44-1.14-2.12a5.55,5.55,0,0,0-2.34-1.77l-8.43-4.6-3.82-2.09a4.78,4.78,0,0,1-2.35-2,3.94,3.94,0,0,1,1.9-5,1.5,1.5,0,0,0-1.52-2.59c-4.46,2.6-5,9-.34,11.72,2.29,1.33,4.65,2.54,7,3.81s4.75,2.41,7,3.81a3.94,3.94,0,0,1,1.17,1.71l2.31,4.31,2.68,5a18.2,18.2,0,0,0,1.53,2.94c.12.15-.1.24-.08-.21,0-.84,0,.09.16.38a5.87,5.87,0,0,0,1,1.36,7.17,7.17,0,0,0,3.11,2,6.48,6.48,0,0,0,6.68-1.68,12.39,12.39,0,0,0,1.67-2.62l2.4-4.39c1.46-2.67,2.93-5.34,4.38-8a2,2,0,0,1,1.1-1l3.79-2c2.93-1.56,5.84-3.16,8.8-4.66a3.84,3.84,0,0,0,.4-.21c.49-.37-1.27.59-.13.05a7,7,0,0,0,2.94-2.56,6.67,6.67,0,0,0,.32-6.78c-1.32-2.4-4.47-3.58-6.76-4.83l-8.95-4.89a3.85,3.85,0,0,1-1.25-.81,23.71,23.71,0,0,1-1.71-3.18c-1.63-3.05-3.26-6.09-4.86-9.15a11.17,11.17,0,0,0-.64-1.24c-.25-.33.07.41.1.53a4.6,4.6,0,0,0-1.17-2.11,7,7,0,0,0-6.41-2.21c-3.32.63-4.57,3.63-6,6.26l-5.11,9.35a9.05,9.05,0,0,1-1,1.91,9.46,9.46,0,0,1-2.13,1.14c-3.15,1.69-6.29,3.38-9.45,5l-1.57.82-.54.28c-.47.27.25-.05.46-.07C249,351.07,249,354.08,250.86,353.85Z"/><path class="cls-7" d="M243.07,352.53c.18.1,13.24-6.78,13.05-6.68.43-.23.07-.19.31-.62,0,0,7.09-13,7.08-13,1.88-3.44,6.44-2.74,8.32.7-.1.18,6.78,13.24,6.68,13.06.23.42.19.07.61.3,0,0,13,7.1,13,7.09,3.44,1.88,2.74,6.43-.7,8.31-.19-.1-13.24,6.78-13.06,6.68-.42.23-.07.19-.3.62,0,0-7.1,13-7.09,13-1.88,3.44-6.44,2.74-8.32-.7.1-.18-6.77-13.24-6.67-13.06-.23-.42-.2-.07-.62-.3,0,0-13-7.1-13-7.08C238.93,359,239.63,354.41,243.07,352.53Z"/><path class="cls-2" d="M243.07,354c.82.05,1.92-.73,2.61-1.08,1.5-.75,3-1.52,4.48-2.29,2.24-1.17,4.47-2.36,6.72-3.51l-1.51-2.59h0l1.51,2.59a2.18,2.18,0,0,0,.91-1.14c.49-1.16-.22.31,0-.09s.32-.59.48-.89l1.91-3.51,4.26-7.8a3.89,3.89,0,0,1,1.83-2.08,3,3,0,0,1,2.26.11,4,4,0,0,1,1.09.72c.22.19.38.48.6.66l.18.27c-.06-.59-.05-.61,0-.06.89,2.14,2,4.19,3.09,6.24,1.24,2.4,2.51,4.77,3.74,7.17l2.59-1.52h0l-2.59,1.51a2.22,2.22,0,0,0,1.13.92c1.17.48-.3-.23.1,0s.59.32.89.48l3.51,1.92,7.8,4.25a3.88,3.88,0,0,1,2.07,1.83,3,3,0,0,1-.1,2.27,4,4,0,0,1-.72,1.09c-.2.21-.48.37-.66.59l-.27.18c.59-.06.61-.05.06,0-2.14.89-4.19,2-6.25,3.09-2.39,1.23-4.76,2.51-7.16,3.73l1.52,2.59h0l-1.52-2.59a2.28,2.28,0,0,0-.91,1.14c-.48,1.17.23-.31,0,.09s-.32.6-.48.89l-1.92,3.51q-2.13,3.9-4.25,7.8a3.93,3.93,0,0,1-1.83,2.08,3.08,3.08,0,0,1-2.27-.11,4,4,0,0,1-1.09-.72c-.21-.19-.38-.48-.59-.65l-.18-.28c.05.59.05.61,0,.06-.89-2.14-2-4.19-3.09-6.24-1.24-2.39-2.51-4.77-3.74-7.16L254.69,369h0l2.59-1.51a1.92,1.92,0,0,0-1-.89c-.33-.1-.81-.27-.14,0l-.43-.23c-.66-.38-1.33-.73-2-1.09l-6.29-3.43c-1.4-.77-2.81-1.5-4.19-2.29-2.57-1.48-1.6-4.47.62-5.77a1.5,1.5,0,0,0-1.51-2.59,6.87,6.87,0,0,0-3.6,6.95,6.09,6.09,0,0,0,3.39,4.23l9.8,5.34,2.13,1.17.51.27.07,0a4.78,4.78,0,0,0,.48.19c.09,0,.78.19.37.07l-.9-.69.13.19c1.09,1.56,3.64.14,2.59-1.51h0a1.5,1.5,0,0,0-2.59,1.51c1.12,2.18,2.27,4.33,3.4,6.5.77,1.48,1.53,3,2.29,4.46.24.47.48.95.71,1.44a1.85,1.85,0,0,0,.21.45s-.19-.35-.1-.21,0,0,0-.34a1.48,1.48,0,0,0,.21.76,6.88,6.88,0,0,0,5.59,3.68,5.72,5.72,0,0,0,5.32-3c1.22-2.09,2.33-4.26,3.49-6.38l2.62-4.83c.26-.47.53-.94.78-1.42.06-.11.12-.22.17-.33s.4-1.27.28-.88l-.69.9.2-.14c1.56-1.09.14-3.63-1.52-2.59h0a1.5,1.5,0,0,0,1.52,2.59c2.17-1.11,4.33-2.27,6.5-3.39,1.48-.77,3-1.54,4.45-2.29l1.44-.71a2.4,2.4,0,0,0,.46-.21s-.35.19-.22.09,0,0-.33,0a1.5,1.5,0,0,0,.75-.2,6.88,6.88,0,0,0,3.69-5.59,5.75,5.75,0,0,0-3-5.32c-2.09-1.23-4.26-2.33-6.39-3.49L281.67,346l-1.43-.77-.32-.18c-.13-.06-1.28-.39-.88-.28l.9.69-.14-.19c-1.09-1.56-3.63-.14-2.59,1.51h0a1.5,1.5,0,0,0,2.59-1.52c-1.11-2.17-2.27-4.33-3.39-6.5-.77-1.48-1.54-3-2.29-4.45-.24-.48-.48-1-.71-1.45a2.31,2.31,0,0,0-.21-.45s.18.35.09.21,0,0,0,.34a1.57,1.57,0,0,0-.2-.76,6.9,6.9,0,0,0-5.6-3.68,5.7,5.7,0,0,0-5.31,3c-1.23,2.09-2.33,4.26-3.49,6.38l-2.63,4.83c-.26.47-.53.94-.78,1.43,0,.1-.12.21-.17.32s-.39,1.27-.28.88l.69-.9-.19.14c-1.56,1.09-.15,3.63,1.51,2.59h0a1.5,1.5,0,0,0-1.51-2.59c-2.1,1.07-4.19,2.19-6.28,3.28-1.44.75-2.89,1.49-4.33,2.22-.54.28-1.08.55-1.63.81-.15.08-.33.14-.48.23s.24-.09.42-.07C241.14,350.89,241.15,353.89,243.07,354Z"/><path class="cls-8" d="M235.27,352.7c.28.15,12.4-6.08,12.13-5.93.39-.21-.34,0-.12-.35,0,0,6.57-12.08,6.55-12.05,1.74-3.19,5.76-2.14,7.5,1.05-.15.28,6.09,12.4,5.93,12.13.22.39,0-.34.36-.12,0,0,12.08,6.56,12,6.55,3.2,1.74,2.15,5.76-1.05,7.5-.27-.15-12.4,6.08-12.12,5.93-.39.22.34,0,.12.36,0,0-6.57,12.08-6.55,12-1.75,3.2-5.76,2.15-7.51-1.05.16-.27-6.08-12.4-5.93-12.12-.21-.39,0,.33-.35.12,0,0-12.08-6.57-12.05-6.55C231,358.46,232.08,354.45,235.27,352.7Z"/><path class="cls-2" d="M234.87,354.15a4.94,4.94,0,0,0,2.8-.84c1.4-.66,2.8-1.36,4.19-2.06,2.1-1.05,4.17-2.2,6.3-3.19l-1.52-2.59h0l1.51,2.59.12-.08c.82-.58,1.12-2.1,0-2.6-.08,0-.6-.33-.27-.1l.69,1.69c.08-.42-.29.43,0-.05.12-.19.22-.4.33-.61l1.16-2.14,3-5.48c.64-1.16,1.24-2.35,1.91-3.49,1.39-2.36,3.88-.88,5,1l-.15-1.16a4.86,4.86,0,0,0,.84,2.8c.66,1.4,1.36,2.79,2,4.18,1.05,2.11,2.21,4.17,3.19,6.31l2.59-1.52h0L266,348.3l.08.12c.57.82,2.09,1.12,2.59,0,0-.08.34-.6.11-.27l-1.7.69c.43.08-.43-.3.05,0,.2.12.41.22.61.32l2.15,1.17,5.47,3c1.17.64,2.36,1.24,3.5,1.91,2.36,1.38.88,3.88-1,5L279,360a4.9,4.9,0,0,0-2.79.83c-1.41.67-2.8,1.36-4.19,2.06-2.1,1.05-4.17,2.21-6.3,3.19l1.51,2.59h0l-1.52-2.59-.11.08c-.83.57-1.12,2.09,0,2.59.08,0,.6.34.27.11l-.69-1.7c-.09.43.29-.43,0,.05-.12.19-.22.41-.33.61-.38.72-.77,1.43-1.16,2.14-1,1.83-2,3.66-3,5.48-.63,1.17-1.23,2.36-1.9,3.5-1.39,2.36-3.88.88-5-1l.15,1.15a4.81,4.81,0,0,0-.84-2.79c-.66-1.41-1.36-2.8-2-4.19-1.06-2.1-2.21-4.17-3.19-6.3l-2.59,1.51h0l2.59-1.52-.08-.12c-.57-.82-2.1-1.11-2.59,0,0,.09-.34.61-.11.27l1.69-.69c-.42-.08.44.3,0,0-.2-.12-.41-.22-.61-.33L244,363.85l-5.48-3c-1.16-.63-2.35-1.23-3.49-1.9-2.36-1.39-.88-3.88,1-5a1.5,1.5,0,0,0-1.51-2.59c-2.78,1.62-4.93,5.26-3,8.32.93,1.47,2.7,2.2,4.18,3q3.19,1.75,6.41,3.49c1.17.64,2.57,1.76,3.91,2a1.59,1.59,0,0,0,1.69-.69c.07-.11.32-.76.11-.27h-2.59l.08.12c1.08,1.56,3.58.17,2.59-1.52h0c-1-1.7-3.39-.21-2.59,1.51.91,2,2,3.91,3,5.86.69,1.37,1.38,2.75,2,4.13.23.48.46,1,.68,1.45.05.13.13.14,0-.06a1,1,0,0,1,.08.18s0,.11,0,.14c.16-1.46-.09-.35,0,.07.47,2,3.08,3.67,4.94,4a5,5,0,0,0,5.31-2.58c1.09-1.86,2.07-3.8,3.1-5.69l2.41-4.43a9.67,9.67,0,0,0,1.22-2.45,1.56,1.56,0,0,0-.69-1.69c-.1-.08-.75-.33-.27-.11v2.59l.12-.08c1.56-1.09.18-3.58-1.52-2.59h0c-1.7,1-.21,3.39,1.51,2.59,2-.92,3.91-2,5.86-3,1.38-.69,2.75-1.37,4.14-2,.47-.23.95-.46,1.44-.67.13-.06.14-.14-.06,0l.18-.07s.12-.05.14,0c-1.46-.16-.35.09.07,0,2-.47,3.67-3.08,4-4.94a5,5,0,0,0-2.58-5.31c-1.86-1.09-3.8-2.07-5.69-3.1l-4.43-2.42a9.48,9.48,0,0,0-2.45-1.21,1.56,1.56,0,0,0-1.69.69c-.07.1-.32.75-.11.27h2.59l-.08-.12c-1.09-1.57-3.58-.18-2.59,1.51h0c1,1.69,3.39.21,2.59-1.52-.91-2-2-3.9-3-5.86-.68-1.37-1.37-2.74-2-4.13-.23-.48-.45-1-.67-1.44-.05-.13-.13-.14,0,.06a.77.77,0,0,1-.08-.19s0-.11,0-.13c-.16,1.46.09.34,0-.08-.47-2-3.08-3.66-4.94-4a5.06,5.06,0,0,0-5.31,2.59c-1.09,1.85-2.07,3.79-3.1,5.68q-1.22,2.22-2.41,4.44a9.61,9.61,0,0,0-1.22,2.44,1.57,1.57,0,0,0,.69,1.7c.1.07.75.32.27.11v-2.6l-.12.09c-1.56,1.08-.18,3.58,1.51,2.59h0c1.69-1,.21-3.38-1.52-2.59-1.9.89-3.75,1.92-5.63,2.86-1.33.67-2.66,1.33-4,2l-1.57.74c-.25.12-.32.2-.21.1-.24.24-1-.15.44.11C233.78,350.92,233,353.81,234.87,354.15Z"/><path class="cls-9" d="M227.48,352.88c.37.2,11.56-5.39,11.19-5.19.36-.2-.74.27-.54-.09,0,0,6-11.13,6-11.09,1.62-2.94,5.08-1.54,6.7,1.4-.21.37,5.39,11.56,5.18,11.19.2.37-.27-.73.1-.54,0,0,11.13,6,11.08,6,2.95,1.61,1.55,5.08-1.4,6.69-.37-.2-11.56,5.39-11.19,5.19-.36.2.74-.27.54.09,0,0-6,11.13-6,11.08-1.61,2.95-5.08,1.55-6.69-1.39.2-.37-5.39-11.56-5.19-11.2-.2-.36.27.74-.1.55,0,0-11.12-6-11.08-6C223.13,358,224.53,354.49,227.48,352.88Z"/><path class="cls-2" d="M227.08,354.33a4.4,4.4,0,0,0,2.62-.69c1.3-.57,2.58-1.18,3.86-1.79l3.91-1.91,1.36-.66c.22-.11,1-.36.25-.15l-1.16-2.74h0l1.52,2.59.07-.05a1.51,1.51,0,0,0-.76-2.79,1.12,1.12,0,0,0-.48.06c-.44.17-.25-.28.61.19l.69,1.7c.05-.28-.3.47,0,.07.11-.17.19-.36.28-.53.33-.62.67-1.23,1-1.84q1.38-2.57,2.78-5.11c.6-1.1,1.17-2.23,1.8-3.31,1.24-2.12,3.3-.19,4.16,1.29l-.15-1.16a4.38,4.38,0,0,0,.69,2.62c.56,1.3,1.18,2.58,1.79,3.86s1.26,2.61,1.9,3.92c.22.45.44.9.67,1.35.11.23.36,1,.14.25l2.74-1.15h0l-2.59,1.51,0,.07a1.51,1.51,0,0,0,2.8-.75,1.17,1.17,0,0,0-.07-.49c-.16-.43.29-.24-.19.61l-1.69.69c.28.05-.48-.3-.07,0,.16.11.35.19.53.29l1.84,1L263,354c1.1.6,2.23,1.17,3.31,1.81,2.12,1.23.18,3.3-1.3,4.15l1.16-.15a4.4,4.4,0,0,0-2.62.69c-1.3.57-2.58,1.18-3.85,1.79l-3.92,1.91-1.35.66c-.23.11-1,.36-.26.15l1.16,2.74h0l-1.52-2.59-.07,0a1.51,1.51,0,0,0,.76,2.79,1.12,1.12,0,0,0,.48-.06c.44-.17.25.28-.61-.19l-.69-1.7c-.05.28.3-.48,0-.07-.11.17-.19.36-.28.53-.33.62-.66,1.23-1,1.84l-2.77,5.11c-.61,1.1-1.18,2.23-1.81,3.31-1.24,2.12-3.3.19-4.16-1.29l.15,1.15a4.36,4.36,0,0,0-.68-2.61c-.57-1.3-1.19-2.58-1.8-3.86s-1.26-2.61-1.9-3.92c-.22-.45-.44-.9-.67-1.35-.11-.23-.36-1-.14-.25L236,365.79h0l2.59-1.51,0-.07a1.51,1.51,0,0,0-2.8.75,1.39,1.39,0,0,0,.07.49c.16.43-.29.24.19-.61l1.69-.69c-.28-.05.48.3.07,0-.16-.11-.35-.19-.53-.29l-1.84-1-5.1-2.78c-1.11-.6-2.23-1.17-3.32-1.81-2.12-1.23-.18-3.3,1.3-4.16a1.5,1.5,0,0,0-1.52-2.59c-2.55,1.48-5,4.79-3.11,7.73.84,1.32,2.48,2,3.81,2.7l5.85,3.19c1.07.57,2.38,1.62,3.6,1.85a1.55,1.55,0,0,0,1.69-.69,1.77,1.77,0,0,0,.24-.95s-.06-1.16-.09-.44l-2.79.76,0,.07a1.5,1.5,0,0,0,2.59-1.51h0a1.5,1.5,0,0,0-2.74,1.15,11.15,11.15,0,0,0,.91,1.91c.6,1.22,1.19,2.45,1.78,3.67s1.23,2.56,1.82,3.85c.21.48.38.84.48,1.12,0,.11.08.27.14.38s0,.15.05.16-.18-1.28,0-.08c.25,1.85,2.74,3.7,4.42,4.15a4.38,4.38,0,0,0,5-2.2c1-1.69,1.9-3.47,2.84-5.21l2.27-4.18a8.5,8.5,0,0,0,1.08-2.15,1.55,1.55,0,0,0-.69-1.69,1.79,1.79,0,0,0-1-.25s-1.16.07-.43.09l.76,2.8.07-.05a1.5,1.5,0,0,0-1.52-2.59h0a1.51,1.51,0,0,0,1.16,2.74,12.37,12.37,0,0,0,1.91-.91l3.67-1.79c1.27-.61,2.55-1.23,3.85-1.81l1.11-.49a1.57,1.57,0,0,0,.38-.14s.15,0,.16,0-1.28.18-.08,0c1.86-.25,3.7-2.73,4.16-4.42a4.41,4.41,0,0,0-2.2-5c-1.7-1-3.48-1.89-5.21-2.84l-4.19-2.27a8.75,8.75,0,0,0-2.14-1.07,1.56,1.56,0,0,0-1.7.69,1.77,1.77,0,0,0-.24.95s.06,1.16.09.44l2.8-.76-.05-.07a1.5,1.5,0,0,0-2.59,1.51h0a1.51,1.51,0,0,0,2.75-1.16,13.25,13.25,0,0,0-.91-1.9c-.6-1.22-1.2-2.45-1.79-3.67s-1.23-2.56-1.82-3.85c-.21-.48-.38-.84-.48-1.12,0-.11-.08-.27-.14-.38s0-.15-.05-.16.18,1.28,0,.08c-.25-1.85-2.74-3.7-4.42-4.15a4.38,4.38,0,0,0-5,2.2c-1,1.69-1.9,3.47-2.84,5.21l-2.27,4.18a8.5,8.5,0,0,0-1.08,2.15,1.55,1.55,0,0,0,.69,1.69,1.7,1.7,0,0,0,1,.24s1.16-.06.43-.08l-.75-2.8-.08,0a1.5,1.5,0,0,0,1.52,2.59h0a1.51,1.51,0,0,0-1.16-2.74,11.21,11.21,0,0,0-1.75.83l-3.61,1.76c-1.26.61-2.52,1.21-3.79,1.8l-1.22.54a4.52,4.52,0,0,0-.47.18c-.37.2-.57-.17.44.08C226,351,225.2,353.86,227.08,354.33Z"/><path class="cls-10" d="M219.69,353.06c.46.25,10.71-4.7,10.25-4.45.34-.18-1.14.5-1,.17-.06,0,5.51-10.18,5.48-10.12,1.48-2.71,4.4-1,5.88,1.74-.25.47,4.7,10.72,4.44,10.26.18.34-.5-1.14-.17-1,0-.06,10.18,5.51,10.13,5.48,2.7,1.48.95,4.4-1.75,5.88-.46-.25-10.72,4.69-10.26,4.44-.33.18,1.14-.5,1-.17.06,0-5.5,10.18-5.47,10.13-1.48,2.7-4.41,1-5.88-1.75.25-.46-4.7-10.72-4.45-10.26-.18-.33.5,1.14.17,1,0,.06-10.18-5.5-10.12-5.47C215.23,357.46,217,354.53,219.69,353.06Z"/><path class="cls-2" d="M219.29,354.5a3.71,3.71,0,0,0,2.27-.46c1.24-.5,2.47-1.05,3.69-1.61l3.56-1.64,1.27-.6c.18-.08,1-.42.28-.14l-1.85-1.85h0l.69-.89h0l1.51,2.59.05,0a1.51,1.51,0,0,0-1.16-2.75l-.29.11c-.35.16-.56,0,.07.17l1.1,1.44c-.12,1-.29.75-.07.45s.19-.37.29-.55l.85-1.58,2.45-4.52c.56-1,1.1-2,1.67-3.07.22-.39.41-.8.92-.77,1.07.06,2,1.56,2.46,2.35l-.15-1.15a3.65,3.65,0,0,0,.47,2.27c.5,1.24,1,2.47,1.6,3.69s1.09,2.37,1.65,3.56c.2.42.39.84.59,1.27.09.18.43,1,.15.28l1.84-1.85h0l.9.69h0l-2.59,1.51,0,.05a1.51,1.51,0,0,0,2.74-1.16c0-.09-.07-.2-.11-.29-.15-.35,0-.56-.16.07l-1.45,1.1c-1-.12-.75-.29-.44-.07.16.11.36.19.54.29l1.59.85,4.51,2.45c1,.56,2.06,1.1,3.07,1.67.39.22.81.41.77.92-.06,1.07-1.55,2-2.35,2.46l1.16-.15a3.68,3.68,0,0,0-2.28.47c-1.24.5-2.46,1.05-3.68,1.6l-3.57,1.65-1.26.59c-.19.09-1,.43-.28.15l1.84,1.84h0l-.69.9h0L242,364.21l-.05,0a1.51,1.51,0,0,0,1.16,2.74l.3-.11c.35-.15.56,0-.08-.16l-1.1-1.45c.12-1.05.29-.75.08-.44a3.5,3.5,0,0,0-.29.54l-.86,1.59-2.45,4.51c-.55,1-1.09,2.06-1.67,3.07-.22.39-.4.8-.91.77-1.07-.06-2-1.55-2.47-2.35l.15,1.16a3.73,3.73,0,0,0-.46-2.28c-.5-1.24-1-2.46-1.61-3.68s-1.09-2.38-1.64-3.57l-.6-1.26c-.08-.19-.42-1-.14-.28l-1.85,1.84h0l-.89-.69v0l2.59-1.52,0-.05a1.51,1.51,0,0,0-2.75,1.16,2.65,2.65,0,0,0,.11.3c.16.35,0,.56.17-.08l1.44-1.1c1.05.12.75.29.45.08a4.14,4.14,0,0,0-.55-.29l-1.58-.86-4.52-2.45c-1-.55-2.05-1.09-3.07-1.67-.39-.22-.8-.4-.77-.91.06-1.07,1.56-2,2.35-2.47a1.5,1.5,0,0,0-1.51-2.59c-2.33,1.34-5.05,4.27-3.29,7.09.77,1.21,2.4,1.85,3.62,2.51l5.39,2.93a10.85,10.85,0,0,0,3.48,1.63,1.51,1.51,0,0,0,1.45-1.1,3.19,3.19,0,0,0-.27-1.82l-2.74,1.16,0,0a1.5,1.5,0,1,0,1.68-2.22c-1-.15-2.3.65-1.84,1.85.69,1.79,1.63,3.51,2.43,5.26.5,1.09,1,2.17,1.45,3.28.17.4.31.8.46,1.2,0,0,.09.35.1.35s0-.69,0-.62a3,3,0,0,0,.08,1,7,7,0,0,0,4.18,3.86,3.77,3.77,0,0,0,4.36-1.94c1-1.64,1.84-3.37,2.75-5l2-3.65a6.58,6.58,0,0,0,1-2.25,1.49,1.49,0,0,0-1.1-1.44,3.1,3.1,0,0,0-1.82.27l1.16,2.74.05,0a1.5,1.5,0,1,0-2.22-1.69c-.15,1,.65,2.31,1.85,1.85,1.79-.69,3.51-1.64,5.26-2.44,1.09-.49,2.17-1,3.28-1.45l1.2-.46a2.47,2.47,0,0,0,.35-.1c0,.08-.69,0-.62,0a3,3,0,0,0,1-.07,7,7,0,0,0,3.86-4.19,3.78,3.78,0,0,0-1.94-4.36c-1.64-1-3.37-1.83-5.05-2.75l-3.65-2a6.6,6.6,0,0,0-2.25-1,1.51,1.51,0,0,0-1.44,1.1,3.17,3.17,0,0,0,.27,1.82l2.74-1.15,0,0a1.5,1.5,0,1,0-1.69,2.21c1,.15,2.31-.65,1.85-1.84-.69-1.8-1.64-3.52-2.44-5.27-.49-1.08-1-2.17-1.45-3.27-.16-.4-.31-.81-.46-1.21a2.47,2.47,0,0,0-.1-.35c.08,0,0,.69,0,.62a2.91,2.91,0,0,0-.07-1,7,7,0,0,0-4.19-3.87,3.79,3.79,0,0,0-4.36,1.94c-1,1.64-1.83,3.37-2.75,5.05-.66,1.22-1.32,2.44-2,3.66a6.55,6.55,0,0,0-1,2.24,1.52,1.52,0,0,0,1.1,1.45,3.17,3.17,0,0,0,1.82-.27l-1.15-2.74-.05,0A1.5,1.5,0,1,0,231.4,349c.15-1-.65-2.3-1.84-1.84-1.68.64-3.3,1.52-4.93,2.28-1.14.52-2.28,1-3.43,1.52-.36.16-.72.31-1.09.44a3.39,3.39,0,0,0-.45.15c-.33.19.11,0,.42.06C218.23,351.06,217.44,354,219.29,354.5Z"/><path class="cls-11" d="M211.89,353.23c.55.3,9.88-4,9.33-3.7.3-.16-1.55.73-1.39.43-.06,0,5-9.23,4.94-9.16,1.35-2.46,3.73-.36,5.07,2.1-.3.55,4,9.87,3.7,9.32.17.3-.73-1.55-.43-1.38,0-.07,9.23,5,9.17,4.94,2.45,1.34.35,3.72-2.1,5.07-.56-.31-9.88,4-9.33,3.7-.3.16,1.55-.74,1.38-.43.07,0-5,9.23-4.94,9.16-1.34,2.46-3.72.36-5.06-2.1.3-.55-4-9.88-3.71-9.32-.16-.31.74,1.54.44,1.38,0,.07-9.24-5-9.17-4.94C207.34,357,209.43,354.58,211.89,353.23Z"/><path class="cls-2" d="M211.49,354.68a3.78,3.78,0,0,0,2.3-.4c1.1-.4,2.18-.86,3.26-1.31l3.19-1.39,1.2-.53a2.43,2.43,0,0,0,.37-.16c-.34.22-.3.1-.17.07l-1.46-2.51.28-.22,1.51,2.6,0,0c1.4-.85.5-3.34-1.16-2.75-.26.1-.5.23-.76.33-.58.22-.64,0,.14.18l1.1,1.44c-.07.81-.27.82.07.17l.75-1.4,2.19-4c.53-1,1-2,1.59-2.93.07-.13.31-.62.32-.62.74-.29,2.05,2,2.3,2.46l-.16-1.15a3.8,3.8,0,0,0,.4,2.3c.4,1.1.86,2.17,1.32,3.25s.91,2.13,1.38,3.19c.18.4.36.8.53,1.2.06.12.1.27.17.38-.23-.35-.11-.3-.08-.18l2.51-1.46.22.29L232.25,353l0,0c.85,1.4,3.33.5,2.74-1.15-.09-.26-.23-.51-.33-.76-.22-.58,0-.64-.17.13l-1.45,1.1c-.81-.06-.82-.26-.17.08l1.4.75,4,2.18c1,.53,2,1.05,2.94,1.6l.61.31c.29.74-2,2.06-2.46,2.3l1.16-.15a3.77,3.77,0,0,0-2.3.39c-1.1.41-2.18.86-3.26,1.32s-2.13.92-3.19,1.39l-1.2.53a2.06,2.06,0,0,0-.37.16c.34-.22.29-.11.17-.07l1.46,2.5-.28.22-1.52-2.59,0,0c-1.4.85-.5,3.34,1.16,2.74.26-.09.5-.22.76-.32.58-.22.64,0-.14-.18l-1.1-1.44c.07-.82.26-.82-.08-.17-.24.47-.49.93-.75,1.4-.72,1.35-1.45,2.69-2.18,4-.53,1-1,2-1.59,2.93-.08.13-.31.62-.32.62-.74.29-2-2-2.3-2.47l.15,1.16a3.71,3.71,0,0,0-.39-2.3c-.4-1.1-.86-2.18-1.32-3.25s-.92-2.13-1.38-3.19l-.54-1.21a3,3,0,0,0-.16-.37c.23.34.11.3.08.17l-2.51,1.46-.22-.28,2.59-1.51,0,0c-.85-1.4-3.34-.5-2.74,1.15.09.26.22.5.32.76.22.58,0,.64.18-.14l1.45-1.1c.81.07.81.27.17-.07l-1.41-.75-4-2.18c-1-.54-2-1.05-2.94-1.6l-.62-.31c-.28-.74,2-2.06,2.47-2.3a1.5,1.5,0,0,0-1.52-2.59c-2.08,1.19-5.21,3.81-3.42,6.48.71,1.06,2.16,1.63,3.25,2.22l4.93,2.67a9,9,0,0,0,3.12,1.43,1.49,1.49,0,0,0,1.44-1.1,2.27,2.27,0,0,0-.14-1.36c-.08-.24-.2-.48-.3-.72s-.26-.71-.06-.14l-2.74,1.16,0,0a1.5,1.5,0,0,0,2.59-1.51,2,2,0,0,0-.25-.33,1.51,1.51,0,0,0-2.51,1.46,34.89,34.89,0,0,0,2.07,4.74c.44,1,.87,2.06,1.26,3.11.12.33.21.67.33,1s-.07-.08,0,0l0-.16q.06-.44,0,.24a2.51,2.51,0,0,0,.2.76c1.33,3,5.46,5.77,7.67,2.08.88-1.48,1.65-3,2.47-4.55l1.84-3.41a5.51,5.51,0,0,0,.83-2,1.51,1.51,0,0,0-1.1-1.45,2.34,2.34,0,0,0-1.36.14c-.25.09-.49.2-.73.3s-.7.27-.13.06l1.15,2.74,0,0a1.5,1.5,0,0,0-1.52-2.59,2.51,2.51,0,0,0-.32.25,1.51,1.51,0,0,0,1.46,2.51,35.44,35.44,0,0,0,4.74-2.07c1-.44,2.06-.87,3.1-1.25.34-.13.68-.22,1-.34s-.08.07,0,0l-.16,0c-.3,0-.22,0,.24,0a2.15,2.15,0,0,0,.75-.21c3-1.33,5.78-5.45,2.08-7.67-1.47-.88-3-1.65-4.55-2.47-1.13-.61-2.26-1.23-3.4-1.83a5.51,5.51,0,0,0-2-.84,1.52,1.52,0,0,0-1.45,1.11,2.27,2.27,0,0,0,.15,1.36,7.33,7.33,0,0,0,.3.72c.05.13.26.7.06.13l2.74-1.15,0,0a1.5,1.5,0,0,0-2.59,1.51,2.6,2.6,0,0,0,.25.33,1.51,1.51,0,0,0,2.5-1.46,33.75,33.75,0,0,0-2.06-4.75c-.44-1-.88-2.05-1.26-3.1-.12-.33-.22-.67-.33-1s.07.08,0,0l0,.16q-.06.44,0-.24a2.51,2.51,0,0,0-.2-.76c-1.33-3-5.46-5.78-7.67-2.08-.89,1.48-1.65,3-2.47,4.55-.62,1.13-1.23,2.27-1.84,3.4a5.39,5.39,0,0,0-.83,2,1.51,1.51,0,0,0,1.1,1.45,2.34,2.34,0,0,0,1.36-.14c.25-.09.49-.2.73-.3s.7-.27.13-.06l-1.16-2.75,0,0a1.5,1.5,0,0,0,1.51,2.6,2.85,2.85,0,0,0,.33-.25,1.51,1.51,0,0,0-1.46-2.51,31.69,31.69,0,0,0-4.4,1.92c-1,.41-1.92.82-2.9,1.2-.39.14-.78.3-1.17.42a3.5,3.5,0,0,0-.49.14c-.1.06.22,0,.41,0C210.45,351.18,209.66,354.08,211.49,354.68Z"/><path class="cls-12" d="M204.1,353.41c.64.35,9-3.31,8.39-3,.27-.15-2,1-1.8.7-.08,0,4.44-8.29,4.4-8.21,1.21-2.21,3,.24,4.25,2.45-.35.64,3.31,9,3,8.39.15.27-1-1.95-.69-1.8-.05-.08,8.28,4.44,8.2,4.4,2.21,1.21-.24,3-2.45,4.25-.64-.35-9,3.32-8.39,3-.27.15,1.95-1,1.81-.69.07,0-4.45,8.28-4.41,8.2-1.21,2.21-3-.23-4.25-2.45.35-.64-3.31-9-3-8.39-.15-.27,1,1.95.69,1.81.05.08-8.28-4.45-8.2-4.41C199.44,356.45,201.89,354.62,204.1,353.41Z"/><path class="cls-2" d="M203.7,354.86c1.39.49,3.66-.78,4.9-1.26.94-.36,1.86-.74,2.79-1.12.35-.14.71-.27,1.06-.43s.71-.1.08-.12l-1.07-2.56.27-.22,1.52,2.59h0c1.69-1,.21-3.34-1.51-2.59l-.69.32c-.26.11-.81.19-.38.22l1.5,1.5c0-.06-.38.85-.13.55a1.93,1.93,0,0,0,.22-.43l.66-1.24,1.92-3.56c.47-.85.91-1.73,1.4-2.57a1.39,1.39,0,0,0,.11-.21,0,0,0,0,1,0,0c.19-.66-.19.15-.28-.15.08.25.8.78,1,1.05.35.49.65,1,1,1.54L217.9,345c-.5,1.39.77,3.66,1.25,4.9.36.94.74,1.87,1.12,2.79.14.35.27.71.43,1.06s.11.71.12.08l2.57-1.06.21.26L221,354.54v0c1,1.69,3.34.22,2.59-1.51-.1-.23-.21-.46-.32-.68s-.19-.82-.22-.39l-1.5,1.5c.06,0-.85-.38-.55-.13a2.18,2.18,0,0,0,.43.22l1.24.67,3.56,1.91c.86.47,1.73.91,2.57,1.4a1.39,1.39,0,0,0,.21.11h0c.65.19-.16-.19.14-.28-.25.08-.78.8-1,1-.49.35-1,.65-1.54.95l1.15-.15c-1.39-.5-3.66.77-4.9,1.25-.93.36-1.86.74-2.79,1.12-.35.14-.71.27-1,.43s-.72.11-.08.13l1.06,2.56-.27.21-1.52-2.59h0c-1.69,1-.21,3.34,1.52,2.59l.68-.32c.26-.11.81-.19.38-.22l-1.5-1.5c0,.06.38-.84.13-.55a2.18,2.18,0,0,0-.22.43l-.66,1.24-1.92,3.56c-.47.86-.91,1.73-1.4,2.57a2.12,2.12,0,0,0-.11.21s0,0,0,0c-.19.65.19-.15.28.14-.08-.25-.8-.78-1-1.05-.35-.49-.65-1-1-1.54l.15,1.15c.5-1.39-.77-3.66-1.25-4.9-.36-.93-.74-1.86-1.12-2.79-.14-.35-.27-.71-.43-1.05s-.1-.72-.12-.08l-2.56,1.06-.22-.27,2.59-1.52v0c-1-1.69-3.34-.21-2.59,1.52.1.23.22.45.32.68s.19.81.22.39l1.5-1.5c-.06,0,.85.38.55.12a2.18,2.18,0,0,0-.43-.22l-1.24-.66-3.56-1.92c-.86-.46-1.73-.91-2.57-1.39a.88.88,0,0,0-.21-.12h0c-.66-.19.15.19-.15.28.25-.07.78-.8,1.05-1,.49-.35,1-.65,1.54-.95,1.69-.94.18-3.53-1.51-2.59s-5.22,3.15-3.7,5.7c.59,1,1.91,1.51,2.89,2l4.44,2.4c.8.42,2,1.33,2.92,1.32a1.54,1.54,0,0,0,1.5-1.5c.07-.87-.62-1.82-.95-2.59L207.85,361v0a1.5,1.5,0,0,0,2.59-1.52,2.6,2.6,0,0,0-.25-.33c-.89-1.05-2.53-.15-2.56,1.06a4.09,4.09,0,0,0,.52,1.58c.38.93.76,1.86,1.12,2.79s.78,2,1.1,3c.1.32.15.67.27,1s0-.11,0-.18c.16-.3-.06.09,0,.24a2.65,2.65,0,0,0,.3.94,7.93,7.93,0,0,0,3.17,3.6,2.72,2.72,0,0,0,3.58-1.33c.8-1.32,1.48-2.73,2.21-4.09.55-1,1.1-2,1.64-3a4.4,4.4,0,0,0,.75-1.87,1.53,1.53,0,0,0-1.5-1.5c-.86-.07-1.81.62-2.58.95l1.52,2.59h0a1.5,1.5,0,0,0-1.52-2.59,2,2,0,0,0-.34.26c-1,.88-.14,2.52,1.07,2.56a4.35,4.35,0,0,0,1.58-.53l2.79-1.12c1-.39,2-.78,3-1.1.32-.1.67-.15,1-.27s-.11,0-.19,0c-.29-.17.1,0,.25,0a2.47,2.47,0,0,0,.94-.3,8,8,0,0,0,3.6-3.16,2.75,2.75,0,0,0-1.33-3.59c-1.32-.8-2.73-1.48-4.09-2.21l-3-1.63a4.29,4.29,0,0,0-1.87-.76,1.53,1.53,0,0,0-1.5,1.5c-.07.86.62,1.82,1,2.58l2.59-1.51v0a1.5,1.5,0,0,0-2.59,1.52,2.7,2.7,0,0,0,.25.34,1.51,1.51,0,0,0,2.56-1.06,4.19,4.19,0,0,0-.52-1.59c-.38-.93-.75-1.86-1.12-2.79s-.78-2-1.1-3c-.1-.31-.15-.67-.27-1s0,.11,0,.19c-.16.3.06-.1,0-.25a2.54,2.54,0,0,0-.3-.93,8,8,0,0,0-3.17-3.61,2.74,2.74,0,0,0-3.58,1.34c-.8,1.32-1.48,2.72-2.21,4.08-.55,1-1.09,2-1.63,3a4.29,4.29,0,0,0-.76,1.87,1.53,1.53,0,0,0,1.5,1.5c.86.07,1.81-.62,2.58-.95l-1.51-2.59h0a1.5,1.5,0,0,0,1.52,2.59,2.7,2.7,0,0,0,.34-.25c1-.89.14-2.53-1.06-2.56a3.85,3.85,0,0,0-1.43.45l-2.61,1.06c-1,.37-1.91.75-2.88,1.08q-.51.18-1.05.33a2.88,2.88,0,0,0-.4.09c-.14.07.14-.05.34,0C202.67,351.31,201.89,354.21,203.7,354.86Z"/><path class="cls-13" d="M196.3,353.59c.74.4,8.2-2.62,7.46-2.22.24-.13-2.35,1.2-2.22,1-.09.05,3.91-7.34,3.86-7.25,1.08-2,2.37.83,3.45,2.8-.41.74,2.61,8.2,2.21,7.46.13.24-1.2-2.36-1-2.23,0-.09,7.34,3.92,7.25,3.87,2,1.07-.83,2.37-2.8,3.44-.74-.4-8.2,2.62-7.46,2.22-.24.13,2.36-1.2,2.23-1,.09-.05-3.92,7.34-3.87,7.25-1.07,2-2.37-.84-3.44-2.8.4-.74-2.62-8.2-2.22-7.46-.13-.24,1.2,2.36,1,2.22.05.09-7.34-3.91-7.25-3.86C191.54,356,194.34,354.66,196.3,353.59Z"/><path class="cls-2" d="M195.9,355c1.25.49,3.26-.48,4.42-.88.83-.28,1.66-.58,2.49-.88l.89-.33c.21-.07.82-.18.11-.11l-1.44-1.1h0l.38-1.46.26-.21,1.51,2.59h0c1.68-1,.21-3.4-1.52-2.6l-.9.44c-.21.11-.45.19-.65.31s-.3,0,.07,0l1.5,1.5c0-1.09-.18.63-.16.63s.13-.27.16-.33c.22-.37.41-.77.61-1.14.58-1.1,1.17-2.19,1.76-3.28l.75-1.4c.1-.18.48-.66.47-.86,0,0,.08-.09.07-.13a3.92,3.92,0,0,0-.84,0c0,.08.22.22.26.3.4.85,1,1.66,1.43,2.49l-.15-1.16c-.49,1.25.48,3.26.88,4.42.28.83.58,1.66.88,2.48l.33.9c.07.21.19.81.11.11l1.1-1.45h0l1.46.39.21.25-2.59,1.52h0c1,1.69,3.39.21,2.59-1.51-.14-.3-.3-.6-.44-.9s-.19-.45-.31-.66,0-.3,0,.07l-1.5,1.5c1.09,0-.63-.17-.62-.15s.26.12.32.16c.37.22.77.4,1.14.6L214.2,357l1.4.76c.18.1.66.48.86.46,0,0,.1.08.13.07a3.84,3.84,0,0,0,0-.83c-.08,0-.22.22-.3.26-.84.39-1.66,1-2.49,1.43L215,359c-1.25-.49-3.26.48-4.42.87l-2.48.89-.9.32c-.21.08-.81.19-.11.11l1.45,1.11h0l-.39,1.46-.25.2-1.52-2.59h0c-1.69,1-.21,3.39,1.51,2.59l.9-.44c.21-.1.45-.18.66-.3s.3,0-.07-.05l-1.5-1.5c0,1.1.17-.63.16-.62s-.13.27-.17.33c-.22.36-.4.76-.6,1.14l-1.76,3.28-.76,1.4c-.1.18-.48.65-.46.86,0,0-.08.09-.07.13a4.6,4.6,0,0,0,.83,0c0-.08-.22-.22-.26-.3-.39-.85-1-1.67-1.43-2.49l.16,1.16c.48-1.25-.49-3.26-.88-4.42-.29-.83-.59-1.66-.89-2.49-.11-.3-.22-.59-.32-.89s-.19-.82-.11-.11l-1.11,1.45h0l-1.46-.38-.2-.26,2.59-1.51v0c-1-1.68-3.39-.21-2.59,1.52.14.3.29.6.44.9s.18.45.3.65,0,.3.05-.07l1.5-1.5c-1.1.05.63.18.62.16s-.26-.13-.33-.16c-.36-.22-.76-.4-1.14-.61-1.1-.58-2.19-1.17-3.28-1.76l-1.4-.75c-.18-.1-.65-.48-.86-.47,0,0-.09-.08-.13-.07a4.7,4.7,0,0,0,0,.84c.08,0,.22-.22.31-.26.84-.39,1.66-1,2.48-1.43,1.7-.92.18-3.51-1.51-2.59s-4.76,2.15-4.14,4.47c.31,1.19,1.57,1.69,2.56,2.22l4,2.15c.53.29,1.06.58,1.6.85l.37.19a3.07,3.07,0,0,0,.42.17c.21.05,1.37,0,.43.05a1.53,1.53,0,0,0,1.5-1.5c0-1-.79-2.12-1.2-3l-2.59,1.52h0a1.5,1.5,0,0,0,2.59-1.51,3,3,0,0,0-.27-.35,1.44,1.44,0,0,0-1.46-.39h0a1.53,1.53,0,0,0-1.1,1.45,20.51,20.51,0,0,0,1.39,4.18c.29.87.57,1.74.81,2.63,0,.15,0,.31.09.45-.09-.31,0,.19,0-.08s0,.41,0,.53a3.41,3.41,0,0,0,.5,1.16c.62,1.14,1.29,2.61,2.46,3.28a2.35,2.35,0,0,0,3.25-1.09c.7-1.16,1.3-2.41,1.94-3.61.49-.89,1-1.79,1.45-2.7.13-.25.27-.5.39-.76a2.94,2.94,0,0,0,.23-.51c.05-.2,0-1.33.06-.45a1.54,1.54,0,0,0-1.5-1.5c-1,0-2.12.79-3,1.2l1.51,2.59h0a1.5,1.5,0,0,0-1.52-2.59,3,3,0,0,0-.35.27,1.46,1.46,0,0,0-.39,1.46h0a1.51,1.51,0,0,0,1.44,1.1,20.31,20.31,0,0,0,4.18-1.39c.87-.29,1.74-.57,2.63-.81.15,0,.31-.05.46-.09-.32.09.18,0-.08,0s.4,0,.52,0a3.45,3.45,0,0,0,1.17-.5c1.14-.62,2.6-1.29,3.28-2.46a2.37,2.37,0,0,0-1.09-3.25c-1.16-.7-2.41-1.3-3.61-1.94l-2.7-1.45c-.26-.13-.51-.27-.77-.39a3.22,3.22,0,0,0-.5-.23c-.21-.05-1.34,0-.45-.06a1.54,1.54,0,0,0-1.5,1.5c-.05,1,.79,2.12,1.2,3l2.59-1.51v0a1.5,1.5,0,0,0-2.59,1.52,2.88,2.88,0,0,0,.26.35,1.45,1.45,0,0,0,1.46.39h0a1.52,1.52,0,0,0,1.1-1.44,20.93,20.93,0,0,0-1.39-4.18c-.3-.87-.58-1.74-.81-2.63,0-.15-.05-.31-.1-.45.1.31,0-.19,0,.07s0-.4,0-.52a3.69,3.69,0,0,0-.51-1.17c-.61-1.14-1.29-2.6-2.46-3.28a2.36,2.36,0,0,0-3.24,1.09c-.71,1.17-1.31,2.41-2,3.61-.48.9-1,1.8-1.44,2.7-.14.26-.28.51-.4.77a2.45,2.45,0,0,0-.22.5c-.06.21,0,1.34-.06.45a1.53,1.53,0,0,0,1.5,1.5c1,0,2.12-.79,3-1.19l-1.52-2.6h0a1.5,1.5,0,0,0,1.51,2.59,2.88,2.88,0,0,0,.35-.26,1.45,1.45,0,0,0,.39-1.46h0a1.54,1.54,0,0,0-1.45-1.1,17.47,17.47,0,0,0-3.62,1.2c-.82.29-1.64.57-2.47.81-.34.1-.68.19-1,.26s.09,0,0,0c-.36.05.19.07,0,0C194.9,351.44,194.12,354.34,195.9,355Z"/><path class="cls-14" d="M188.51,353.76c.83.46,7.36-1.92,6.53-1.47a23.78,23.78,0,0,1-2.65,1.22c-.1.06,3.38-6.39,3.33-6.29.94-1.72,1.69,1.43,2.63,3.15-.46.83,1.92,7.36,1.47,6.53a23,23,0,0,1-1.22-2.65c-.06-.1,6.39,3.39,6.29,3.33,1.72.94-1.43,1.69-3.15,2.63-.83-.45-7.36,1.93-6.53,1.47a23,23,0,0,1,2.65-1.22c.1,0-3.39,6.39-3.33,6.29-.94,1.72-1.69-1.43-2.63-3.15.45-.83-1.93-7.36-1.47-6.53a23.78,23.78,0,0,1,1.22,2.65c0,.1-6.39-3.39-6.29-3.33C183.64,355.45,186.79,354.7,188.51,353.76Z"/><path class="cls-2" d="M187.75,355.06c1.36.58,3,0,4.31-.38.75-.21,1.49-.44,2.24-.66l.74-.23c.29-.1.56,0,.07-.06l-1.3-.74h0l.24-1.82c.29-.21.37-.27.23-.19l1.51,2.59h0c1.7-1,.21-3.42-1.51-2.59l-1.14.57-.79.38c-.3.15-.16.14-.14.07,0,.14-.68-.06.17,0l1.5,1.5a1.43,1.43,0,0,0-.21-.78l.15,1.16c-.18.61,0,0,.15-.24.2-.4.41-.79.61-1.18l1.6-3c.16-.29.87-1.18.82-1.52h0a.8.8,0,0,0-.71,0c-1.06,0-.73-.18-.65.11a6.13,6.13,0,0,0,.44.89c.32.72.61,1.45,1,2.15v-1.52c-.58,1.36,0,3,.38,4.31.21.75.44,1.49.66,2.24.08.25.15.5.23.74s0,.56.06.07l.74-1.3h0l1.82.23c.2.29.27.37.19.23l-2.59,1.52h0c1,1.69,3.42.2,2.59-1.52-.18-.38-.38-.75-.57-1.13s-.26-.53-.38-.8-.14-.15-.08-.14c-.13,0,.07-.68,0,.17l-1.5,1.5a1.43,1.43,0,0,0,.78-.21l-1.16.16c-.61-.19,0,0,.24.14.4.2.79.41,1.18.62l3,1.59c.28.16,1.18.87,1.52.83h0a.83.83,0,0,0,0-.72c0-1.06.18-.73-.11-.65a7.36,7.36,0,0,0-.89.44c-.72.32-1.45.61-2.15,1h1.52c-1.36-.58-3,0-4.31.38-.75.21-1.49.44-2.24.66l-.74.23c-.3.1-.56,0-.07.06l1.3.74h0l-.23,1.81c-.29.21-.37.27-.23.19l-1.52-2.59h0c-1.69,1-.2,3.42,1.52,2.59.38-.18.75-.38,1.13-.57l.79-.38c.31-.15.16-.14.15-.07,0-.14.68.06-.17,0l-1.5-1.5a1.49,1.49,0,0,0,.2.78l-.15-1.15c.19-.62,0,0-.14.23-.2.4-.41.79-.62,1.18l-1.59,3c-.16.29-.87,1.18-.83,1.52h0a.86.86,0,0,0,.72,0c1.06,0,.72.19.65-.11a9.17,9.17,0,0,0-.44-.89c-.32-.72-.61-1.45-1-2.15v1.52c.59-1.36,0-3-.37-4.31-.21-.75-.44-1.49-.67-2.24-.07-.24-.14-.5-.22-.74s0-.56-.06-.07l-.74,1.3h0l-1.81-.24c-.21-.29-.27-.37-.19-.23l2.59-1.51v0c-1-1.69-3.42-.2-2.59,1.52.18.38.38.76.57,1.14s.25.52.38.79.14.15.07.14c.14,0-.06.68,0-.17l1.5-1.5a1.4,1.4,0,0,0-.77.21l1.15-.15c.62.18,0,0-.24-.15l-1.17-.62c-1-.52-2-1.06-3-1.59-.29-.16-1.19-.87-1.52-.82,0,0,0,0,0,0a.84.84,0,0,0,0,.71c0,1.06-.19.73.11.65a7.34,7.34,0,0,0,.89-.44c.72-.32,1.45-.61,2.15-1,1.7-.9.19-3.49-1.52-2.59-1.4.74-4.31,1.3-4.38,3.3,0,1.3,1.12,1.85,2.09,2.38,1.22.65,2.43,1.31,3.65,2,.84.45,2.34,1.58,3.29.92l-.75.2h0a1.53,1.53,0,0,0,1.5-1.5,4.23,4.23,0,0,0-.71-2c-.24-.49-.5-1-.73-1.47l-2.59,1.52h0a1.5,1.5,0,0,0,2.59-1.51,1.56,1.56,0,0,0-.28-.38,1.53,1.53,0,0,0-1.82-.23c-1.48.93-.24,3.24.12,4.49.26.87.49,1.74.67,2.62a1.87,1.87,0,0,1,0,.2,1.7,1.7,0,0,1,0,.21c-.11.07.18.19,0,0,0,0,.18-.72.06-.19a2.32,2.32,0,0,0-.13.58,2.79,2.79,0,0,0,.42,1.18,12.61,12.61,0,0,0,1.63,3.21,2,2,0,0,0,3,0,19.37,19.37,0,0,0,1.94-3.44l1.33-2.51c.36-.69.94-1.57.4-2.34l.21.76v0a1.54,1.54,0,0,0-1.5-1.5,4.45,4.45,0,0,0-2,.72c-.49.24-1,.5-1.46.73L196,363h0a1.5,1.5,0,0,0-1.52-2.59,1.72,1.72,0,0,0-.37.28,1.55,1.55,0,0,0-.24,1.82c.94,1.48,3.25.24,4.5-.12.87-.26,1.73-.49,2.62-.67l.2,0h.21c.07.11.19-.18,0,0,0,0-.72-.18-.19-.06a2.32,2.32,0,0,0,.58.13,2.84,2.84,0,0,0,1.18-.42,12.61,12.61,0,0,0,3.21-1.63,1.94,1.94,0,0,0,0-3,18.13,18.13,0,0,0-3.44-1.94l-2.5-1.33c-.69-.36-1.57-.94-2.34-.4l.76-.21h0a1.54,1.54,0,0,0-1.5,1.5,4.33,4.33,0,0,0,.72,2c.24.49.5,1,.73,1.46l2.59-1.52h0a1.5,1.5,0,0,0-2.59,1.52,1.25,1.25,0,0,0,.28.37,1.54,1.54,0,0,0,1.82.24c1.48-.94.24-3.25-.13-4.5-.25-.87-.49-1.74-.66-2.62-.08-.35,0,0,0-.2a1.7,1.7,0,0,1,0-.21c.1-.07-.18-.19,0,0,0,0-.18.72-.05.19a1.67,1.67,0,0,0-.29-1.76A12.61,12.61,0,0,0,197.8,346a1.94,1.94,0,0,0-3,0,17.81,17.81,0,0,0-1.94,3.43l-1.33,2.51c-.36.69-.94,1.57-.41,2.34l-.2-.76v0a1.54,1.54,0,0,0,1.5,1.5,4.25,4.25,0,0,0,2-.72c.49-.24,1-.5,1.46-.73L194.29,351h0a1.5,1.5,0,0,0,1.51,2.59,1.17,1.17,0,0,0,.38-.28,1.53,1.53,0,0,0,.23-1.82c-.87-1.39-2.77-.39-4,0-.78.23-1.56.46-2.35.65-.33.08-.67.16-1,.21.35-.05,0,0-.09,0h-.2a.86.86,0,0,1,.49.15,1.56,1.56,0,0,0-2.06.53A1.53,1.53,0,0,0,187.75,355.06Z"/><path class="cls-15" d="M180.71,353.94c.93.5,6.52-1.24,5.6-.73.18-.1-3.17,1.66-3.07,1.48-.11.06,2.86-5.44,2.79-5.33.81-1.47,1,2,1.82,3.5-.5.92,1.23,6.52.73,5.6a33.45,33.45,0,0,1-1.48-3.07c-.07-.11,5.44,2.85,5.32,2.79,1.48.81-2,1-3.49,1.82-.92-.51-6.52,1.23-5.6.73-.18.1,3.17-1.67,3.07-1.49.11-.06-2.86,5.44-2.79,5.33-.81,1.47-1-2-1.82-3.5.5-.92-1.23-6.51-.73-5.59a33.45,33.45,0,0,1,1.48,3.07c.07.11-5.44-2.86-5.32-2.8C175.74,355,179.24,354.74,180.71,353.94Z"/><path class="cls-2" d="M180,355.23c1.19.56,2.6.21,3.83,0,.61-.12,1.22-.26,1.83-.4l.69-.15.23-.05a1.49,1.49,0,0,1-.89-.17l-.74-1.29h0l.21-.75c.52-.45.67-.61.43-.47a1.5,1.5,0,0,0,1.52,2.59h0c1.7-1,.21-3.43-1.51-2.59-.47.23-.92.48-1.38.71l-1,.49a4,4,0,0,0-.42.2c-.08,0,.34-.1.07-.05h.79l1.1,1.44h0a1.53,1.53,0,0,0-1.1-1.44h0l1,1.85c-.05.31-.15.31,0,0l.31-.61c.31-.6.62-1.19.94-1.78l1.38-2.58a1.5,1.5,0,0,0-2.59-1.51h0a1.5,1.5,0,0,0,2.59,1.51c.08-.13.09-.15,0,0a1,1,0,0,1-.55.38H186a.86.86,0,0,1-.66-.57,2.29,2.29,0,0,0,.12.37c.11.34.19.69.28,1a11.32,11.32,0,0,0,.82,2.33V352.1c-.55,1.2-.2,2.6,0,3.84.12.61.26,1.22.4,1.82l.15.7a1.89,1.89,0,0,0,0,.23,1.49,1.49,0,0,1,.17-.89l1.29-.74h0l.76.2c.45.53.61.68.47.44a1.5,1.5,0,0,0-2.6,1.51h0c1,1.7,3.42.21,2.59-1.51-.23-.47-.48-.92-.71-1.39-.17-.32-.33-.64-.49-1-.07-.14-.13-.29-.2-.43s.1.35.05.08v.8h0l-1.44,1.1h0a1.54,1.54,0,0,0,1.44-1.1h0l-1.84,1.05c-.32-.05-.32-.15,0,0l.61.32,1.78.94,2.58,1.38c1.7.9,3.19-1.63,1.51-2.59h0a1.5,1.5,0,0,0-1.51,2.59c.13.08.14.09,0,0a.94.94,0,0,1-.37-.55v-.8a.85.85,0,0,1,.57-.67,2.84,2.84,0,0,0-.38.13c-.33.11-.68.19-1,.28a11.32,11.32,0,0,0-2.33.82h1.51c-1.19-.55-2.6-.2-3.83,0l-1.83.41-.69.15a1.89,1.89,0,0,0-.23.05,1.41,1.41,0,0,1,.89.17l.74,1.29h0l-.21.76c-.52.45-.67.6-.43.46a1.5,1.5,0,0,0-1.52-2.59h0c-1.7,1-.21,3.42,1.51,2.59.47-.23.92-.48,1.38-.72l1-.48.42-.2c.08,0-.34.09-.07.05H186l-1.1-1.45h0a1.54,1.54,0,0,0,1.1,1.45h0l-1-1.84c0-.32.15-.32,0,0s-.21.42-.31.62c-.31.59-.62,1.18-.94,1.77l-1.38,2.59a1.5,1.5,0,0,0,2.59,1.51h0a1.5,1.5,0,0,0-2.59-1.52c-.08.14-.09.15,0,0a.94.94,0,0,1,.55-.37h.8a.88.88,0,0,1,.67.57c0-.12-.1-.27-.13-.38-.11-.34-.19-.68-.28-1a11.32,11.32,0,0,0-.82-2.33v1.51c.55-1.19.2-2.6-.05-3.83-.12-.61-.26-1.22-.4-1.83l-.15-.69a1.55,1.55,0,0,0-.05-.23,1.41,1.41,0,0,1-.17.89l-1.29.74h0l-.76-.21c-.45-.53-.61-.67-.46-.43a1.5,1.5,0,0,0,2.59-1.52h0c-1-1.69-3.42-.2-2.59,1.52.23.46.48.92.71,1.38l.49,1,.2.42c0,.07-.1-.34,0-.08v-.79h0l1.44-1.1h0a1.52,1.52,0,0,0-1.44,1.1h0l1.84-1c.32,0,.32.15,0,0l-.61-.31-1.78-.94L178,354.46a1.5,1.5,0,0,0-1.51,2.59h0a1.5,1.5,0,0,0,1.51-2.59c-.13-.09-.14-.09,0,0a.94.94,0,0,1,.37.55v.79a.85.85,0,0,1-.57.67,1.9,1.9,0,0,0,.38-.13c.33-.1.68-.18,1-.27a10.79,10.79,0,0,0,2.33-.83c1.72-.88.2-3.47-1.51-2.59a2.42,2.42,0,0,1-.6.24c-.31.1-.62.18-.93.26a13.89,13.89,0,0,0-1.59.47,2.09,2.09,0,0,0-1.42,1.39,1.85,1.85,0,0,0,1,2.05l1.51-2.59h0l-1.51,2.59,2.71,1.45,1.79.94a4.71,4.71,0,0,0,1.18.56A1.58,1.58,0,0,0,184,359h0l-1.45,1.1h0A1.51,1.51,0,0,0,184,359a4.1,4.1,0,0,0-.78-2.54c-.28-.56-.59-1.12-.87-1.7l-2.59,1.52h0l2.59-1.52a1.53,1.53,0,0,0-2.76.09,2.87,2.87,0,0,0,.06,1.76c.14.62.28,1.23.41,1.85.08.35.15.69.21,1l.06.42c-.05-.35,0,.18,0,.24s0,.26,0,.39-.11.39,0,0c0,.15,0,.09.1-.18a1.09,1.09,0,0,0-.18.55,1.88,1.88,0,0,0,.24,1.09c.08.16.09.18,0,.07a3,3,0,0,1,.11.32,4.13,4.13,0,0,1,.15.5c.12.39.21.78.32,1.17a3.89,3.89,0,0,0,.91,1.93,1.79,1.79,0,0,0,2.82-.62l-2.59-1.52h0l2.59,1.51c.48-.91,1-1.81,1.45-2.71.32-.6.64-1.2,1-1.8a4.7,4.7,0,0,0,.55-1.18,1.56,1.56,0,0,0-1-1.84h0l1.1,1.44h0a1.5,1.5,0,0,0-1.1-1.44,4,4,0,0,0-2.53.77c-.57.29-1.13.6-1.7.88l1.51,2.59h0l-1.52-2.59a1.53,1.53,0,0,0,.09,2.76,2.86,2.86,0,0,0,1.76-.06l1.86-.42,1-.2.42-.07c-.35.05.18,0,.24,0h.39c.19,0,.39.11,0,0q.22.06-.18-.09a1.12,1.12,0,0,0,.56.18,1.87,1.87,0,0,0,1.08-.24c.16-.08.18-.09.07,0l.32-.11.5-.16,1.18-.31a4,4,0,0,0,1.93-.92,1.79,1.79,0,0,0-.63-2.81l-1.51,2.59h0l1.51-2.59-2.71-1.45-1.79-.95a5,5,0,0,0-1.18-.55,1.58,1.58,0,0,0-1.85,1.05h0l1.45-1.1h0a1.49,1.49,0,0,0-1.45,1.1,4.05,4.05,0,0,0,.78,2.53c.28.57.59,1.13.87,1.7l2.59-1.51h0l-2.6,1.51a1.53,1.53,0,0,0,2.76-.09,2.84,2.84,0,0,0-.06-1.75c-.13-.62-.28-1.24-.41-1.86-.08-.34-.15-.68-.2-1,0-.14-.05-.28-.07-.42,0,.34,0-.18,0-.25s0-.25,0-.38.11-.39,0,0q.06-.22-.09.18a1.22,1.22,0,0,0,.17-.56,1.87,1.87,0,0,0-.24-1.08c-.08-.16-.09-.18,0-.07,0-.11-.08-.21-.11-.32a4.74,4.74,0,0,1-.15-.5c-.12-.39-.21-.79-.32-1.18a3.93,3.93,0,0,0-.91-1.93,1.79,1.79,0,0,0-2.82.63l2.59,1.51h0l-2.59-1.51c-.48.9-1,1.8-1.45,2.71-.32.59-.64,1.19-.95,1.79a5,5,0,0,0-.55,1.18,1.58,1.58,0,0,0,1.05,1.85h0l-1.1-1.45h0a1.51,1.51,0,0,0,1.1,1.45,4.05,4.05,0,0,0,2.53-.78c.57-.28,1.13-.59,1.7-.87l-1.51-2.59h0l1.52,2.59a1.53,1.53,0,0,0-.49-2.86,5.4,5.4,0,0,0-1.82.27c-.76.17-1.52.35-2.28.49l-.57.09c.3,0-.2,0-.3,0h-.42c-.15,0-.14-.08,0,0s-.06-.07.3.1a1.55,1.55,0,0,0-2.05.54A1.51,1.51,0,0,0,180,355.23Z"/><path class="cls-16" d="M172.92,354.11c1,.56,5.68-.54,4.66,0,.15-.08-3.57,1.9-3.49,1.74-.12.07,2.33-4.49,2.26-4.36.67-1.23.33,2.62,1,3.84-.55,1,.54,5.68,0,4.67.08.15-1.9-3.58-1.75-3.49-.07-.13,4.5,2.32,4.37,2.25,1.23.67-2.62.33-3.85,1-1-.56-5.67.54-4.66,0-.15.08,3.57-1.9,3.49-1.74.12-.07-2.32,4.49-2.26,4.36-.67,1.23-.33-2.61-1-3.84.56-1-.54-5.68,0-4.67-.08-.15,1.9,3.58,1.75,3.49.07.13-4.49-2.32-4.37-2.25C167.84,354.45,171.69,354.79,172.92,354.11Z"/><path class="cls-2" d="M172.16,355.41a5.8,5.8,0,0,0,3.2.28l1.44-.16.53,0h.3a1.32,1.32,0,0,1-.67-.18l-.54-.54h0l-.2-.76v0l.2-.76c0-.07.63-.56.4-.43a1.5,1.5,0,0,0,1.51,2.59h0a1.51,1.51,0,0,0,.54-2.05,1.53,1.53,0,0,0-2-.54c-.54.26-1.06.56-1.59.83-.37.2-.75.39-1.13.58l-.47.23-.15.06c.28-.16.25-.11.61-.15l.76.21h0l.69,1.69h0a1.52,1.52,0,0,0-1.45-1.9h0l1.45,1.11h0v.8c0-.18-.12.26-.12.26a1.51,1.51,0,0,0,.09-.18c.08-.18.17-.36.26-.53.25-.5.51-1,.77-1.49.37-.69.75-1.37,1.11-2.07a1.54,1.54,0,0,0-.54-2.05,1.51,1.51,0,0,0-2.05.54h0a1.53,1.53,0,0,0,.54,2.05,1.51,1.51,0,0,0,2-.54l.07-.11a1.3,1.3,0,0,1-1.12.62l-.76-.21c-.07,0-.7-.57-.57-.72,0,0,0,.13,0,.14s.05.15,0,.18,0-.36,0-.06.07.8.11,1.2a7.49,7.49,0,0,0,.64,2.81V354.6a5.86,5.86,0,0,0-.29,3.19c0,.48.11,1,.17,1.44,0,.18,0,.36.05.54s0,.15,0,.21v.08a1.32,1.32,0,0,1,.18-.67l.54-.53h0l.75-.2h0l.76.2c.06,0,.56.63.42.4a1.5,1.5,0,1,0-2.59,1.51h0a1.5,1.5,0,1,0,2.59-1.52c-.26-.53-.56-1.05-.83-1.58s-.39-.76-.58-1.14c-.08-.16-.16-.31-.23-.47a.61.61,0,0,0-.07-.14c.17.28.12.24.15.6l-.2.76h0l-1.69.69h0a1.52,1.52,0,0,0,1.9-1.44h0L176,358h-.79c.17,0-.27-.12-.26-.12a1,1,0,0,0,.18.09l.53.26,1.48.78c.7.36,1.38.74,2.08,1.1a1.54,1.54,0,0,0,2-.54,1.52,1.52,0,0,0-.54-2.05h0a1.5,1.5,0,0,0-1.52,2.59l.12.07a1.29,1.29,0,0,1-.62-1.13l.2-.76c0-.06.58-.69.73-.57a.37.37,0,0,0-.14,0,.57.57,0,0,1-.18,0c.1.05.36,0,.05,0l-1.19.1a7.49,7.49,0,0,0-2.81.64h1.51a5.77,5.77,0,0,0-3.19-.28l-1.44.16-.54.05h-.3a1.29,1.29,0,0,1,.67.18l.54.54h0l.21.76v0l-.21.76c0,.07-.63.56-.39.43a1.5,1.5,0,1,0-1.52-2.59h0a1.5,1.5,0,0,0,1.51,2.59c.54-.26,1.06-.56,1.59-.83l1.14-.58.47-.23.14-.06c-.28.16-.25.11-.6.15l-.76-.21h0l-.69-1.69h0a1.53,1.53,0,0,0,1.45,1.9h0l-1.44-1.11h0v-.8c0,.18.12-.26.11-.26s-.05.13-.08.18l-.27.53c-.25.5-.51,1-.77,1.49-.37.69-.74,1.37-1.1,2.07a1.53,1.53,0,0,0,.54,2.05,1.51,1.51,0,0,0,2-.54h0a1.53,1.53,0,0,0-.54-2,1.51,1.51,0,0,0-2.05.54l-.07.11a1.3,1.3,0,0,1,1.13-.62l.75.21c.07,0,.7.57.58.72a.37.37,0,0,0,0-.14.57.57,0,0,1,0-.18c-.05.11,0,.36,0,.06s-.07-.8-.11-1.2a7.72,7.72,0,0,0-.63-2.81v1.51a5.86,5.86,0,0,0,.28-3.19c0-.48-.11-1-.16-1.44,0-.18,0-.36-.06-.54a1.41,1.41,0,0,0,0-.21.19.19,0,0,1,0-.08,1.32,1.32,0,0,1-.18.67l-.54.53h0l-.76.2h0l-.76-.2c-.06,0-.55-.63-.42-.4a1.5,1.5,0,0,0,2.59-1.51h0a1.5,1.5,0,1,0-2.59,1.52c.25.53.55,1.05.83,1.58l.58,1.14.23.47a.59.59,0,0,0,.06.14c-.16-.28-.12-.24-.15-.6l.2-.76h0l1.7-.69h0a1.52,1.52,0,0,0-1.9,1.44h0l1.1-1.45h.8c-.18,0,.26.12.26.12a1.63,1.63,0,0,0-.19-.09l-.53-.26-1.48-.78-2.07-1.1a1.54,1.54,0,0,0-2.05.54,1.51,1.51,0,0,0,.53,2.05h0a1.5,1.5,0,1,0,1.51-2.59l-.12-.07a1.32,1.32,0,0,1,.63,1.13l-.21.76c0,.06-.58.69-.72.57a.37.37,0,0,0,.14,0,.52.52,0,0,1,.18,0c-.11-.05-.37,0-.06,0l1.2-.1a7.58,7.58,0,0,0,2.81-.64,1.52,1.52,0,0,0,.54-2.05,1.54,1.54,0,0,0-2.06-.54c-.19.1.36-.08,0,0l-.4.1-.43.08c.41-.07-.11,0-.19,0-.53.06-1.07.09-1.61.15a2.6,2.6,0,0,0-1.7.63,1.65,1.65,0,0,0,.53,2.61l1.51-2.59h0l-1.52,2.59c.78.4,1.54.82,2.31,1.23.94.49,2.12,1.36,3.22,1.18a1.49,1.49,0,0,0,1.1-1.44h0l-1.9,1.45h0a1.53,1.53,0,0,0,1.69-.69c.48-1.11-.26-2.13-.76-3.1-.32-.64-.68-1.26-1-1.91l-2.59,1.52h0l2.59-1.51a1.59,1.59,0,0,0-2.18-.68,1.7,1.7,0,0,0-.77,1.65c.05.88.21,1.74.27,2.62a5.24,5.24,0,0,1,0,1.31s.05-.4,0-.17a.36.36,0,0,1,0,.1l0,.09s.19-.61,0-.08a1.66,1.66,0,0,0,.08,1.33c.08.17-.09-.33,0,.05.06.22.1.44.15.66,0,.06,0,.11,0,.17s0-.29,0-.11,0,.31.05.47c0,.48.07,1,.13,1.44a2.75,2.75,0,0,0,.62,1.7,1.66,1.66,0,0,0,2.62-.53l-2.59-1.51h0l2.59,1.51c.4-.77.82-1.53,1.22-2.3.5-.94,1.37-2.12,1.19-3.22a1.49,1.49,0,0,0-1.45-1.1h0l1.45,1.89h0a1.56,1.56,0,0,0-.69-1.7c-1.11-.47-2.13.26-3.1.76-.64.33-1.27.69-1.91,1l1.51,2.59h0l-1.52-2.59a1.59,1.59,0,0,0-.67,2.18,1.71,1.71,0,0,0,1.65.77c.87-.05,1.74-.21,2.61-.27a4.88,4.88,0,0,1,1.32,0l-.17,0s.09,0,.09,0l.09,0s-.6-.19-.07,0a1.66,1.66,0,0,0,1.33-.08c.16-.08-.33.09,0,0s.44-.11.67-.15l.17,0s-.29,0-.11,0l.47-.05,1.43-.13a2.71,2.71,0,0,0,1.71-.63,1.66,1.66,0,0,0-.53-2.61l-1.52,2.59h0l1.51-2.59c-.77-.4-1.53-.82-2.3-1.23-.94-.49-2.13-1.36-3.23-1.18a1.5,1.5,0,0,0-1.1,1.44h0l1.9-1.45h0a1.54,1.54,0,0,0-1.7.69c-.47,1.11.26,2.13.76,3.1.33.64.69,1.26,1,1.91l2.59-1.52h0L176,360.77a1.61,1.61,0,0,0,2.19.68,1.71,1.71,0,0,0,.76-1.65c0-.88-.21-1.74-.27-2.62,0-.11-.11-1.29,0-1.31s-.05.4,0,.17c0,0,0-.09,0-.1l0-.09s-.18.61,0,.08a1.62,1.62,0,0,0-.07-1.33c-.08-.17.09.33,0-.05q-.09-.33-.15-.66l0-.17s0,.29,0,.11,0-.31,0-.47c-.05-.48-.08-1-.14-1.44a2.64,2.64,0,0,0-.62-1.7,1.66,1.66,0,0,0-2.62.53l2.59,1.51h0l-2.59-1.51c-.4.77-.82,1.53-1.23,2.3-.49.94-1.37,2.12-1.19,3.22a1.5,1.5,0,0,0,1.45,1.1h0l-1.44-1.89h0a1.53,1.53,0,0,0,.69,1.7c1.11.47,2.12-.26,3.1-.76.63-.33,1.26-.69,1.9-1l-1.51-2.59h0l1.51,2.59a1.57,1.57,0,0,0-.25-2.89,3.83,3.83,0,0,0-1.47,0c-.64.07-1.28.16-1.92.2-.32,0-.65,0-1,0h-.17c-.32,0,.12,0,.12,0l-.14,0c-.14,0-.27-.13.14.07a1.54,1.54,0,0,0-2.06.54A1.52,1.52,0,0,0,172.16,355.41Z"/><path class="cls-17" d="M165.13,354.29c1.1.61,4.83.15,3.73.76.12-.07-4,2.13-3.91,2-.14.07,1.79-3.55,1.71-3.41.54-1-.34,3.21.19,4.19-.6,1.11-.15,4.84-.75,3.74.06.12-2.13-4-2-3.92-.08-.13,3.54,1.8,3.41,1.72,1,.54-3.22-.34-4.2.19-1.1-.6-4.83-.15-3.73-.75-.12.06,4-2.13,3.91-2,.14-.08-1.79,3.54-1.72,3.41-.53,1,.35-3.22-.19-4.2.61-1.11.15-4.84.76-3.73-.07-.12,2.13,4,2,3.91.07.14-3.55-1.79-3.41-1.72C160,353.94,164.14,354.83,165.13,354.29Z"/><path class="cls-2" d="M164.37,355.59a6.71,6.71,0,0,0,2.74.55l1.14.05.42,0c-.48,0-.33-.06-.19,0l.07,0a1.41,1.41,0,0,1-1-1.34l.2-.76c0,.07.25-.27.31-.33s.11-.08,0,0a1.5,1.5,0,0,0,1.51,2.59h0a1.51,1.51,0,0,0,.53-2,1.53,1.53,0,0,0-2.05-.54l-1.86,1-1.3.67-.48.24-.16.08s.44-.14.25-.11h.79l1.11,1.45h0c.13-1.05-1.07-1.61-1.9-1.45h0l1.7.69h0l.21.75c0,.37-.08.5,0,.32-.15.52-.14.31-.07.17s.15-.3.22-.45c.19-.37.38-.75.58-1.12.27-.52.57-1,.82-1.57a1.5,1.5,0,0,0-2.59-1.51h0a1.5,1.5,0,0,0,2.59,1.52s0-.05,0-.08a1.38,1.38,0,0,1-1.2.67l-.76-.2h0l-.54-.53a1.32,1.32,0,0,1-.17-.62s0,.13,0,.17,0,.3,0,.45c0,.45-.08.89-.11,1.34a5.84,5.84,0,0,0,.35,3v-1.51a6.71,6.71,0,0,0-.55,2.74c0,.38,0,.76,0,1.13,0,.14,0,.29,0,.43,0-.48.07-.33,0-.2l0,.08a1.41,1.41,0,0,1,1.35-1l.75.2c-.06,0,.28.24.34.31s.08.11,0,0a1.51,1.51,0,0,0-2-.54,1.53,1.53,0,0,0-.54,2.05h0a1.52,1.52,0,0,0,2.06.54,1.55,1.55,0,0,0,.54-2.05c-.32-.62-.66-1.24-1-1.86l-.68-1.3-.24-.48a1.22,1.22,0,0,0-.07-.17s.14.45.11.26v.8h0l-1.44,1.1h0c1,.14,1.6-1.06,1.45-1.89h0l-.68,1.69h0l-.76.21c-.36,0-.49-.08-.31,0-.52-.16-.32-.14-.18-.07l.45.22,1.13.58c.52.27,1,.57,1.56.82a1.55,1.55,0,0,0,2.06-.54,1.53,1.53,0,0,0-.54-2.05h0a1.5,1.5,0,0,0-1.51,2.59l.07,0a1.42,1.42,0,0,1-.67-1.2l.21-.76h0l.54-.54a1.32,1.32,0,0,1,.62-.17s-.13,0-.18,0l-.44,0-1.35-.11a5.84,5.84,0,0,0-3,.35h1.52a6.78,6.78,0,0,0-2.74-.55l-1.14-.05c-.14,0-.28,0-.42,0,.47,0,.33.06.19,0l-.08,0a1.42,1.42,0,0,1,1,1.34l-.2.76c0-.06-.25.28-.31.33s-.11.09,0,0a1.52,1.52,0,0,0,.54-2.05,1.54,1.54,0,0,0-2.06-.54h0a1.52,1.52,0,0,0-.54,2.06,1.55,1.55,0,0,0,2.06.53c.62-.31,1.23-.66,1.85-1l1.3-.68.49-.24.16-.07s-.44.13-.25.11h-.8L162,356.8h0c-.13,1.05,1.06,1.6,1.9,1.44h0l-1.69-.69h0l-.2-.76c0-.37.08-.5,0-.31.16-.52.14-.32.07-.18s-.14.3-.22.45c-.18.38-.38.75-.57,1.13s-.58,1-.82,1.56a1.5,1.5,0,1,0,2.59,1.52h0a1.5,1.5,0,0,0-2.59-1.51.25.25,0,0,0,0,.07,1.38,1.38,0,0,1,1.2-.67l.76.21h0l.54.54a1.32,1.32,0,0,1,.17.62,1.15,1.15,0,0,0,0-.18l0-.44c0-.45.07-.9.1-1.35a5.74,5.74,0,0,0-.34-3v1.52a6.78,6.78,0,0,0,.55-2.74c0-.38,0-.76.05-1.14a3,3,0,0,0,0-.42c0,.47-.06.33,0,.19s0-.05,0-.08a1.42,1.42,0,0,1-1.34,1l-.76-.21c.07,0-.27-.24-.33-.31s-.08-.1,0,0a1.5,1.5,0,0,0,2.59-1.52h0a1.51,1.51,0,0,0-2.05-.54A1.53,1.53,0,0,0,161,353c.32.63.66,1.24,1,1.86l.67,1.3.24.49.08.16s-.14-.44-.11-.25v-.8h0l1.44-1.1h0c-1.05-.14-1.6,1.06-1.45,1.9h0l.69-1.69h0l.75-.2c.37,0,.5.08.32,0,.52.16.32.14.17.07l-.45-.22-1.12-.57c-.52-.27-1-.58-1.57-.83a1.5,1.5,0,0,0-1.51,2.59h0a1.5,1.5,0,0,0,1.52-2.59l-.08-.05a1.41,1.41,0,0,1,.67,1.21l-.2.76h0l-.53.53c-.06.05-.49.23-.62.17a.54.54,0,0,0,.18,0l.44,0,1.34.1a5.74,5.74,0,0,0,3-.34,1.51,1.51,0,0,0,.54-2.06,1.54,1.54,0,0,0-2-.53c-.17.08.3-.08.19-.09s-.1,0-.15,0c-.36,0,.37,0,0,0h-.83c-.59,0-1.18-.08-1.77-.13a4.14,4.14,0,0,0-1.36,0,1.54,1.54,0,0,0-1.08,1.88,1.79,1.79,0,0,0,.83,1l1.52-2.59h0l-1.51,2.59c.62.3,1.23.65,1.84,1,.92.47,2.05,1.3,3.09.76a1.55,1.55,0,0,0,.69-1.69h0l-1.44,1.9h0a1.51,1.51,0,0,0,1.45-1.1,2.18,2.18,0,0,0-.37-1.64c-.23-.46-.47-.92-.71-1.37-.36-.69-.74-1.37-1.09-2.06L161,353h0l2.59-1.52a1.64,1.64,0,0,0-2.25-.73,2,2,0,0,0-.86,1.65c0,.4-.06.8-.07,1.2,0,.23,0,.46,0,.68s0,.23,0,.34,0,.13,0,.19c0,.25,0-.12,0-.12a4.39,4.39,0,0,1-.13.6c-.07.3.12-.26,0-.08a1.66,1.66,0,0,0,0,1.52c.08.18-.11-.4-.07-.13a.87.87,0,0,0,0,.22c-.13-.24,0-.34,0-.18s0,.08,0,.12,0,.25,0,.37c0,.87-.1,1.73-.16,2.59a2.36,2.36,0,0,0,.23,1.34,1.58,1.58,0,0,0,2.74-.14l-2.59-1.51h0l2.59,1.52c.29-.63.64-1.23,1-1.84.48-.92,1.3-2.05.76-3.09a1.53,1.53,0,0,0-1.69-.69h0l1.9,1.45h0a1.49,1.49,0,0,0-1.1-1.44,2.15,2.15,0,0,0-1.64.37l-1.37.7c-.69.36-1.37.74-2.06,1.09l1.52,2.59h0l-1.52-2.59a1.66,1.66,0,0,0-.73,2.26,2,2,0,0,0,1.65.86c.4.05.8.05,1.2.07l.68,0,.34,0,.19,0c.25,0-.12,0-.12,0s.55.12.6.13c.3.08-.25-.12-.08,0a1.69,1.69,0,0,0,1.52,0c.19-.08-.4.1-.13.06a.85.85,0,0,0,.22,0c-.24.13-.34,0-.18,0h.12l.38,0c.86,0,1.72.11,2.58.16a2.21,2.21,0,0,0,1.34-.23,1.57,1.57,0,0,0-.14-2.73l-1.51,2.59h0l1.52-2.59c-.63-.29-1.23-.65-1.84-1-.92-.47-2-1.3-3.09-.76a1.55,1.55,0,0,0-.69,1.7h0l1.45-1.9h0a1.52,1.52,0,0,0-1.45,1.11,2.19,2.19,0,0,0,.37,1.64c.23.46.47.91.71,1.37.36.69.74,1.36,1.08,2.05l2.6-1.51h0l-2.59,1.51a1.65,1.65,0,0,0,2.26.74,2,2,0,0,0,.86-1.66c.05-.39.05-.8.07-1.2,0-.22,0-.45,0-.68s0-.22,0-.34a1.11,1.11,0,0,0,0-.19c0-.25,0,.13,0,.13a4.68,4.68,0,0,1,.14-.61c.07-.29-.12.26,0,.08a1.67,1.67,0,0,0,0-1.51c-.08-.19.1.4.06.13a.78.78,0,0,0,0-.22c.13.24,0,.34,0,.18s0-.08,0-.12,0-.25,0-.38c0-.87.11-1.72.16-2.59a2.22,2.22,0,0,0-.23-1.34,1.57,1.57,0,0,0-2.73.14l2.59,1.52h0l-2.59-1.51c-.29.62-.65,1.23-1,1.84-.48.92-1.31,2-.76,3.08a1.52,1.52,0,0,0,1.69.69h0l-1.89-1.44h0a1.52,1.52,0,0,0,1.1,1.45,2.19,2.19,0,0,0,1.64-.37l1.37-.71c.69-.36,1.36-.74,2.06-1.09l-1.52-2.59h0l1.51,2.59a1.63,1.63,0,0,0,.49-2.58,2.63,2.63,0,0,0-1.78-.57l-1.56-.07-.43,0c-.05,0-.28,0,0,0s0,0-.07,0l-.32-.07a1.09,1.09,0,0,0-.17-.05c-.15,0,.35.16.14.06a1.5,1.5,0,1,0-1.51,2.59Z"/><path class="cls-18" d="M157.33,354.47c1.2.65,4,.84,2.8,1.5.09-.05-4.38,2.36-4.33,2.27a26.4,26.4,0,0,1,1.18-2.45c.4-.74-1,3.81-.62,4.55-.66,1.19-.85,4-1.5,2.79,0,.09-2.36-4.38-2.27-4.33A26.21,26.21,0,0,1,155,360c.74.41-3.8-1-4.54-.62-1.2-.65-4-.84-2.8-1.5-.09.05,4.38-2.36,4.33-2.27a26.4,26.4,0,0,1-1.18,2.45c-.4.74,1-3.81.62-4.55.66-1.19.85-4,1.5-2.8-.05-.09,2.37,4.39,2.27,4.34.09.14-2.59-1.27-2.44-1.18C152.05,353.44,156.59,354.87,157.33,354.47Z"/><path class="cls-2" d="M156.57,355.76a9.7,9.7,0,0,0,1.93.7l.79.22.32.11a.89.89,0,0,1-.63-.72v-.8a1,1,0,0,1,.4-.59c.12-.08.11-.09,0,0a1.5,1.5,0,0,0,1.52,2.59h0a1.5,1.5,0,0,0-1.52-2.59l-2.09,1.12-1.45.77-.5.25c-.3.16-.21,0,.07,0l1.69.68h0a1.46,1.46,0,0,0-1.29-.74h0l1.45,1.1h0v.8c.05-.24-.08.15-.07.15s.11-.25.13-.3l.42-.84c.19-.37.39-.73.57-1.1a1.54,1.54,0,0,0-.54-2.05,1.51,1.51,0,0,0-2.05.54h0a1.5,1.5,0,0,0,2.59,1.52c.14-.24,0-.08-.48.45l-1.15.16h0l-.9-.69h0l-.2-.76c0,.23.11-.49,0-.07-.05.2-.09.39-.14.59-.11.49-.23,1-.33,1.47a5.43,5.43,0,0,0,0,3.38v-1.51a10.12,10.12,0,0,0-.7,1.93c-.07.26-.14.52-.22.78a3,3,0,0,1-.11.32.94.94,0,0,1,.73-.63h.8a1,1,0,0,1,.58.4c.09.12.09.12,0,0a1.5,1.5,0,0,0-2.59,1.51h0a1.5,1.5,0,0,0,2.59-1.51l-1.12-2.1c-.26-.48-.51-1-.76-1.44-.09-.17-.17-.34-.26-.5s0-.22,0,.06l-.69,1.7h0a1.46,1.46,0,0,0,.75-1.3h0l-1.1,1.45h-.78c.24,0-.15-.08-.16-.08s.26.12.3.14q.42.19.84.42l1.1.56a1.5,1.5,0,1,0,1.52-2.59h0a1.5,1.5,0,0,0-1.51,2.59c.23.14.08,0-.46-.48l-.15-1.16h0l.69-.9h0l.75-.21c-.22,0,.5.12.07,0l-.58-.13c-.49-.12-1-.23-1.48-.33a5.36,5.36,0,0,0-3.38,0h1.52a9.7,9.7,0,0,0-1.93-.7l-.79-.22-.32-.11a.9.9,0,0,1,.64.72v.8a1,1,0,0,1-.41.59c-.12.08-.11.08,0,0a1.5,1.5,0,0,0-1.52-2.59h0a1.5,1.5,0,0,0,1.52,2.59l2.1-1.13,1.44-.76.5-.25c.3-.16.21,0-.07,0l-1.69-.69h0a1.46,1.46,0,0,0,1.29.74h0l-1.45-1.1h0v-.8c-.05.24.08-.15.07-.15s-.11.25-.13.3l-.42.84c-.19.36-.39.73-.57,1.1a1.54,1.54,0,0,0,.54,2,1.51,1.51,0,0,0,2-.54h0a1.5,1.5,0,0,0-2.59-1.52c-.14.24,0,.08.48-.46l1.15-.15h0l.9.69h0l.2.76c0-.23-.11.49,0,.07.05-.2.09-.39.14-.59.11-.49.23-1,.33-1.47a5.43,5.43,0,0,0,0-3.38v1.51a10.12,10.12,0,0,0,.7-1.93c.07-.26.14-.53.22-.78a3,3,0,0,1,.11-.32.94.94,0,0,1-.73.63h-.8a1,1,0,0,1-.58-.4c-.09-.12-.09-.12,0,0a1.5,1.5,0,0,0,2.59-1.51h0a1.5,1.5,0,0,0-2.59,1.51l1.12,2.1c.26.48.51,1,.76,1.44.09.17.17.34.26.5s0,.22,0-.07l.69-1.69h0a1.46,1.46,0,0,0-.75,1.3h0l1.1-1.45h.78c-.24,0,.15.08.16.08s-.26-.12-.3-.14l-.84-.42-1.1-.56a1.5,1.5,0,1,0-1.52,2.59h0a1.5,1.5,0,0,0,1.51-2.59c-.23-.14-.08,0,.46.48l.15,1.16h0l-.69.89h0l-.75.2c.22,0-.5-.11-.07,0l.58.13c.49.11,1,.23,1.48.33a5.36,5.36,0,0,0,3.38,0,1.52,1.52,0,0,0,.54-2.05,1.55,1.55,0,0,0-2.06-.54s.41-.15.22-.1c.05,0,.39,0,.2,0s-.23,0-.33,0l-.19,0c-.34,0,.24,0,0,0L156,353c-.64-.12-1.28-.27-1.91-.42a7.35,7.35,0,0,0-1.4-.26,1.53,1.53,0,0,0-.7,2.87l1.51-2.59h0L152,355.14c1,.51,2.4,1.58,3.61,1.34a1.51,1.51,0,0,0,1.11-1.44h0l-.74,1.29h0a1.5,1.5,0,0,0,.69-1.69,4.39,4.39,0,0,0-.45-1l-.79-1.5-1.18-2.2-2.59,1.51h0l2.59-1.51a1.77,1.77,0,0,0-2.44-.8,2.91,2.91,0,0,0-1.11,1.84c-.09.32-.17.65-.26,1l-.18.55c-.1.35.09-.15-.05.13a1.74,1.74,0,0,0-.2,1.26q.28.67,0,.09V354c-.12-.5,0-.22,0-.05s0,.21,0,.32c0,.39,0-.25,0,.07,0,.14,0,.27-.07.4-.05.28-.11.56-.17.84-.11.5-.23,1-.34,1.49a2.51,2.51,0,0,0,0,1.58,1.53,1.53,0,0,0,2.74.11l-2.59-1.52h0l2.59,1.51c.51-1.05,1.58-2.4,1.35-3.61a1.51,1.51,0,0,0-1.45-1.1h0l1.3.74h0a1.54,1.54,0,0,0-1.7-.69,3.8,3.8,0,0,0-1,.46l-1.5.79-2.21,1.18,1.52,2.59h0l-1.52-2.59a1.77,1.77,0,0,0-.8,2.44,3,3,0,0,0,1.85,1.1l1,.27.55.17c.36.11-.15-.08.13.05a1.72,1.72,0,0,0,1.27.21c.45-.19.47-.2.09,0H151c-.49.12-.22,0,0,0l.32,0c.39,0-.26-.05.07,0l.4.06.84.17,1.49.35a2.55,2.55,0,0,0,1.57,0,1.52,1.52,0,0,0,.11-2.73l-1.51,2.59h0l1.52-2.59c-1.05-.51-2.4-1.58-3.61-1.34a1.5,1.5,0,0,0-1.11,1.44h0l.74-1.29h0a1.5,1.5,0,0,0-.69,1.69,4.39,4.39,0,0,0,.45,1l.79,1.5,1.18,2.2,2.59-1.51h0l-2.59,1.51a1.77,1.77,0,0,0,2.44.8,2.91,2.91,0,0,0,1.11-1.84c.09-.32.17-.65.26-1s.13-.37.18-.55c.1-.35-.09.15,0-.13a1.74,1.74,0,0,0,.2-1.26q-.28-.68,0-.09v-.06c.12.49,0,.22,0,0s0-.22,0-.32c0-.39-.06.25,0-.07,0-.14,0-.27.07-.4.05-.29.11-.56.17-.84.11-.5.23-1,.34-1.49a2.51,2.51,0,0,0,0-1.58,1.53,1.53,0,0,0-2.74-.11l2.59,1.52h0L155.69,355c-.51,1.05-1.58,2.4-1.35,3.61a1.51,1.51,0,0,0,1.45,1.1h0l-1.3-.74h0a1.54,1.54,0,0,0,1.7.69,3.8,3.8,0,0,0,1-.46l1.5-.79,2.21-1.18-1.52-2.59h0l1.52,2.59a1.77,1.77,0,0,0-.21-3.25,11.07,11.07,0,0,0-1.38-.44l-.7-.2-.4-.14c.23.08,0,0-.11-.06a1.54,1.54,0,0,0-2.05.54A1.51,1.51,0,0,0,156.57,355.76Z"/><path class="cls-19" d="M149.54,354.64c1.29.71,3.15,1.54,1.86,2.25.06,0-4.78,2.59-4.75,2.53-.16.09.73-1.65.64-1.49.27-.49-1.7,4.41-1.43,4.9-.71,1.29-1.54,3.15-2.24,1.86,0,.06-2.6-4.78-2.54-4.75-.08-.16,1.65.73,1.49.64.49.27-4.4-1.7-4.89-1.43-1.29-.71-3.16-1.54-1.87-2.24-.06,0,4.79-2.6,4.75-2.54.16-.08-.73,1.65-.64,1.49-.27.49,1.7-4.4,1.43-4.89.71-1.29,1.54-3.16,2.25-1.87,0-.06,2.59,4.79,2.53,4.75.09.16-1.65-.73-1.49-.64C144.15,352.94,149.05,354.91,149.54,354.64Z"/><path class="cls-2" d="M148.78,355.94a14.63,14.63,0,0,0,1.59.89s.1,0,.14.11a1.14,1.14,0,0,1,.14-1.35l-.07,0a6.7,6.7,0,0,0-1.39.75l-2.07,1.11-.81.43c-.17.09-.75.31-.06.06h.8a2.83,2.83,0,0,0-.42-.06l1.5,1.5c0,.19-.12.5,0,.3s.13-.29.2-.44l.3-.6c.8-1.72-1.59-3.2-2.59-1.52h0l2.59,1.52,0,0-1.69.69h0l-1.1-1.44c.06-.65.05-.31,0-.11s-.13.38-.2.57c-.21.56-.41,1.12-.6,1.69-.29.87-.93,2.25-.57,3.18l.15-1.16c-.27.51-.67,1.05-.89,1.59,0,0,0,.1-.11.14a1.14,1.14,0,0,1,1.35.14s0-.05,0-.07a7.79,7.79,0,0,0-.75-1.39q-.57-1-1.11-2.07c-.15-.27-.29-.54-.43-.81s-.32-.75-.06-.06v.8a2.84,2.84,0,0,0,.05-.42l-1.5,1.5c-.18,0-.49-.12-.29,0l.43.2.6.3c1.73.8,3.21-1.59,1.52-2.6h0l-1.52,2.59,0,0-.69-1.69h0l1.44-1.1c.65.06.32.05.11,0s-.38-.13-.57-.2l-1.68-.6c-.87-.29-2.26-.93-3.18-.57l1.15.15c-.51-.27-1.05-.67-1.58-.89-.06,0-.11,0-.14-.11a1.15,1.15,0,0,1-.14,1.35l.06,0a7.79,7.79,0,0,0,1.39-.75l2.07-1.12.81-.42c.17-.09.75-.32.06-.06h-.8a3,3,0,0,0,.42.05l-1.5-1.5c0-.18.13-.49,0-.29l-.21.43c-.09.2-.2.4-.29.6-.81,1.73,1.58,3.21,2.59,1.52h0l-2.59-1.52a.05.05,0,0,1,0,0l1.7-.69h0l1.1,1.44c0,.65,0,.32,0,.11s.14-.38.21-.57c.2-.56.4-1.12.59-1.68.3-.87.93-2.26.57-3.18l-.15,1.15a15.49,15.49,0,0,0,.89-1.58c0-.06,0-.11.11-.14a1.15,1.15,0,0,1-1.35-.14l0,.06a6.7,6.7,0,0,0,.75,1.39l1.11,2.07.43.81c.09.17.31.75.06.06v-.8a3,3,0,0,0-.06.42l1.5-1.5c.19,0,.5.13.3,0l-.44-.21-.6-.29c-1.72-.81-3.2,1.58-1.52,2.59h0l1.52-2.59,0,0,.68,1.7h0l-1.45,1.1c-.65-.05-.31,0-.11,0l.57.21,1.69.59c.87.3,2.25.93,3.18.57a1.55,1.55,0,0,0,1-1.85,1.5,1.5,0,0,0-1.84-1c-.19.07.45-.06.21,0s.34.1.07,0-.46-.11-.68-.18c-.55-.15-1.08-.33-1.62-.52a11.28,11.28,0,0,0-2.51-.8,1.52,1.52,0,0,0-1.45,1.11h0a1.57,1.57,0,0,0,.69,1.69l0,0a1.5,1.5,0,0,0,1.52-2.59h0l-1.52,2.59a5.51,5.51,0,0,0,2.26.87,1.54,1.54,0,0,0,1.5-1.5c0,.08,0,.7,0,.18a2.42,2.42,0,0,0,0-.6,3.56,3.56,0,0,0-.17-.41l-.19-.36c-.26-.51-.53-1-.8-1.51-.49-.91-1-1.85-1.48-2.74a2.22,2.22,0,0,0-1.84-1.26,3,3,0,0,0-2.38,1.82c-.23.4-.46.81-.66,1.22a2.33,2.33,0,0,0-.15,1.17s-.06-.45,0-.15c0-.21.06-.29,0-.05a3.38,3.38,0,0,1-.08.34c-.08.31-.17.62-.27.92a17.37,17.37,0,0,0-1.12,3.45,1.52,1.52,0,0,0,1.11,1.45h0a1.57,1.57,0,0,0,1.69-.69l0,0a1.5,1.5,0,0,0-2.59-1.52h0l2.59,1.52a5.46,5.46,0,0,0,.87-2.26,1.54,1.54,0,0,0-1.5-1.5c.08,0,.7,0,.18,0a2.41,2.41,0,0,0-.6,0,3.65,3.65,0,0,0-.41.18l-.36.19-1.51.79c-.91.5-1.85,1-2.74,1.49a2.2,2.2,0,0,0-1.26,1.83,3,3,0,0,0,1.82,2.38c.4.23.81.47,1.22.66a2.23,2.23,0,0,0,1.17.15s-.45.07-.15,0c-.21,0-.29-.05-.05,0l.34.08c.31.08.62.18.92.28a17.33,17.33,0,0,0,3.45,1.11,1.51,1.51,0,0,0,1.45-1.1h0a1.58,1.58,0,0,0-.69-1.69l0,0a1.5,1.5,0,0,0-1.52,2.59h0l1.52-2.6a5.75,5.75,0,0,0-2.26-.87,1.54,1.54,0,0,0-1.5,1.5c0-.08,0-.69,0-.18a2,2,0,0,0,0,.6,2.09,2.09,0,0,0,.17.41c.06.12.12.25.19.37l.79,1.5c.5.91,1,1.85,1.49,2.75a2.23,2.23,0,0,0,1.83,1.25,3,3,0,0,0,2.38-1.82,13,13,0,0,0,.66-1.22,2.23,2.23,0,0,0,.15-1.17s.07.45,0,.16c0,.21-.05.28,0,0s.05-.22.08-.33c.08-.32.18-.62.28-.93a17.33,17.33,0,0,0,1.11-3.45,1.51,1.51,0,0,0-1.1-1.45h0a1.58,1.58,0,0,0-1.69.69l0,0a1.5,1.5,0,0,0,2.59,1.52h0L146,357.16a5.67,5.67,0,0,0-.88,2.26,1.54,1.54,0,0,0,1.5,1.5c-1-.05.29,0,.42-.05a2.54,2.54,0,0,0,.38-.16l.25-.13,1-.5,2.7-1.45c.76-.42,1.64-.81,1.91-1.73.55-1.88-1.65-2.84-3-3.55C148.6,352.43,147.08,355,148.78,355.94Z"/><path class="cls-20" d="M141.74,354.82c1.39.76,2.32,2.23.94,3,0,0-5.19,2.82-5.18,2.79-.17.1.2-.7.11-.53.13-.24-2.38,5-2.25,5.25-.75,1.38-2.23,2.31-3,.93,0,0-2.83-5.19-2.8-5.17-.09-.17.7.2.53.11.24.13-5-2.39-5.25-2.25-1.38-.76-2.31-2.23-.93-3,0,0,5.19-2.83,5.18-2.8.16-.09-.21.7-.11.53-.14.25,2.38-5,2.24-5.24.76-1.38,2.23-2.32,3-.93,0,0,2.83,5.19,2.8,5.17.09.17-.7-.2-.53-.11A55.91,55.91,0,0,0,141.74,354.82Z"/><path class="cls-2" d="M141,356.12c.14.08.81.7.87.68.22-.34.24-.43.06-.29h0s-.09.06-.13.07a11.19,11.19,0,0,0-1.63.89l-2.2,1.19-.82.44c-.57.31-.29-.06.34,0l1.5,1.5c0,.39,0,.06.11-.15.6-1.68-1.84-2.49-2.74-1.16l0,0,2.59,1.51h0l-2.74-1.15c.2-.65.1-.25,0-.05s-.21.44-.31.66l-.87,1.89c-.45,1-1.34,2.39-1.08,3.55l.15-1.16c-.08.14-.7.82-.69.87.34.23.43.25.29.06v0s-.06-.09-.07-.13a11.27,11.27,0,0,0-.89-1.63l-1.19-2.19-.44-.82c-.3-.58.06-.29,0,.34l-1.5,1.5c-.39,0-.05,0,.15.11,1.69.6,2.49-1.84,1.16-2.75h0l-1.52,2.59h0l1.16-2.75c.64.2.24.11,0,0l-.67-.31-1.89-.86c-1-.46-2.39-1.35-3.55-1.09l1.16.15c-.14-.08-.82-.7-.87-.68-.22.33-.24.43-.06.29l0,0s.09-.05.13-.06a11.73,11.73,0,0,0,1.63-.89l2.19-1.19.82-.44c.58-.31.29.06-.33,0l-1.5-1.5c0-.39,0-.06-.11.15-.61,1.68,1.83,2.48,2.74,1.15v0l-2.59-1.51h0l2.74,1.15c-.2.65-.1.24,0,.05s.2-.44.31-.66l.87-1.9c.45-1,1.34-2.38,1.08-3.54l-.15,1.16c.08-.14.7-.82.68-.87-.33-.23-.43-.25-.28-.07v0s.05.09.07.12a10.81,10.81,0,0,0,.88,1.64c.4.73.8,1.46,1.19,2.19.15.27.3.54.44.82.31.57-.05.29,0-.34l1.5-1.5c.39,0,.06,0-.15-.11-1.68-.6-2.48,1.84-1.15,2.74l0,0,1.51-2.59h0L136.09,354c-.64-.2-.24-.1-.05,0l.67.31q.93.45,1.89.87c1,.45,2.38,1.35,3.54,1.09,1.89-.43,1.09-3.32-.8-2.9.88-.19.81.09.34-.11l-.45-.18c-.6-.25-1.2-.52-1.79-.79a21.74,21.74,0,0,0-2.55-1.17,1.51,1.51,0,0,0-1.16,2.74h0c1.67,1,3.1-1.52,1.51-2.59l0,0L136.08,354a2.35,2.35,0,0,0,.94.22,1.53,1.53,0,0,0,1.5-1.5,3.6,3.6,0,0,0-.69-1.73l-1.25-2.3c-.77-1.42-1.5-3.43-3.45-3.35a4.06,4.06,0,0,0-3.33,2.7,1.55,1.55,0,0,0,0,.8c0-.71,0-.92,0-.64-.05.05-.05.19-.08.25a3.47,3.47,0,0,0-.17.45l-.16.36a42.83,42.83,0,0,0-1.82,4,1.51,1.51,0,0,0,2.74,1.16h0c1-1.67-1.51-3.09-2.59-1.51v0l2.74,1.16a2.8,2.8,0,0,0,.22-.95,1.54,1.54,0,0,0-1.5-1.5,3.62,3.62,0,0,0-1.73.69l-2.31,1.25c-1.42.77-3.43,1.5-3.35,3.45a4.08,4.08,0,0,0,2.7,3.33,1.36,1.36,0,0,0,.8,0c-.7-.05-.91,0-.63,0,.05.05.18.05.24.08l.45.18.36.15a44.28,44.28,0,0,0,4,1.83,1.51,1.51,0,0,0,1.15-2.75h0c-1.67-1-3.1,1.52-1.52,2.59l0,0,1.16-2.75a2.53,2.53,0,0,0-.95-.21,1.54,1.54,0,0,0-1.5,1.5,3.64,3.64,0,0,0,.7,1.72c.41.77.83,1.54,1.25,2.31.77,1.42,1.5,3.43,3.45,3.35a4.08,4.08,0,0,0,3.33-2.7,1.55,1.55,0,0,0,0-.8c-.05.71-.05.92,0,.63,0-.05,0-.18.08-.24s.11-.3.17-.45l.15-.36a40.66,40.66,0,0,0,1.83-4,1.5,1.5,0,0,0-2.74-1.15h0c-1,1.67,1.52,3.09,2.59,1.51l0,0-2.74-1.16a2.4,2.4,0,0,0-.22,1,1.54,1.54,0,0,0,1.5,1.5c.69,0,1.56-.61,2.14-.92l2.91-1.58a4.54,4.54,0,0,0,2-1.58c1-1.8-.56-3.63-2-4.5A1.5,1.5,0,0,0,141,356.12Z"/><path class="cls-21" d="M124.86,345.91l3.06,5.6a1.11,1.11,0,0,0,.43.43L134,355a2.13,2.13,0,0,1,0,3.73l-5.6,3.06a1,1,0,0,0-.43.42l-3.06,5.6a2.12,2.12,0,0,1-3.72,0l-3.06-5.6a1,1,0,0,0-.43-.42l-5.6-3.06a2.13,2.13,0,0,1,0-3.73l5.6-3.06a1.11,1.11,0,0,0,.43-.43l3.06-5.6A2.12,2.12,0,0,1,124.86,345.91Z"/><path class="cls-2" d="M123.57,346.67c1,1.81,1.9,3.7,3,5.46a4.71,4.71,0,0,0,2.06,1.66l3.55,1.94c.51.28,1.84.74,1.25,1.54-.41.55-1.6.91-2.18,1.23-1.1.6-2.22,1.18-3.31,1.81a4.11,4.11,0,0,0-1.63,1.75l-1.91,3.49c-.25.46-.72,1.87-1.39,1.87s-1.14-1.41-1.39-1.87l-1.91-3.49c-1-1.87-3.22-2.62-5-3.61-.54-.3-1.76-.68-2.12-1.23-.53-.79.87-1.26,1.36-1.53,2-1.09,4.66-2,5.79-4l2.09-3.81c.29-.53,1-2.36,1.78-1.18,1,1.63,3.62.12,2.59-1.52a3.68,3.68,0,0,0-5.77-.74,13.49,13.49,0,0,0-1.77,3,21.1,21.1,0,0,1-1.82,3.34c.14-.18-.08,0-.29.13-.63.31-1.24.67-1.85,1-1.1.6-2.24,1.16-3.31,1.81a3.69,3.69,0,0,0-1.36,5.11,7.3,7.3,0,0,0,3,2.16l3.71,2c.35.19,0-.13.18.17.29.49.55,1,.83,1.51.68,1.24,1.33,2.49,2,3.72a3.73,3.73,0,0,0,4.39,1.87c1.42-.44,2-1.65,2.68-2.85l2.15-3.93c.11-.19.39-.56.19-.4a7.07,7.07,0,0,1,1.15-.62l3.93-2.15a3.89,3.89,0,0,0,2.32-3.67c-.12-1.89-1.54-2.76-3-3.56s-2.72-1.62-4.14-2.26c-.11-.05-.4-.3-.17-.05a1.56,1.56,0,0,1-.16-.28c-.27-.61-.64-1.18-1-1.76l-1.94-3.56C125.23,343.46,122.64,345,123.57,346.67Z"/><path class="cls-22" d="M169.67,270.28a1.66,1.66,0,0,0,.62.69l13.05,7.93-13.05,7.92a1.66,1.66,0,0,0-.62.69L162.53,302l-7.14-14.49a1.66,1.66,0,0,0-.62-.69l-13.05-7.92L154.77,271a1.66,1.66,0,0,0,.62-.69l7.14-14.49Z"/><path class="cls-2" d="M168.37,271a6.84,6.84,0,0,0,2.6,2.1l4.56,2.77,7.05,4.28V277.6l-12,7.29a8,8,0,0,0-1.7,1.17,6.83,6.83,0,0,0-1.06,1.81l-3.62,7.36-3,6h2.59l-6.27-12.74a6.9,6.9,0,0,0-2.58-3.32l-6.6-4-5.89-3.58v2.59l12-7.29a8.28,8.28,0,0,0,1.7-1.17,6.83,6.83,0,0,0,1.06-1.81l3.62-7.35,3-6h-2.59L168.37,271c.85,1.73,3.44.21,2.59-1.51L163.82,255a1.51,1.51,0,0,0-2.59,0l-6.12,12.43c-.53,1.08-.78,2-1.8,2.64l-6.67,4L141,277.6a1.52,1.52,0,0,0,0,2.59l11.75,7.13a5,5,0,0,1,1.39.95,7.57,7.57,0,0,1,.64,1.31l3.64,7.38,2.85,5.8a1.51,1.51,0,0,0,2.59,0L170,290.33c.53-1.09.78-2,1.8-2.64l6.67-4.05,5.68-3.45a1.52,1.52,0,0,0,0-2.59l-6.64-4-4.45-2.7c-.58-.35-1.69-.75-2-1.34C170,267.88,167.36,269.39,168.37,271Z"/></svg>