<svg id="Layer_1" data-name="Layer 1" xmlns="http://www.w3.org/2000/svg" viewBox="0 0 969 748"><defs><style>.cls-1{fill:#fff;}.cls-2{fill:#1a1a1a;}.cls-3{fill:#fcee21;}</style></defs><path class="cls-1" d="M376.68,543.84h-.16c-15.61-.9-31.22-2.47-46.67-4.85a240.73,240.73,0,0,1-25.23-5.08,105.5,105.5,0,0,1-10.44-3.32c-4.35-1.68-14.57-6.74-10.41-13.17,1.22-1.87,4.06-1.17,6.12-.31A107.65,107.65,0,0,0,323.28,525c1.44.1,3.16,0,3.92-1.18s.05-2.8-1.08-3.59a8.71,8.71,0,0,0-3.94-1.14,99,99,0,0,1-45.54-18.23,14.29,14.29,0,0,1-4.56-4.66c-1-1.94-1.07-4.55.43-6.15,2.52-2.67,6.93-.9,10.14.89a147.25,147.25,0,0,0,35,14.05c1.55.41,3.41.72,4.6-.35,1.39-1.24.92-3.66-.43-4.93s-3.27-1.7-5.08-2.13a103.77,103.77,0,0,1-41.15-20.26,15.09,15.09,0,0,1-4.5-5c-1-2.07-.9-4.77.73-6.37,3-3,7.95-.13,11.35,2.4a70.38,70.38,0,0,0,39,13.77,4.45,4.45,0,0,0,2.91-.58c1.33-1,1.11-3.22,0-4.47a9.82,9.82,0,0,0-4.37-2.34,98.61,98.61,0,0,1-36-21.81c-2.9-2.76-5.75-7.24-3.27-10.37,2.31-2.94,7-1.66,10.32,0,16.77,8.15,33,19,51.57,20.71,4.47.41,10.24-.68,11.16-5.08.72-3.47-2.18-6.5-4.45-9.23s-4-7.13-1.34-9.51c2.9-2.64,7.39.19,10.19,2.93l19.75,19.27Z"/><path class="cls-2" d="M376.68,542.34q-17.6-1-35.09-3.21A290.91,290.91,0,0,1,307.14,533a85,85,0,0,1-14-4.49c-2.84-1.28-6.12-3-7.92-5.6a4,4,0,0,1-.62-3.8c.78-2,2.68-1.4,4.32-.8a156.4,156.4,0,0,0,15.63,5.2,110.22,110.22,0,0,0,16.22,2.79c2.16.21,4.76.7,6.69-.59a3.88,3.88,0,0,0,.63-5.64c-1.51-2-4-2.21-6.32-2.52q-3.84-.54-7.64-1.38a98.21,98.21,0,0,1-14.82-4.52,96.48,96.48,0,0,1-14-6.84q-3.35-2-6.51-4.22c-2-1.39-4.32-2.89-5.43-5.12-.81-1.65-.83-4.09,1.08-5s4.31.19,6,1c2.33,1.14,4.57,2.48,6.89,3.66s4.92,2.4,7.42,3.49a152.73,152.73,0,0,0,15.07,5.68c2.58.81,5.18,1.62,7.81,2.23,2.15.5,4.7.6,6.17-1.36a5,5,0,0,0-.23-5.73c-1.39-2-3.8-2.68-6-3.21a109,109,0,0,1-14.67-4.62,100.91,100.91,0,0,1-26.21-15.35c-1.78-1.45-3.84-3.11-4.49-5.41-.55-1.93.1-4.4,2.39-4.7,2.1-.27,4.31,1.06,6,2.14,2.09,1.34,4,2.89,6.11,4.21A71.8,71.8,0,0,0,315.19,483a55.12,55.12,0,0,0,7.59.64c2.23,0,4.32-1,4.68-3.42.79-5.23-5.47-6.56-9.12-7.93a96.35,96.35,0,0,1-26.46-15.12c-2-1.59-3.9-3.27-5.75-5-1.65-1.57-3.34-3.46-3.92-5.72a3.1,3.1,0,0,1,2.45-4.07c2-.36,4.17.44,5.94,1.24,9.35,4.27,18.14,9.69,27.53,13.89a97.26,97.26,0,0,0,14.39,5.28c4.45,1.2,9.4,2.36,14,2,3.64-.29,7.79-1.62,9.18-5.36,1.72-4.62-2.08-8.36-4.67-11.67-1.17-1.49-2.4-3.65-2.11-5.63.31-2.15,2.42-2.54,4.19-1.92,2.3.81,4.09,2.58,5.8,4.25l6.34,6.2,12.35,12.05-.44-1.07-.68,27.86-1.09,44.32-.25,10.07c-.05,1.93,2.95,1.93,3,0l.7-28.33L380,471l.16-6.57c0-.91.14-1.88.07-2.79s-.57-1.23-1.14-1.79l-4.59-4.48L366,447.11a90.12,90.12,0,0,0-8-7.6c-2.31-1.77-5.49-3.43-8.45-2.31-2.78,1.05-3.92,3.92-3.46,6.71.49,3,2.36,5.27,4.23,7.54,1.68,2,4.07,5.13,2.18,7.78-1.34,1.87-4.09,2.4-6.23,2.53a35.37,35.37,0,0,1-9.21-1,75.26,75.26,0,0,1-10.2-2.95A157,157,0,0,1,308,449.15c-3.21-1.67-6.41-3.37-9.62-5A62,62,0,0,0,289.6,440c-2.51-.82-5.6-1.21-7.92.35-2.67,1.79-3.13,5.08-2,7.91,1.2,3,3.53,5.3,5.9,7.44s5.13,4.39,7.85,6.4a98.34,98.34,0,0,0,17.89,10.48c3.07,1.39,6.2,2.6,9.39,3.71,1.27.44,3,1,3.64,2.32.77,1.75-.74,2-2.14,2a67,67,0,0,1-20.14-3.9,72.42,72.42,0,0,1-18.42-9.89c-2.42-1.75-5.26-3.5-8.34-3.64a6,6,0,0,0-6.18,4.84c-.62,3.14.87,6.05,3,8.26a57.16,57.16,0,0,0,8.18,6.51,104,104,0,0,0,17.85,10.11c3.26,1.44,6.57,2.73,9.95,3.84,3.23,1.06,6.53,1.8,9.8,2.71,1.35.38,3,.93,3.53,2.37s-.47,2.2-1.91,2.06a28.92,28.92,0,0,1-5-1.25c-1.9-.54-3.79-1.13-5.66-1.74a146.77,146.77,0,0,1-20.25-8.42c-3.07-1.55-6-3.55-9.31-4.64-2.65-.87-5.8-1-7.87,1.2s-2,5.47-.67,8c1.57,3,4.82,5.06,7.57,6.94a100.38,100.38,0,0,0,18.12,9.82,99,99,0,0,0,20.2,6c1.69.31,3.39.57,5.09.8,1.29.18,3.61.25,4.15,1.75s-1.79,1.27-2.63,1.22c-2-.12-4-.35-6-.61a106.4,106.4,0,0,1-21.76-5.25c-1.75-.63-3.48-1.32-5.21-2a10.58,10.58,0,0,0-4.25-.92c-2.73.13-4.39,2.41-4.69,5-.55,4.77,4.17,8.19,7.84,10.19,5.37,2.94,11.48,4.56,17.38,6,15.47,3.89,31.45,6,47.3,7.59q11.38,1.15,22.81,1.8C378.61,545.45,378.6,542.45,376.68,542.34Z"/><path class="cls-3" d="M734.21,424.06c-14.34,11.91-20.05,30.34-31.93,44.22-13.39,15.64-32.18,26.4-51.17,33.73-28.84,11.13-64.73,13.91-94.89,15-66,2.27-178.48-56.26-178.48-56.26l-2,115.48s58.53,24.63,106,32.66c59.6,10.09,119.65,11.57,178.92-3.55,6.82-1.75,39.91-12.44,46.76-14.67"/><path class="cls-2" d="M733.14,423c-12.58,10.58-18.68,26.14-28,39.24-10,14.05-24.65,24.36-40,32-31.89,15.88-68,19.56-103.14,21A174.9,174.9,0,0,1,525.45,513a318.11,318.11,0,0,1-38.16-9.16A618.32,618.32,0,0,1,415.78,477c-12.41-5.46-24.63-11.3-36.76-17.35l-.52-.27a1.52,1.52,0,0,0-2.26,1.3l-.69,39.07L374.45,562l-.25,14.2a1.54,1.54,0,0,0,1.1,1.44c11.33,4.77,22.9,9,34.5,13.08,22.79,8,46.08,15.12,69.88,19.31a506.43,506.43,0,0,0,90.21,8,377.49,377.49,0,0,0,89.75-10.95c7.1-1.78,14.08-4.13,21.06-6.33q12-3.79,23.94-7.67l3.13-1c1.82-.59,1-3.49-.8-2.89-14.58,4.75-29.16,9.58-43.89,13.87a288.09,288.09,0,0,1-37.14,7.74,380.8,380.8,0,0,1-45.36,4.05c-30.3.94-60.65-1.48-90.58-6.15-24.57-3.83-48.48-10.41-72-18.34q-13.8-4.65-27.4-9.86c-4.63-1.77-9.19-3.84-13.87-5.49l-.62-.26,1.11,1.45.69-39.08,1.1-62.21.25-14.19L377,462c10.14,5.28,20.53,10.11,30.95,14.8a668.14,668.14,0,0,0,70,27.33,365,365,0,0,0,38.88,10.35c11.82,2.39,23.9,4.1,36,4a395.47,395.47,0,0,0,51.11-3.72c17.56-2.36,35-6.11,51.43-12.88,16-6.57,31.28-15.4,43.5-27.73a102.85,102.85,0,0,0,14.88-19.82c4.2-7,8.11-14.18,13.17-20.58a59,59,0,0,1,8.35-8.67c1.48-1.24-.66-3.35-2.13-2.12Z"/></svg>