<svg xmlns="http://www.w3.org/2000/svg" viewBox="0 0 18.43 38.85"><defs><style>.cls-1{fill:none;stroke:#8dc63f;stroke-linecap:round;stroke-linejoin:round;stroke-width:2px;}</style></defs><title>bud</title><g id="Layer_2" data-name="Layer 2"><g id="Layer_9" data-name="Layer 9"><path class="cls-1" d="M17.31,16.66c-.36-3.05-1.7-5.74-3-8.44-.7-1.42-1.59-2.74-2.35-4.12A7.23,7.23,0,0,0,9.28,1H9.15A7.23,7.23,0,0,0,6.49,4.1C5.73,5.48,4.84,6.8,4.14,8.22c-1.32,2.7-2.66,5.39-3,8.44A15.26,15.26,0,0,0,1,19.43a15.19,15.19,0,0,0,.1,2.76c.36,3,1.7,5.74,3,8.44.7,1.42,1.59,2.74,2.35,4.12a7.17,7.17,0,0,0,2.66,3.1h.13a7.17,7.17,0,0,0,2.66-3.1c.76-1.38,1.65-2.7,2.35-4.12,1.32-2.7,2.66-5.39,3-8.44a15.19,15.19,0,0,0,.1-2.76A15.26,15.26,0,0,0,17.31,16.66Z"/><path class="cls-1" d="M16.62,25.68a6.74,6.74,0,0,0-1.06-1.09c-1.5-1.23-6.34-.51-6.34,3.1h0c0-3.31-4.85-4.33-6.35-3.1a6.73,6.73,0,0,0-1,1"/><path class="cls-1" d="M1.32,23.69A23.39,23.39,0,0,0,15.25,10.41"/><path class="cls-1" d="M1.41,17.42A24.44,24.44,0,0,0,13.56,6.93"/><path class="cls-1" d="M2.5,12a19.62,19.62,0,0,0,9.41-8.17"/><path class="cls-1" d="M5.34,6.61A11.83,11.83,0,0,0,10.4,2"/><path class="cls-1" d="M9.21,25.05a19.9,19.9,0,0,0,8.07-8.36"/></g></g></svg>