<svg xmlns="http://www.w3.org/2000/svg" viewBox="0 0 396.6 421.51"><defs><style>.cls-1{fill:none;stroke-miterlimit:10;}.cls-1,.cls-2{stroke:#8dc63f;stroke-linecap:round;stroke-width:2px;}.cls-2{fill:#fff;stroke-linejoin:round;}</style></defs><title>cycle_1</title><g id="Layer_2" data-name="Layer 2"><g id="Layer_9" data-name="Layer 9"><path class="cls-1" d="M142.14,136.44c1.9-4,3.84-7.88,5.89-11.74a241.63,241.63,0,0,1,64.63-77c20.82-16.24,44.79-29.18,70.79-33.74,31.33-5.49,64.64,2.31,86.84,26,26.52,28.34,28.69,69.42,13.16,103.74-22.8,50.41-72.74,58.85-114.09,86.95-23.83,16.21-40.74,40.69-54.84,65.83-22.75,40.58-43.82,96.33-89.9,117-26.72,12-59.46,8.47-83.7-7.93-28.08-19-42.8-53-39.45-86.49,6.12-61.15,63.23-73.93,99.8-111.73C120.33,187.57,130.22,161.3,142.14,136.44Z"/><path class="cls-2" d="M29.48,386.62c-.36-3-1.7-5.73-3-8.43-.69-1.43-1.58-2.74-2.35-4.13a7.16,7.16,0,0,0-2.66-3.1h-.12a7.16,7.16,0,0,0-2.66,3.1c-.77,1.39-1.66,2.7-2.36,4.13-1.32,2.7-2.66,5.39-3,8.43a42.52,42.52,0,0,0,0,5.53c.36,3.05,1.7,5.74,3,8.44.7,1.42,1.59,2.74,2.36,4.12a7.05,7.05,0,0,0,2.66,3.1h.12a7.05,7.05,0,0,0,2.66-3.1c.77-1.38,1.66-2.7,2.35-4.12,1.33-2.7,2.67-5.39,3-8.44a42.52,42.52,0,0,0,0-5.53Z"/><path class="cls-2" d="M28.78,395.64a6,6,0,0,0-1.06-1.09c-1.49-1.23-6.34-.5-6.34,3.1h0c0-3.31-4.85-4.33-6.34-3.1a6.34,6.34,0,0,0-1,1"/><path class="cls-2" d="M13.48,393.66a23.45,23.45,0,0,0,13.94-13.29"/><path class="cls-2" d="M13.58,387.38a24.41,24.41,0,0,0,12.14-10.49"/><path class="cls-2" d="M14.66,382a19.72,19.72,0,0,0,9.42-8.18"/><path class="cls-2" d="M17.51,376.58a11.83,11.83,0,0,0,5-4.58"/><path class="cls-2" d="M21.37,395a19.87,19.87,0,0,0,8.07-8.35"/><path class="cls-2" d="M189,354.22a22.3,22.3,0,0,1-.82,4.82,45.75,45.75,0,0,1-3.08,7.66l-.35.66h0c-.81,1.56-1.78,3-2.63,4.57s-1.81,3.14-3.39,3.94l-.16.19c-1.57-.81-2.54-2.45-3.38-3.95s-1.89-3.1-2.73-4.71c-.09-.17-.19-.36-.27-.54a44.24,44.24,0,0,1-3.16-7.94,20.41,20.41,0,0,1-.74-4.52c-.16-3.14.05-8.14,3.53-9.56a3.89,3.89,0,0,1,1.68-.28h0a4,4,0,0,1,1.36.29,4.47,4.47,0,0,1,1.71,1.19c1.53,1.64,2,4.26,2.07,6.39,0-2.13.48-4.79,2-6.46a4.71,4.71,0,0,1,1.82-1.3,3.83,3.83,0,0,1,1.45-.29h0a3.89,3.89,0,0,1,1.58.29C189,346.09,189.16,351.1,189,354.22Z"/><path class="cls-2" d="M173.5,344.38a13,13,0,0,1,.34-3,16.31,16.31,0,0,0-.33,3.16h0a3.89,3.89,0,0,0-1.68.28c-3.48,1.42-3.69,6.42-3.53,9.56a20.41,20.41,0,0,0,.74,4.52,44.24,44.24,0,0,0,3.16,7.94c.08.18.18.37.27.54a11.43,11.43,0,0,1-2.43-3.29c-1-1.76-2.11-3.44-3-5.25l-.13-.25c-1.85-3.82-3.55-7.91-3.77-12.21-.16-3.14.05-8.14,3.53-9.56a4.17,4.17,0,0,1,3.05,0C172.56,338,173.45,341.6,173.5,344.38Z"/><path class="cls-2" d="M183.84,343.32c-.24-2.58-1.23-5.47-3.73-6.46a4.1,4.1,0,0,0-1.46-.3h0a3.84,3.84,0,0,0-1.57.29,4.46,4.46,0,0,0-1.36.87,4.49,4.49,0,0,1,1.57-1,4.24,4.24,0,0,1,1.36-.29h0a4.08,4.08,0,0,1,1.67.27C182.85,337.7,183.65,340.61,183.84,343.32Z"/><path class="cls-2" d="M174.1,340.46a6.25,6.25,0,0,1,1.36-2.48A7.21,7.21,0,0,0,174.1,340.46Z"/><path class="cls-2" d="M183.9,344.38h0c0-.17,0-.35,0-.53A4.67,4.67,0,0,1,183.9,344.38Z"/><path class="cls-2" d="M194.25,346.23c-.21,4.24-1.86,8.26-3.69,12-.07.15-.13.28-.21.43-.88,1.8-2,3.48-3,5.24a10.79,10.79,0,0,1-2.6,3.42l.35-.66a45.75,45.75,0,0,0,3.08-7.66,22.3,22.3,0,0,0,.82-4.82c.15-3.12,0-8.13-3.53-9.55a3.89,3.89,0,0,0-1.58-.29c0-2.81.86-6.55,3.77-7.7a4.25,4.25,0,0,1,3.06,0C194.2,338.09,194.41,343.09,194.25,346.23Z"/><path class="cls-2" d="M183.88,344.39a3.83,3.83,0,0,0-1.45.29,4.71,4.71,0,0,0-1.82,1.3c-1.48,1.67-2,4.33-2,6.46,0-2.13-.54-4.75-2.07-6.39a4.47,4.47,0,0,0-1.71-1.19,4,4,0,0,0-1.36-.29,16.31,16.31,0,0,1,.33-3.16,7.38,7.38,0,0,1,.26-1,7.21,7.21,0,0,1,1.36-2.48,2.06,2.06,0,0,1,.25-.26,4.46,4.46,0,0,1,1.36-.87,3.84,3.84,0,0,1,1.57-.29h0a4.1,4.1,0,0,1,1.46.3c2.5,1,3.49,3.88,3.73,6.46a4.89,4.89,0,0,1,0,.54C183.88,344,183.88,344.22,183.88,344.39Z"/><path class="cls-2" d="M24.31,272.8a16.19,16.19,0,0,0-1.84-5.15c-.43-.87-1-1.68-1.44-2.52a4.39,4.39,0,0,0-1.62-1.89h-.08a4.32,4.32,0,0,0-1.62,1.89c-.47.84-1,1.65-1.44,2.52a16.19,16.19,0,0,0-1.84,5.15,23.69,23.69,0,0,0,0,3.37,16.28,16.28,0,0,0,1.84,5.15c.43.87,1,1.67,1.44,2.51a4.35,4.35,0,0,0,1.62,1.9h.08a4.42,4.42,0,0,0,1.62-1.9c.47-.84,1-1.64,1.44-2.51a16.28,16.28,0,0,0,1.84-5.15,23.69,23.69,0,0,0,0-3.37Z"/><path class="cls-2" d="M269.36,230.63a16.28,16.28,0,0,0-1.84-5.15c-.43-.86-1-1.67-1.44-2.51a4.27,4.27,0,0,0-1.62-1.89h-.08a4.33,4.33,0,0,0-1.62,1.89c-.47.84-1,1.65-1.44,2.51a16.28,16.28,0,0,0-1.84,5.15,23.83,23.83,0,0,0,0,3.38,16.28,16.28,0,0,0,1.84,5.15c.43.86,1,1.67,1.44,2.51a4.33,4.33,0,0,0,1.62,1.89h.08a4.27,4.27,0,0,0,1.62-1.89c.47-.84,1-1.65,1.44-2.51a16.28,16.28,0,0,0,1.84-5.15,23.83,23.83,0,0,0,0-3.38Z"/><path class="cls-2" d="M377.37,163.08c-.36-3.05-1.7-5.74-3-8.44-.7-1.42-1.59-2.74-2.35-4.12a7.23,7.23,0,0,0-2.66-3.1h-.13a7.23,7.23,0,0,0-2.66,3.1c-.77,1.38-1.65,2.7-2.35,4.12-1.32,2.7-2.66,5.39-3,8.44a15.26,15.26,0,0,0-.1,2.77,15.19,15.19,0,0,0,.1,2.76c.36,3,1.7,5.74,3,8.44.7,1.42,1.58,2.74,2.35,4.12a7.17,7.17,0,0,0,2.66,3.1h.13a7.17,7.17,0,0,0,2.66-3.1c.76-1.38,1.65-2.7,2.35-4.12,1.32-2.7,2.66-5.39,3-8.44a15.19,15.19,0,0,0,.1-2.76A15.26,15.26,0,0,0,377.37,163.08Z"/><path class="cls-2" d="M376.68,172.1a6.74,6.74,0,0,0-1.06-1.09c-1.5-1.23-6.35-.51-6.35,3.1h0c0-3.31-4.84-4.33-6.34-3.1a6.25,6.25,0,0,0-1,1"/><path class="cls-2" d="M361.38,170.11a23.39,23.39,0,0,0,13.93-13.28"/><path class="cls-2" d="M361.47,163.84a24.44,24.44,0,0,0,12.15-10.49"/><path class="cls-2" d="M362.55,158.46a19.6,19.6,0,0,0,9.42-8.17"/><path class="cls-2" d="M365.4,153a11.83,11.83,0,0,0,5.06-4.57"/><path class="cls-2" d="M369.27,171.47a19.9,19.9,0,0,0,8.07-8.36"/><path class="cls-2" d="M390.32,51.12a21.7,21.7,0,0,1-.81,4.81,45.45,45.45,0,0,1-3.09,7.66c-.11.23-.23.45-.34.66h0c-.82,1.56-1.79,3-2.64,4.57S381.63,72,380,72.77l-.16.19A9.08,9.08,0,0,1,376.51,69c-.89-1.58-1.89-3.1-2.74-4.7l-.27-.55a44.24,44.24,0,0,1-3.16-7.94,21.54,21.54,0,0,1-.74-4.52c-.15-3.14,0-8.14,3.54-9.56a3.84,3.84,0,0,1,1.68-.28h0a3.89,3.89,0,0,1,1.35.29,4.47,4.47,0,0,1,1.71,1.19c1.54,1.64,2.05,4.26,2.08,6.39,0-2.13.48-4.78,2-6.46a4.78,4.78,0,0,1,1.81-1.3,4,4,0,0,1,1.45-.29h0a4.08,4.08,0,0,1,1.59.29C390.27,43,390.48,48,390.32,51.12Z"/><path class="cls-2" d="M374.82,41.27a13,13,0,0,1,.33-3,16.29,16.29,0,0,0-.32,3.16h0a3.84,3.84,0,0,0-1.68.28c-3.49,1.42-3.69,6.42-3.54,9.56a21.54,21.54,0,0,0,.74,4.52,44.24,44.24,0,0,0,3.16,7.94l.27.55a11.61,11.61,0,0,1-2.43-3.3c-1-1.76-2.1-3.44-3-5.24l-.12-.25c-1.86-3.83-3.56-7.92-3.78-12.21-.15-3.14.05-8.15,3.54-9.57a4.15,4.15,0,0,1,3,0C373.88,34.88,374.76,38.49,374.82,41.27Z"/><path class="cls-2" d="M385.15,40.21c-.24-2.58-1.23-5.47-3.72-6.46a4.32,4.32,0,0,0-1.46-.3h0a3.89,3.89,0,0,0-1.58.29,4.29,4.29,0,0,0-1.35.87,4.52,4.52,0,0,1,1.56-1,4.06,4.06,0,0,1,1.37-.3h0a4,4,0,0,1,1.67.28C384.16,34.59,385,37.5,385.15,40.21Z"/><path class="cls-2" d="M375.41,37.35a6.15,6.15,0,0,1,1.37-2.48A7.06,7.06,0,0,0,375.41,37.35Z"/><path class="cls-2" d="M385.21,41.27h0c0-.16,0-.35,0-.53A4.67,4.67,0,0,1,385.21,41.27Z"/><path class="cls-2" d="M395.57,43.12c-.21,4.24-1.87,8.27-3.69,12-.08.15-.14.28-.21.43-.89,1.8-2,3.48-3,5.24a10.76,10.76,0,0,1-2.59,3.42c.11-.21.23-.43.34-.66a45.45,45.45,0,0,0,3.09-7.66,21.7,21.7,0,0,0,.81-4.81c.16-3.13-.05-8.14-3.52-9.56a4.08,4.08,0,0,0-1.59-.29c0-2.8.87-6.55,3.78-7.69a4.12,4.12,0,0,1,3.05,0C395.52,35,395.72,40,395.57,43.12Z"/><path class="cls-2" d="M385.19,41.28a4,4,0,0,0-1.45.29,4.78,4.78,0,0,0-1.81,1.3c-1.48,1.68-2,4.33-2,6.46,0-2.13-.54-4.75-2.08-6.39a4.47,4.47,0,0,0-1.71-1.19,3.89,3.89,0,0,0-1.35-.29,16.29,16.29,0,0,1,.32-3.16c.07-.32.16-.64.26-.95a7.06,7.06,0,0,1,1.37-2.48,1.52,1.52,0,0,1,.25-.26,4.29,4.29,0,0,1,1.35-.87,3.89,3.89,0,0,1,1.58-.29h0a4.32,4.32,0,0,1,1.46.3c2.49,1,3.48,3.88,3.72,6.46a5,5,0,0,1,0,.54C385.19,40.93,385.19,41.12,385.19,41.28Z"/><path class="cls-2" d="M314.48,10.56a15.8,15.8,0,0,0-1.84-5.15c-.43-.87-1-1.67-1.44-2.52A4.32,4.32,0,0,0,309.58,1h-.08a4.39,4.39,0,0,0-1.62,1.89c-.47.85-1,1.65-1.44,2.52a16.28,16.28,0,0,0-1.84,5.15,9.58,9.58,0,0,0-.06,1.68,9.66,9.66,0,0,0,.06,1.69,16.28,16.28,0,0,0,1.84,5.15c.43.87,1,1.67,1.44,2.52a4.45,4.45,0,0,0,1.62,1.89h.08a4.38,4.38,0,0,0,1.62-1.89c.47-.85,1-1.65,1.44-2.52a15.8,15.8,0,0,0,1.84-5.15,9.66,9.66,0,0,0,.06-1.69A9.58,9.58,0,0,0,314.48,10.56Z"/><path class="cls-2" d="M205.18,48.94c-.36-3-1.7-5.74-3-8.44-.7-1.42-1.58-2.74-2.35-4.12a7.12,7.12,0,0,0-2.66-3.1H197a7.12,7.12,0,0,0-2.66,3.1c-.76,1.38-1.65,2.7-2.35,4.12-1.32,2.7-2.66,5.39-3,8.44a15.19,15.19,0,0,0-.1,2.76,15.26,15.26,0,0,0,.1,2.77c.36,3.05,1.7,5.74,3,8.44.7,1.42,1.59,2.74,2.35,4.12a7.23,7.23,0,0,0,2.66,3.1h.13a7.23,7.23,0,0,0,2.66-3.1c.77-1.38,1.65-2.7,2.35-4.12,1.32-2.7,2.66-5.39,3-8.44a15.26,15.26,0,0,0,.1-2.77A15.19,15.19,0,0,0,205.18,48.94Z"/><path class="cls-2" d="M204.49,58a6.35,6.35,0,0,0-1.06-1.09c-1.5-1.23-6.34-.51-6.34,3.1h0c0-3.31-4.85-4.33-6.35-3.1a6.26,6.26,0,0,0-1,1"/><path class="cls-2" d="M189.19,56a23.39,23.39,0,0,0,13.93-13.28"/><path class="cls-2" d="M189.28,49.7a24.41,24.41,0,0,0,12.15-10.5"/><path class="cls-2" d="M190.37,44.32a19.62,19.62,0,0,0,9.41-8.17"/><path class="cls-2" d="M193.21,38.89a11.79,11.79,0,0,0,5.06-4.58"/><path class="cls-2" d="M197.08,57.33A19.9,19.9,0,0,0,205.15,49"/><path class="cls-2" d="M125.1,195.36a21.69,21.69,0,0,1-.81,4.82,45.35,45.35,0,0,1-3.09,7.65c-.11.23-.23.45-.34.67h0c-.81,1.56-1.78,3-2.64,4.57s-1.8,3.14-3.39,3.94l-.15.19a9,9,0,0,1-3.38-4c-.89-1.58-1.89-3.1-2.73-4.71-.1-.17-.19-.36-.28-.54a44.24,44.24,0,0,1-3.16-7.94,21.65,21.65,0,0,1-.74-4.52c-.15-3.14.06-8.14,3.54-9.56a3.84,3.84,0,0,1,1.68-.28h0A3.89,3.89,0,0,1,111,186a4.39,4.39,0,0,1,1.71,1.19c1.54,1.64,2,4.26,2.08,6.39,0-2.13.48-4.79,2-6.46a4.67,4.67,0,0,1,1.81-1.3,3.83,3.83,0,0,1,1.45-.29h0a3.91,3.91,0,0,1,1.59.29C125.05,187.23,125.26,192.24,125.1,195.36Z"/><path class="cls-2" d="M109.6,185.52a13,13,0,0,1,.33-3,16.29,16.29,0,0,0-.32,3.16h0a3.84,3.84,0,0,0-1.68.28c-3.48,1.42-3.69,6.42-3.54,9.56a21.65,21.65,0,0,0,.74,4.52,44.24,44.24,0,0,0,3.16,7.94c.09.18.18.37.28.54a11.07,11.07,0,0,1-2.43-3.29c-1-1.76-2.11-3.44-3-5.25l-.12-.25c-1.86-3.82-3.56-7.91-3.78-12.21-.15-3.14,0-8.14,3.54-9.56a4.1,4.1,0,0,1,3,0C108.66,179.13,109.55,182.74,109.6,185.52Z"/><path class="cls-2" d="M119.93,184.46c-.24-2.58-1.23-5.47-3.72-6.46a4.1,4.1,0,0,0-1.46-.3h0a3.89,3.89,0,0,0-1.58.29,4.29,4.29,0,0,0-1.35.87,4.54,4.54,0,0,1,1.56-1,4.3,4.3,0,0,1,1.37-.29h0a3.94,3.94,0,0,1,1.67.27C118.94,178.84,119.74,181.74,119.93,184.46Z"/><path class="cls-2" d="M110.19,181.6a6.09,6.09,0,0,1,1.37-2.48A7.06,7.06,0,0,0,110.19,181.6Z"/><path class="cls-2" d="M120,185.52h0c0-.17,0-.35,0-.53A4.67,4.67,0,0,1,120,185.52Z"/><path class="cls-2" d="M130.35,187.37c-.21,4.24-1.87,8.26-3.69,12-.08.15-.14.28-.21.43-.89,1.8-2,3.48-3,5.24a10.79,10.79,0,0,1-2.6,3.42c.11-.22.23-.44.34-.67a45.35,45.35,0,0,0,3.09-7.65,21.69,21.69,0,0,0,.81-4.82c.16-3.12,0-8.13-3.52-9.55a3.91,3.91,0,0,0-1.59-.29c0-2.81.87-6.55,3.78-7.7a4.22,4.22,0,0,1,3,0C130.3,179.23,130.51,184.23,130.35,187.37Z"/><path class="cls-2" d="M120,185.53a3.83,3.83,0,0,0-1.45.29,4.67,4.67,0,0,0-1.81,1.3c-1.48,1.67-2,4.33-2,6.46,0-2.13-.54-4.75-2.08-6.39A4.39,4.39,0,0,0,111,186a3.89,3.89,0,0,0-1.35-.29,16.29,16.29,0,0,1,.32-3.16,9.46,9.46,0,0,1,.26-1,7.06,7.06,0,0,1,1.37-2.48,1.23,1.23,0,0,1,.25-.26,4.29,4.29,0,0,1,1.35-.87,3.89,3.89,0,0,1,1.58-.29h0a4.1,4.1,0,0,1,1.46.3c2.49,1,3.48,3.88,3.72,6.46a4.89,4.89,0,0,1,0,.54C120,185.18,120,185.36,120,185.53Z"/></g></g></svg>