<svg xmlns="http://www.w3.org/2000/svg" viewBox="0 0 1366 770.54"><defs><style>.cls-1{fill:#fff;}.cls-2{fill:#231f20;}.cls-3{fill:none;}</style></defs><title>Asset 1</title><g id="Layer_2" data-name="Layer 2"><g id="Layer_1-2" data-name="Layer 1"><path d="M1031.94,217.76c9-8.36,10-23.86.59-32.31a21.6,21.6,0,0,0-16.35-5.52c-6.53.69-11.88,4.75-16,9.62a101.12,101.12,0,0,0-6.65,9l-8,11.79c-1.09,1.6,1.51,3.1,2.59,1.51,3.93-5.79,7.71-11.72,11.88-17.34,3.41-4.59,7.63-9.18,13.23-11,10.48-3.36,22,4.62,23,15.47a20.39,20.39,0,0,1-6.35,16.58c-1.41,1.31.71,3.43,2.13,2.12Z"/><path class="cls-1" d="M1183.62,768.5c2.38-7.69,4.52-15.46,6.56-23.21a1451.77,1451.77,0,0,0,43-249.46q5.29-63.13,5.08-126.57c-.11-32.6,3.61-68.38-21-93.89-23-23.88-59.93-26.27-93.16-27.14-40.35-1-81.33-2-120.4,8.08-8.73,2.26-17.54,5.18-24.58,10.81-12.37,9.9-17.15,26.22-21.31,41.49-42.71,156.85-90.21,313.31-160.4,459.89Z"/><path d="M1185.06,768.9c6.64-21.5,11.94-43.45,17-65.36s9.69-44.06,13.76-66.24Q1228,571.06,1234,503.88c4.07-45.43,5.75-91,5.78-136.57,0-17.43.93-35-2-52.28s-10.39-33.18-23.66-44.73c-27.18-23.64-67-23.05-100.91-23.84-22.19-.52-44.45-.73-66.58,1.22a284.28,284.28,0,0,0-32.2,4.61c-9.74,2-19.82,4.28-28.73,8.86-16.48,8.47-23.26,25.58-28,42.45-5.87,20.78-11.42,41.66-17.28,62.44-11.93,42.32-24.37,84.5-37.68,126.41-13.24,41.7-27.35,83.14-42.68,124.14-15.44,41.28-32.11,82.1-50.37,122.21q-6.61,14.54-13.52,28.94a1.53,1.53,0,0,0,1.3,2.26h370.42c5,0,10.07.13,15.1,0h.65a1.5,1.5,0,0,0,0-3H803.28a33.18,33.18,0,0,0-5.18,0,4.7,4.7,0,0,1-.65,0l1.3,2.26Q826.61,711,850.09,650.87c15.78-40.1,30.28-80.7,43.84-121.59s26.21-82.21,38.26-123.64q9.06-31.18,17.73-62.49,4.33-15.64,8.6-31.3c2.4-8.78,4.69-17.68,8.53-26s9.27-15.66,17.14-20.46c8.62-5.26,18.86-7.62,28.63-9.73,21.36-4.64,43.24-6.2,65-6.53,20.56-.3,41.24.05,61.77,1.14,17.31.92,35,2.91,51.2,9.43,16.48,6.62,30.21,18.52,37.73,34.77,7.35,15.9,8.31,33.86,8.37,51.1.15,42.74-.61,85.49-3.53,128.14q-4.59,66.75-15.29,132.9-10.66,65.79-27.34,130.42c-2.68,10.39-5.44,20.77-8.61,31C1181.6,770,1184.49,770.74,1185.06,768.9Z"/><path d="M976.28,181.67c.75-7.39.65-15.06-1.82-22.15a41.3,41.3,0,0,0-10.29-15.86,52.09,52.09,0,0,0-34.45-14.29,51.39,51.39,0,0,0-34.11,11.55,52.73,52.73,0,0,0-18.38,30.38c-1.68,8.46-1.71,17.18-2.05,25.77l-1.07,26.74c-.07,1.93,2.93,1.93,3,0L878,201c.29-7.42.38-14.9,1.13-22.29a54.52,54.52,0,0,1,4.94-18.58,50.35,50.35,0,0,1,9.55-13.41,48.37,48.37,0,0,1,30.91-14.29,49.8,49.8,0,0,1,33.94,10.2,40.71,40.71,0,0,1,12.31,15.63c3.14,7.36,3.28,15.54,2.48,23.38-.2,1.92,2.8,1.91,3,0Z"/><path class="cls-1" d="M1044.57,462.37a9.87,9.87,0,0,1-2.45-.35c-11.76-1.53-23.66-.53-35.28,1.55-5.69,1-11.33,2.29-17,3.63-3.9.94-8.7,3-12.63,2.84.15-2.84,1.32-4.74.93-7.8-.57-4.4-1.58-8.74-2.11-13.15-3.2-26.26-1-52.94-5.49-79.08-1-5.64-1.49-12.56-5.29-16.88-3.93-4.48-8.93-8.42-13.64-12.05-9.58-7.37-20.44-13.62-32.34-16.28a64.4,64.4,0,0,0-34.17,2.14c-10.06,3.35-21.79,9.38-23.12,20.53-1.72,14.3-4.82,28.31-4.82,42.78a23.2,23.2,0,0,0,.48,6.1c1.06,6.75,4,13.52,9.91,17a41.13,41.13,0,0,0,13.6,4.59l.6.11c4.92.7,9.49.35,14.41,1.05.7,17.57,0,35.49.35,53.09a20.49,20.49,0,0,1-2.48-.64c-19.58-5-39.5-8.79-60.05-6.42-.75,0-1.68,0-2.51,0,4.06-.41-.81-.72-.94.09,5.9-38.78,4.85-77.42,7.66-116.42,1.24-14.82,3.08-29.52,6.72-43.75h0a143.08,143.08,0,0,1,10.81-29.15,82.81,82.81,0,0,1,22.93-27.7,89.78,89.78,0,0,1,8.53-5.9,94.8,94.8,0,0,1,15.26-7.51l5.27-2.1c4.22-1.06,8.43-2.46,12.79-3.51l9-1.85c2.49-.5,5-1,7.5-1.42a91.25,91.25,0,0,1,31.1-.6c9.13,1.5,18.19,5.81,25.7,11.16a72.52,72.52,0,0,1,19.1,20.28c5.13,8.11,8.54,17.18,11.38,26.3q1.52,4.86,2.75,9.78h0c1.59,6.28,2.86,12.63,3.88,19,1.56,9.81,2.54,19.72,3.18,29.64s1,19.89,1.24,29.84.46,20,.85,30,.94,20.23,2.12,30.27A184.68,184.68,0,0,0,1044.57,462.37Z"/><path class="cls-2" d="M1044.57,460.87c-1.72-.15-3.39-.49-5.11-.65q-3.51-.35-7-.42a113.65,113.65,0,0,0-14.29.65,218.83,218.83,0,0,0-27.71,5.08c-4.31,1-8.68,3.15-13.17,3l1.5,1.5c.19-2.66,1.22-5.1.93-7.8-.32-3-1-5.91-1.45-8.84a172.57,172.57,0,0,1-2-18.84c-.77-12.56-.83-25.14-1.46-37.7-.32-6.23-.78-12.46-1.53-18.66-.67-5.46-1.42-11-2.57-16.4a26.29,26.29,0,0,0-2.31-6.75,25,25,0,0,0-5.1-6.17,125.7,125.7,0,0,0-13.14-10.78c-9-6.62-19.08-12.12-30-14.65a65.86,65.86,0,0,0-35.39,2.05c-8,2.65-16.61,6.61-21.35,13.91-2.83,4.37-3,9.38-3.71,14.39-.89,6.2-1.91,12.38-2.69,18.59A175,175,0,0,0,855.69,391a33.33,33.33,0,0,0,3.51,15.18,21.15,21.15,0,0,0,10.74,10,47.26,47.26,0,0,0,16.69,3.76c3.06.15,6.14.15,9.18.57l-1.1-1.45c.69,17.69,0,35.4.35,53.09l1.9-1.45c-4.17-.92-8.29-2.11-12.46-3.05s-8.39-1.8-12.62-2.51a149.66,149.66,0,0,0-25.79-2.27c-4.87,0-9.71.54-14.57.76v3c1.16-.12,2.6-.11,3.06-1.41a1.49,1.49,0,0,0-.39-1.46c-1.21-1.31-4.49-.5-5.06,1.06l2.89.79c3.16-20.84,4.39-41.89,5.23-62.94s1.16-41.94,3.32-62.79a240.13,240.13,0,0,1,5.83-34.43l-1.84,1.05h.05a1.53,1.53,0,0,0,1.84-1.05c4.44-17.14,11.33-34.13,23.56-47.23,10.39-11.12,23.71-19,38-24,1.67-.59,3.46-.95,5.17-1.44,2.28-.66,4.57-1.33,6.87-1.91,1.8-.45,3.64-.78,5.45-1.16a200.71,200.71,0,0,1,19.89-3.45c9.48-1,19.43-.79,28.62,1.94a65.57,65.57,0,0,1,23.06,12.58,72.22,72.22,0,0,1,16.54,19.87c4.53,8,7.61,16.79,10.2,25.59.68,2.32,1.31,4.66,1.9,7a1.55,1.55,0,0,0,1.85,1.05h0l-1.84-1c5.42,21.64,7.09,43.94,7.88,66.17s.62,44.66,2.76,66.88a196.3,196.3,0,0,0,6.72,36.48c.54,1.85,3.44,1.06,2.89-.8-6.24-21.29-7.6-43.46-8.34-65.52-.75-22.38-.72-44.82-2.89-67.12a251.5,251.5,0,0,0-6.13-36.89,1.54,1.54,0,0,0-1.84-1.05h0l1.85,1.05a156.06,156.06,0,0,0-9.3-27.22A77.27,77.27,0,0,0,1003.89,243a71.58,71.58,0,0,0-22.06-15.07,67.67,67.67,0,0,0-28.2-5.12c-8.55.13-17,1.6-25.31,3.31-5.39,1.1-10.65,2.29-15.94,3.81-1.72.49-3.53.86-5.22,1.46-1,.35-2,.78-2.95,1.18-3,1.18-5.93,2.34-8.81,3.7a91.55,91.55,0,0,0-23,15.42,83.9,83.9,0,0,0-16,20,126.61,126.61,0,0,0-10.92,26.11q-1,3.44-1.93,6.9l1.84-1.05h0a1.55,1.55,0,0,0-1.85,1c-5.12,20.14-6.8,41-7.81,61.65-1,20.95-1.39,41.93-2.81,62.86-.81,11.93-2,23.84-3.76,35.66a1.5,1.5,0,0,0,2.89.79c-.41,1.11-.88.61-.35.66a3.8,3.8,0,0,0,.38,0,5.37,5.37,0,0,0,.57,0c.2,0,.18,0,0,0,.3.08.13,0-.51-.32l-.38-1.46v0l.69-.9c.34-.23.18,0-.07,0s-.52.07-.78.1c-1.87.2-2,3.09,0,3,4.22-.19,8.42-.64,12.65-.73a126.43,126.43,0,0,1,12.91.38,184.1,184.1,0,0,1,25.23,4c4.64,1,9.22,2.34,13.85,3.37a1.52,1.52,0,0,0,1.9-1.45c-.34-17.69.34-35.4-.35-53.09a1.52,1.52,0,0,0-1.1-1.44c-5.71-.78-11.49-.38-17.14-1.58-5-1.05-10.49-2.71-14.18-6.41-7.7-7.74-6.95-20.07-6.08-30,.53-6,1.41-11.89,2.3-17.81q.68-4.42,1.31-8.86a55.21,55.21,0,0,1,1.18-7.68c2.28-8,10.56-12.65,17.8-15.5a65.76,65.76,0,0,1,32.32-4.35c10.88,1.42,21,6.17,30.09,12.19a141,141,0,0,1,13,9.83c3.8,3.22,8,6.66,9.63,11.51,1.57,4.58,2.06,9.61,2.78,14.38.91,5.95,1.48,12,1.88,18,.8,12.06.9,24.15,1.43,36.23.26,6,.63,12,1.25,18,.3,2.92.67,5.83,1.17,8.72a68,68,0,0,1,1.42,8.93c.09,2.34-.84,4.59-1,6.92a1.51,1.51,0,0,0,1.5,1.5c4,.12,7.77-1.42,11.53-2.49,4.42-1.26,9-2.17,13.48-3.09a141.07,141.07,0,0,1,28.22-3.18q3.88,0,7.76.33c2.12.17,4.2.58,6.32.76C1046.49,464,1046.48,461,1044.57,460.87Z"/><path class="cls-1" d="M911.4,226.81l-10.86,2.91a2.81,2.81,0,0,1-3.44-2l-9.82-36.65a8.44,8.44,0,0,1,6-10.33h0a8.44,8.44,0,0,1,10.33,6l9.82,36.65A2.81,2.81,0,0,1,911.4,226.81Z"/><path d="M911,225.37l-10.34,2.77a1.58,1.58,0,0,1-2.21-1.17c-.29-1-.55-2-.82-3.05l-6.86-25.6c-.67-2.5-1.37-5-2-7.5A6.93,6.93,0,0,1,899,183c2.77,1.68,3.25,4.71,4,7.56l3.22,12,3.66,13.68c.66,2.44,1.52,4.92,2,7.41a1.36,1.36,0,0,1-.91,1.72c-1.82.61-1,3.51.8,2.89a4.46,4.46,0,0,0,2.94-5.63c-.29-1.13-.6-2.25-.9-3.38L910.28,206l-3.78-14.1c-.7-2.61-1.16-5.8-2.59-8.14-4.09-6.66-14.32-6.07-17.53,1.09-1.58,3.54-.5,6.84.43,10.31l7.36,27.46,1.17,4.37a5.79,5.79,0,0,0,1.75,3.37c1.94,1.58,4.11.77,6.22.21l7-1.87,1.52-.41A1.5,1.5,0,0,0,911,225.37Z"/><path class="cls-1" d="M978.19,470.08a27.77,27.77,0,0,1-7.5,6,86.94,86.94,0,0,1-15.81,6.32c-9.84,2.46-19.32,4.92-29.51,4.57-7.38-.35-14.41-1.4-20.73-6,0,0-5.7-4-8.08-8.88-.35-17.6.35-35.52-.35-53.09-4.92-.7-9.49-.35-14.41-1.05l-.6-.11a41.13,41.13,0,0,1-13.6-4.59c-5.88-3.44-8.85-10.21-9.91-17a38.91,38.91,0,0,1-.48-6.1c0-9.49,1.42-18.67,2.44-28.06,1-9,.7-21,6.5-28.43a198.73,198.73,0,0,0,14.16-20.51q1.25-2.12,2.45-4.25h.1c7.47-13.28,13.64-27.27,19.78-41.21a401.75,401.75,0,0,0,30.11,40.6h.15q5,5.92,10.22,11.65a169.3,169.3,0,0,0,18.2,17.63c7.34,5.95,9.26,13.86,10,23C973,380.1,974.83,399.51,976,419c.49,8.35.88,16.72,1.32,25.08.23,4.45.45,8.9.61,13.36C978,459.75,979.56,468.36,978.19,470.08Z"/><path class="cls-2" d="M977.13,469c-4.81,5.92-12.84,8.75-19.82,11.06a129.38,129.38,0,0,1-14.9,3.75,74.37,74.37,0,0,1-15.59,1.7c-7.75-.06-16.12-1.53-22.16-6.36a33.71,33.71,0,0,1-3.53-3.23c-1.12-1.19-3.09-3.07-3.09-4.77,0-5.32-.1-10.64-.07-16,0-12,.21-24.11-.26-36.15a1.52,1.52,0,0,0-1.1-1.44c-5-.68-10.07-.29-15-1.16A39.61,39.61,0,0,1,868.36,412c-7.31-4.33-9.62-13.84-9.65-21.77,0-10.11,1.75-20.08,2.64-30.13C862,352.45,862,344,865.8,337a50.7,50.7,0,0,1,4.22-5.9q2.55-3.37,5-6.85c3.26-4.7,6.26-9.56,9.08-14.53l-1.3.74h.1a1.49,1.49,0,0,0,1.29-.74c7.47-13.3,13.65-27.26,19.78-41.21h-2.59q7.21,11.1,15.12,21.71,3.9,5.22,8,10.32c1.36,1.71,2.74,3.41,4.12,5.1l2.1,2.52c.61.73,1.17,1.76,2.26,1.68l-1.06-.44c8,9.44,16.23,18.82,25.59,26.91a58.7,58.7,0,0,1,5.87,5.27,23,23,0,0,1,3.74,6c1.92,4.44,2.48,9.3,2.88,14.06,1.08,12.85,2.25,25.69,3.25,38.54s1.71,26,2.37,39c.19,3.62.38,7.23.56,10.85.13,2.88.11,5.79.41,8.65.2,2,.48,3.94.63,5.92a26.07,26.07,0,0,1,.1,3.06,3.77,3.77,0,0,1-.34,1.68c-1.12,1.58,1.48,3.08,2.59,1.52.86-1.23.79-3.09.75-4.52-.06-2-.3-4-.54-6-.61-5.22-.6-10.53-.88-15.78-.7-13.4-1.33-26.79-2.32-40.17s-2.22-26.69-3.35-40c-.44-5.26-.78-10.61-2.49-15.65a26.67,26.67,0,0,0-8.28-12.13,164.79,164.79,0,0,1-15.07-14.24c-2.49-2.64-4.93-5.34-7.34-8.06q-1.76-2-3.5-4l-1.89-2.21c-.51-.6-.94-1.23-1.83-1.17l1.06.44A405.3,405.3,0,0,1,903.93,267c-.55-.85-2.1-1.1-2.59,0-6.13,14-12.31,27.91-19.78,41.21l1.3-.74h-.1a1.51,1.51,0,0,0-1.3.74c-2.58,4.57-5.31,9-8.27,13.38-1.5,2.19-3.05,4.36-4.63,6.5-1.46,2-3.06,3.86-4.43,5.89-4.66,6.92-5,15.93-5.6,24-.8,10.13-2.6,20.15-2.8,30.32-.17,8.56,1.55,18.45,8.39,24.34,4,3.42,9.3,5.17,14.33,6.26,5.75,1.24,11.57.83,17.36,1.62l-1.1-1.45c.44,11.31.32,22.62.27,33.93,0,5.57,0,11.14,0,16.71a7.66,7.66,0,0,0,.49,3.69,19.74,19.74,0,0,0,1.74,2.61,29.89,29.89,0,0,0,4.07,4.27c6.08,5.32,13.61,7.49,21.56,8.08,10.79.81,21.3-1.69,31.7-4.29a75.91,75.91,0,0,0,16-6.22,26.9,26.9,0,0,0,8.63-6.7C980.46,469.66,978.35,467.52,977.13,469Z"/><path class="cls-1" d="M873.9,251.65l-7.95,8a2.81,2.81,0,0,1-4,0l-26.83-26.82a8.44,8.44,0,0,1,0-11.93h0a8.44,8.44,0,0,1,11.93,0l26.83,26.83A2.82,2.82,0,0,1,873.9,251.65Z"/><path d="M872.84,250.59l-7.57,7.57a1.59,1.59,0,0,1-2.51.11c-.76-.73-1.49-1.49-2.23-2.23l-18.66-18.66c-1.85-1.85-3.71-3.68-5.54-5.54a6.93,6.93,0,0,1,5.12-12c3.17.12,5.11,2.58,7.17,4.63l8.87,8.87,9.83,9.83c1.79,1.8,3.78,3.51,5.43,5.43a1.37,1.37,0,0,1,.09,1.94c-1.28,1.45.84,3.58,2.12,2.13a4.46,4.46,0,0,0-.26-6.35c-.79-.82-1.61-1.61-2.41-2.42l-9.69-9.69-10.35-10.34c-1.87-1.88-3.8-4.32-6.12-5.68a9.93,9.93,0,0,0-14.84,10c.52,3.66,3.08,5.89,5.52,8.33l20,20,3.23,3.24a5.68,5.68,0,0,0,3.38,2c2.38.28,3.78-1.45,5.28-2.95l5.1-5.1,1.12-1.11A1.5,1.5,0,0,0,872.84,250.59Z"/><path class="cls-1" d="M956.34,226.08,967.2,229a2.81,2.81,0,0,0,3.44-2l9.82-36.64a8.44,8.44,0,0,0-6-10.33h0a8.43,8.43,0,0,0-10.33,6l-9.82,36.65A2.81,2.81,0,0,0,956.34,226.08Z"/><path d="M955.94,227.53c3.58,1,7.14,2,10.75,2.88a4.43,4.43,0,0,0,5.44-3.17c.28-1,.52-1.93.77-2.9L980.22,197a63.11,63.11,0,0,0,1.92-7.51c1.08-7.92-7.48-13.79-14.51-10.1a10.1,10.1,0,0,0-4.94,6.3c-.27.95-.51,1.91-.77,2.86l-3.46,12.93-3.85,14.36-1.28,4.8a10.64,10.64,0,0,0-.58,2.66,4.44,4.44,0,0,0,3.19,4.2c1.83.61,2.62-2.28.8-2.89-1.34-.45-.94-1.63-.68-2.6l1-3.85,3.41-12.75L964,192.3c.56-2.08,1-4.2,1.69-6.25a6.93,6.93,0,0,1,13.51,1.55c.17,2.34-.92,5-1.52,7.21l-6.94,25.89-1.17,4.38A6.38,6.38,0,0,1,969,227c-.84,1.22-3.43,0-4.51-.3L958,225l-1.27-.34A1.5,1.5,0,0,0,955.94,227.53Z"/><path class="cls-1" d="M1000.75,254.68l-8-8a2.8,2.8,0,0,1,0-4l26.83-26.83a8.43,8.43,0,0,1,11.92,0h0a8.41,8.41,0,0,1,0,11.92l-26.82,26.83A2.81,2.81,0,0,1,1000.75,254.68Z"/><path d="M1001.81,253.62l-7.57-7.57a1.59,1.59,0,0,1-.11-2.5c.73-.76,1.49-1.49,2.24-2.23L1015,222.65c1.85-1.84,3.68-3.7,5.54-5.54a6.94,6.94,0,0,1,11.95,5.12c-.13,3.18-2.58,5.12-4.64,7.18l-8.87,8.86-9.83,9.84c-1.79,1.79-3.5,3.78-5.43,5.43a1.37,1.37,0,0,1-1.94.08c-1.44-1.27-3.57.84-2.12,2.12a4.46,4.46,0,0,0,6.35-.25c.81-.79,1.61-1.61,2.41-2.41l9.69-9.69L1028.49,233c1.88-1.88,4.31-3.8,5.67-6.12a9.92,9.92,0,0,0-10-14.84c-3.66.51-5.88,3.07-8.32,5.51l-20.05,20-3.23,3.23a5.7,5.7,0,0,0-2.05,3.38c-.28,2.38,1.46,3.78,3,5.28l5.11,5.1,1.11,1.11A1.5,1.5,0,0,0,1001.81,253.62Z"/><path class="cls-1" d="M1036.31,296.5a5,5,0,0,0,4.89-6c-10.37-51.8-52.7-90.87-103-90.87h0c-50.25,0-92.57,39.07-103,90.87a5,5,0,0,0,4.89,6Z"/><path class="cls-2" d="M1036.31,298a6.59,6.59,0,0,0,6.34-5.12,10.88,10.88,0,0,0-.37-4.6q-.49-2.29-1.08-4.59a124.66,124.66,0,0,0-5.9-17.44,119.33,119.33,0,0,0-18.82-30.66,109.88,109.88,0,0,0-26.33-22.68A100.36,100.36,0,0,0,958,200.11a98.25,98.25,0,0,0-67.6,10.45,108.86,108.86,0,0,0-27.33,21.58,118,118,0,0,0-19.84,29.59A122.67,122.67,0,0,0,836.61,279q-1.35,4.5-2.35,9.11a11.77,11.77,0,0,0-.46,4.45,6.55,6.55,0,0,0,2,3.73c2.2,2,4.94,1.71,7.65,1.71h192.85a1.5,1.5,0,0,0,0-3H840.25a3.54,3.54,0,0,1-3.33-2.29c-.51-1.34,0-2.83.31-4.16.33-1.48.68-2.95,1.06-4.41a119.42,119.42,0,0,1,14-32.85,112.3,112.3,0,0,1,22.37-26.17,101.26,101.26,0,0,1,28.63-17.35,94.89,94.89,0,0,1,66.8-1.17A100.46,100.46,0,0,1,999.26,223a111.47,111.47,0,0,1,23.09,25.41,119,119,0,0,1,14.91,32.28q1.21,4.17,2.13,8.42c.29,1.36.69,2.7,0,4a3.49,3.49,0,0,1-3.1,1.91C1034.38,295.07,1034.38,298.07,1036.31,298Z"/><path d="M834.28,219.61c-8.31-.26-16.12,3.4-22.19,8.91-6.74,6.12-11,14.31-13.52,23-2.81,9.57-3.69,19.6-4.65,29.48q-1.59,16.41-2.75,32.85-2.31,33-2.82,66.14c-.17,11-.1,22-.12,33,0,10.84-.51,21.63-1.57,32.43-1,10.36-2.71,20.73-6.24,30.57a73.13,73.13,0,0,1-6.74,14c-2.09,3.36-4.39,6.86-7.66,9.2a14.21,14.21,0,0,1-5.42,2.36c-1.89.4-1.09,3.29.8,2.9,8.38-1.77,13.44-9.93,17.19-17,4.85-9.08,7.71-19.07,9.41-29.18,3.58-21.3,3.12-42.87,3.21-64.38q.13-32.82,2-65.61,1-16.45,2.36-32.88c.89-10.48,1.65-21.05,3.3-31.44,1.49-9.38,4-18.91,9.51-26.78,4.72-6.75,11.72-12.33,19.88-14.1a25.06,25.06,0,0,1,6-.51c1.93.06,1.93-2.94,0-3Z"/><path d="M894.82,178.84c-.61-11.29-8-21.43-18-26.43a29.69,29.69,0,0,0-16.18-3.18,34.35,34.35,0,0,0-16.26,6.31c-10.55,7.53-16.65,19.25-19.74,31.6a141.31,141.31,0,0,0-3.28,21c-.73,7.75-1.21,15.53-1.53,23.31-1.27,31.7.35,63.42.14,95.13a447.7,447.7,0,0,1-2.12,45.15c-1.5,13.84-4.25,27.69-9.58,40.6-9.37,22.68-29.42,43.53-55,45.82a50.71,50.71,0,0,1-8.8,0c-1.92-.17-1.91,2.84,0,3,24.26,2,46.73-13.58,59.26-33.42,14.84-23.52,17.68-52.4,18.78-79.53,1.26-31.2-.28-62.42-.14-93.63.07-15.41.55-30.83,2-46.18,1.27-13.6,3.46-27.91,11.24-39.49,6.43-9.56,17.18-17.41,29.16-16.76,11,.59,21.36,8.5,25.34,18.72a26,26,0,0,1,1.73,8c.1,1.92,3.1,1.93,3,0Z"/><path d="M833.69,405.65A92.27,92.27,0,0,1,806,427.52c-11.44,5.89-24,9-36.67,10.76-7.45,1.07-15,1.72-22.46,2.38-1.91.17-1.92,3.17,0,3,13.51-1.18,27.12-2.38,40.27-5.83a96.77,96.77,0,0,0,33.63-16,94.61,94.61,0,0,0,15-14c1.25-1.45-.86-3.58-2.12-2.12Z"/><path d="M749.33,485.39a87.15,87.15,0,0,0,40.79-8.78,91.81,91.81,0,0,0,32.56-26.18A84.9,84.9,0,0,0,834.48,430c.72-1.79-2.18-2.57-2.89-.8a83.86,83.86,0,0,1-23.75,32.41A89.09,89.09,0,0,1,772,480a81.13,81.13,0,0,1-22.7,2.39c-1.93-.07-1.93,2.93,0,3Z"/><rect class="cls-1" x="204.2" y="231.15" width="546.4" height="307.2"/><path d="M750.6,536.85H212.44c-2.39,0-4.93-.24-7.31,0-.3,0-.62,0-.93,0l1.5,1.5V235.81a20.55,20.55,0,0,0,0-4.15,2.9,2.9,0,0,1,0-.51l-1.5,1.5H742.36c2.39,0,4.93.24,7.31,0,.3,0,.62,0,.93,0l-1.5-1.5V525.74c0,4-.24,8.1,0,12.1,0,.17,0,.34,0,.51a1.5,1.5,0,0,0,3,0V243.76c0-4,.24-8.1,0-12.1,0-.17,0-.34,0-.51a1.52,1.52,0,0,0-1.5-1.5H226.38c-7.08,0-14.17-.12-21.25,0h-.93a1.52,1.52,0,0,0-1.5,1.5V525.74c0,4-.24,8.1,0,12.1,0,.17,0,.34,0,.51a1.52,1.52,0,0,0,1.5,1.5H728.42c7.08,0,14.17.12,21.25,0h.93A1.5,1.5,0,0,0,750.6,536.85Z"/><rect class="cls-1" x="751" y="437" width="10.5" height="7"/><path d="M761.5,442.5H751l1.5,1.5v-7l-1.5,1.5h10.5L760,437v7a1.5,1.5,0,0,0,3,0v-7a1.52,1.52,0,0,0-1.5-1.5H751a1.52,1.52,0,0,0-1.5,1.5v7a1.52,1.52,0,0,0,1.5,1.5h10.5a1.5,1.5,0,0,0,0-3Z"/><rect class="cls-1" x="751" y="453" width="10.5" height="7"/><path d="M761.5,458.5H751l1.5,1.5v-7l-1.5,1.5h10.5L760,453v7a1.5,1.5,0,0,0,3,0v-7a1.52,1.52,0,0,0-1.5-1.5H751a1.52,1.52,0,0,0-1.5,1.5v7a1.52,1.52,0,0,0,1.5,1.5h10.5a1.5,1.5,0,0,0,0-3Z"/><rect class="cls-1" x="751" y="480" width="10.5" height="7"/><path d="M761.5,485.5H751l1.5,1.5v-7l-1.5,1.5h10.5L760,480v7a1.5,1.5,0,0,0,3,0v-7a1.52,1.52,0,0,0-1.5-1.5H751a1.52,1.52,0,0,0-1.5,1.5v7a1.52,1.52,0,0,0,1.5,1.5h10.5a1.5,1.5,0,0,0,0-3Z"/><rect class="cls-1" x="751" y="499" width="10.5" height="7"/><path d="M761.5,504.5H751l1.5,1.5v-7l-1.5,1.5h10.5L760,499v7a1.5,1.5,0,0,0,3,0v-7a1.52,1.52,0,0,0-1.5-1.5H751a1.52,1.52,0,0,0-1.5,1.5v7a1.52,1.52,0,0,0,1.5,1.5h10.5a1.5,1.5,0,0,0,0-3Z"/><g id="Layer_2-2" data-name="Layer 2"><path class="cls-1" d="M1071,769c4.17-16.07,7.43-32.41,10.66-48.7,11.13-56,31.19-120.83,24.42-178.83q-.83-7.1-2.21-14.05c-3-15.12-8-23.54-14.2-36.18-2.77-3.4-5.38-7.56-8.48-11a90.05,90.05,0,0,0-7.71-7,94.54,94.54,0,0,0-18.3-9c-3.76-.79-7.45-1.86-11.27-2.3a94.6,94.6,0,0,0-16.48-.93c-16.41.9-32.46,4.48-48.32,8.66-2.8,2.15-5.35,4.88-8.43,6.58-5.08,2.79-10.41,4.5-15.78,6.52-9.82,2.15-19.42,4.68-29.6,4.53-7.37-.12-14.11-2.43-20.61-5.88a38.8,38.8,0,0,1-7.74-8.6c-21.67-6.24-44.14-11.66-66.83-7.53a32,32,0,0,0-6.75,1.88c-14.73,5.9-22.72,17.75-28.46,32-17.13,42.51-21.41,89.44-32.34,134.07C751.16,679.9,736.4,726,714.73,769Z"/><path d="M1072.46,769.4c4-15.6,7.22-31.4,10.36-47.2,2.81-14.11,6-28.15,9.15-42.19,6.49-28.86,12.91-57.87,15.67-87.38a257.3,257.3,0,0,0,.72-43.09c-1-14-3.26-28.1-8.75-41.1-2.46-5.82-5.39-11.41-8.19-17.06a29.47,29.47,0,0,0-2.91-4.12c-1.11-1.51-2.2-3-3.34-4.52a51.3,51.3,0,0,0-7.45-7.86,49.61,49.61,0,0,0-8.64-6,99,99,0,0,0-9.53-4.55c-6.94-2.88-14.54-3.93-22-4.58-15.58-1.35-31.63,1.89-46.73,5.43-3.81.89-7.62,1.79-11.39,2.84a9.83,9.83,0,0,0-3.71,2.5,45.26,45.26,0,0,1-4.67,3.74A51.64,51.64,0,0,1,960.86,479a79.93,79.93,0,0,1-10.65,3.3c-7.59,1.7-15.23,3.39-23,3.51a41.22,41.22,0,0,1-21.11-5.35c-2.95-1.72-5.55-5-7.45-7.83-.88-1.29-1.91-1.43-3.4-1.85q-3-.87-6.1-1.7a222,222,0,0,0-23-5.06,121.32,121.32,0,0,0-22.6-1.61c-7.1.22-14.7.87-21.32,3.63-10.86,4.53-18.93,13-24.42,23.31-6.54,12.22-10.64,26-14.33,39.28-4,14.56-7.16,29.36-10.06,44.19s-5.6,29.8-8.77,44.62-7,29.66-11.08,44.32c-8.24,29.45-18.12,58.5-30.61,86.44q-4.54,10.15-9.54,20.08a1.52,1.52,0,0,0,1.3,2.26H1056.5c4.64,0,9.28.1,13.92,0h.59a1.5,1.5,0,0,0,0-3H720.07c-1.55,0-3.2-.15-4.74,0-.2,0-.4,0-.6,0l1.29,2.26a548.89,548.89,0,0,0,30.37-74.12,739.2,739.2,0,0,0,21.16-77.44c5.57-26,9.63-52.26,16-78.06a312.39,312.39,0,0,1,11.62-37.6c3.83-9.88,8.64-19.61,16.74-26.7a40.08,40.08,0,0,1,14.21-8.09c6.26-1.94,13.15-2.37,19.66-2.42,13.81-.12,27.43,2.62,40.71,6.13,3.37.88,6.72,1.82,10.06,2.78l-.9-.69a40.59,40.59,0,0,0,7,8c2.69,2.42,6.64,3.78,10,4.93,7.59,2.58,15.42,2.61,23.29,1.54a114.7,114.7,0,0,0,24-5.59,84.46,84.46,0,0,0,10.82-4.6,27.86,27.86,0,0,0,4.48-3.05c1.47-1.2,3-3,4.66-3.81a34.59,34.59,0,0,1,5.8-1.52q3.3-.83,6.62-1.6c4.18-1,8.37-1.86,12.59-2.63,8.6-1.58,17.49-2.94,26.25-2.85a108.13,108.13,0,0,1,12.71,1,54,54,0,0,1,12.2,2.74,95.65,95.65,0,0,1,11.44,5.3,50.34,50.34,0,0,1,9.87,7.16,61.81,61.81,0,0,1,8.08,9.59,42,42,0,0,1,3.17,4.38c.92,1.68,1.71,3.44,2.57,5.15a142.19,142.19,0,0,1,8.13,18.5c5.06,15.17,6.42,31.71,6.56,47.61.29,32.4-5.75,64.51-12.58,96-3.37,15.55-7,31-10.35,46.59-3.54,16.47-6.54,33-10.34,49.45q-1.49,6.36-3.11,12.66A1.51,1.51,0,0,0,1072.46,769.4Z"/></g><rect class="cls-3" width="1366" height="768"/></g></g></svg>