<svg xmlns="http://www.w3.org/2000/svg" viewBox="0 0 1204.36 938.49"><defs><style>.cls-1{fill:#231f20;}.cls-2{fill:none;}</style></defs><title>jisoo-shadow_1</title><g id="Layer_2" data-name="Layer 2"><g id="Layer_7_copy_2" data-name="Layer 7 copy 2"><g id="Layer_19_copy" data-name="Layer 19 copy"><g id="Layer_21_copy" data-name="Layer 21 copy"><path class="cls-1" d="M455.82,49.13A1584.05,1584.05,0,0,1,919.65,4.67c18.13,1,36.63,2.32,53.29,9.71L952.65,172.23,477,210Z"/><path class="cls-1" d="M456.48,51.54q49.61-12.27,99.93-21.38T657.64,15.25q50.6-5.79,101.5-8.32T860.86,5.18q25.42.38,50.82,1.59c16.15.77,32.57,1.31,48.24,5.64a87.2,87.2,0,0,1,11.76,4.13l-1.24-2.16-6.87,53.45-10.93,85.06-2.49,19.34,2.5-2.5-12.76,1-34.58,2.75L854,177.56l-62.37,5L723.32,188l-68.94,5.47-64.53,5.13-54.52,4.33-39,3.1c-6.09.49-12.47.48-18.5,1.47a7.2,7.2,0,0,1-.8.07l2.5,2.5-7.17-54.48-11.42-86.7-2.59-19.71c-.42-3.15-5.42-3.19-5,0l7.17,54.47,11.41,86.7L474.5,210c.16,1.25,1,2.62,2.5,2.5l12.77-1,34.57-2.74,51.32-4.08,62.37-5,68.3-5.42,68.95-5.48,64.53-5.13,54.51-4.33,39-3.1c6.16-.49,12.34-.93,18.5-1.47l.79-.06a2.6,2.6,0,0,0,2.5-2.5L962,118.77,973,33.71l2.48-19.33a2.39,2.39,0,0,0-1.24-2.16c-14.74-6.44-30.64-8.54-46.56-9.59C910.72,1.52,893.76.93,876.81.5q-51.6-1.3-103.21.78Q722.23,3.37,671.05,8.77T568.88,22.91Q518,31.63,467.82,43.63q-6.35,1.51-12.67,3.09C452,47.49,453.35,52.31,456.48,51.54Z"/><path class="cls-2" d="M391.83,511.59c-40,17.06-70,54.47-81.82,96.38-3.53,12.47-4.15,25.1-10.08,36.58-5.19,10-13,23.55-24.84,26.55-17.54,4.43-28.57-17.43-31.58-31.43-3.88-18-2.25-36.88-1.78-55.13.56-22.12,2.18-44.25,6-66.07C260,447.78,294.33,374.2,285.85,301.22a177.15,177.15,0,0,0-8.94-38.89,37.06,37.06,0,0,0-1.37-3.56c-25.26-52-75.89-107.22-74.85-167.27.11-6.26,2-15-1.72-20.53-5.48-8.1-14.36-10-21.51-2-18.08,20.17-6,64.82,3.67,86.62,3,6.78,6,12.51,9.56,19.53,1.79,3.48,8.34,12.83,6.1,16.9s-5.77,2.61-8.7.95c-7.05-4-13.82-10-17.83-16.87-10.4-17.93-16.68-37.21-19.87-57.55-2.59-16.56-1.07-33.7-5.6-50.2-1.55-5.66-7.24-11.49-13.72-9.94-8.81,2.12-12.66,6.68-14,16.53-6.37,47.63-2.3,77.66,31,114.48,3.72,4.1,6.48,6.32,7.86,11.06s.7,10-4.65,11.51c-6.45,1.78-10.86-1.24-15.94-6.16C100.56,172.13,95.74,144,92.78,97.63c-.54-8.55.43-14-.92-21.19S87.2,63.09,80.07,62.59c-9.57-.67-15.43,5.28-17.43,14.61-4.38,20.29-6.42,38.33-1,59.39S78.14,178.2,89.24,197.2c2.69,4.59,6.19,9.83,5.36,15-.93,5.87-5.17,8.34-10.72,7.85a22.48,22.48,0,0,1-14.55-6.55c-24.21-24.29-28.8-58.76-26.92-91.68.43-7.42,1.77-14.65-.69-21.73S33.46,87.05,25.66,88.72c-9.59,2.06-13.3,10.86-14.24,19.89A183.47,183.47,0,0,0,34.19,217.18s0,.07,0,.09c-3.22,1.29-5.23-.55-7.94-2.08s-5.12-3.81-8.21-4.44c-5-1-9.78-.13-13.15,3.77S-.81,222.67.27,227.93C3,241.26,10,250,21.54,257.22s24.16,10.41,36.71,15.95c11.89,5.25,22.24,12.5,30.57,22.75,0,.13.07.25.1.37a109.88,109.88,0,0,1,3.48,18,166.45,166.45,0,0,1,1.08,21.05c-.8,59.72-32.62,121.72-47.16,176.15C30.25,571.66,19.49,628.07,20.18,686.16c.59,50.53,5.76,94.41,22.65,140.07,5.54,15,11,29.6,16.8,43.81,9.92,24.29,20.79,47.3,34.57,68.45H391.06C390.23,796.32,391.32,654,391.83,511.59ZM48.63,235.68c8.69,10.83,17.41,21.6,25.26,33C66,257.29,57.32,246.51,48.63,235.68ZM87,290.32c-.57-1.11-1.17-2.2-1.77-3.3.59,1.1,1.2,2.18,1.77,3.29.13.26.26.54.38.84A9.06,9.06,0,0,0,87,290.32Zm.43,1a28,28,0,0,1,.87,2.76C88,293.11,87.76,292.15,87.43,291.29Z"/><path class="cls-2" d="M1199.24,722.06c-3.31-34.1-4-28-6.44-40-8.62-43-22.7-67-40.4-103-7.9-9.67-15.32-21.5-24.14-31.29-6.59-7.33-14.55-13.46-21.94-20a270.47,270.47,0,0,0-52.1-25.65c-10.69-2.24-21.2-5.26-32.08-6.54-15.66-1.84-31.07-3.51-46.9-2.64-46.71,2.56-92.41,12.77-137.54,24.65-8,6.12-15.24,13.9-24,18.72-14.46,8-29.64,12.81-44.93,18.57-28,6.11-55.27,13.33-84.24,12.88-21-.32-40.18-6.9-58.68-16.74-8.54-7.4-16-14.92-22-24.47-61.67-17.75-125.65-33.19-190.23-21.42a91.82,91.82,0,0,0-19.21,5.34c-.86.34-1.71.71-2.56,1.07-.51,142.39-1.6,284.73-.77,426.9h737.41c13.16-4.77,25.71-10.78,36.82-19.25C1216.32,880.31,1204.69,778.22,1199.24,722.06Z"/></g></g></g></g></svg>