<svg xmlns="http://www.w3.org/2000/svg" viewBox="0 0 1206.93 929.12"><defs><style>.cls-1{fill:#fff;}.cls-2{fill:none;}</style></defs><title>jisoo-body</title><g id="Layer_2" data-name="Layer 2"><g id="Layer_7_copy_2" data-name="Layer 7 copy 2"><g id="Layer_19_copy_2" data-name="Layer 19 copy 2"><g id="Layer_37" data-name="Layer 37"><path class="cls-1" d="M1000.59,311.37c-1.12-28.48-1.68-57-2.42-85.46-.75-28.32-1.67-56.65-3.52-84.93S990,84.55,985.59,56.6c-2.89-18.2-6.53-36.28-11-54.15-7.95,1.07-15.91,2.39-23.87,4.28-167,39.82-325.58,57-494.87,30.48-10.37,40.49-15.61,82.33-19.13,124.52-8,111-5,221-21.82,331.37.37-2.29,14.25-1.4,2.7-.24,2.36-.13,5-.13,7.12-.13,58.52-6.72,115.2,4.06,170.93,18.28a56.86,56.86,0,0,0,7.07,1.83c-1-50.11,1-101.11-1-151.11-14-2-27-1-41-3-.57-.1-1.15-.19-1.72-.3-13.32-2.34-27-6.23-38.71-13.07-16.73-9.8-25.18-29.07-28.21-48.28a66.37,66.37,0,0,1-1.36-17.35c0-41.21,8.83-81.07,13.7-121.76,3.8-31.75,37.2-48.93,65.81-58.45,31.21-10.39,65.18-13.27,97.28-6.1,33.86,7.56,64.78,25.36,92.06,46.35,13.41,10.32,27.62,21.53,38.83,34.28,10.82,12.31,12.31,32,15,48.06,12.69,74.39,6.52,150.35,15.62,225.1,1.52,12.55,4.38,24.9,6,37.41,1.13,8.71-2.22,14.14-2.65,22.21,11.2.55,24.88-5.4,36-8.06,16-3.84,32-7.47,48.24-10.36,33.09-5.9,66.95-8.76,100.41-4.41,1.9.82,5.71.87,7,1-8.42-28.55-13.87-57.92-17.34-87.47C1003.27,368.94,1001.72,340.13,1000.59,311.37Z"/><path d="M1003.09,311.37c-1.59-40.81-2.05-81.66-3.56-122.48-1.48-40.29-4-80.59-9.66-120.54A643.64,643.64,0,0,0,977,1.78,2.57,2.57,0,0,0,973.9,0c-17.14,2.33-33.82,6.7-50.67,10.49s-33.89,7.38-50.91,10.71c-33.24,6.5-66.67,12-100.26,16.29C705.6,46,638.49,49.37,571.54,46.34A1056.79,1056.79,0,0,1,456.48,34.8a2.55,2.55,0,0,0-3.07,1.74c-14.62,57.37-19.34,116.67-22.2,175.62-2.91,59.79-4,119.67-8.06,179.4-2.31,33.75-5.61,67.43-10.69,100.88-.47,3.13,3.77,4.44,4.82,1.33-.42,1.24-.87.57.16.64.5,0,1.15-.18,1.66-.2s1.07,0,1.59,0,.6.2.18-.09l-1.14-1.5v.07l.26-1.93c1.41-1.83,1.31-.67.17-.72a21,21,0,0,0-2.6.34c-3.13.33-3.27,5.16,0,5,11.95-.56,23.87-1.81,35.85-2.09a364.82,364.82,0,0,1,36.52,1.05c24.37,1.9,48.51,6,72.36,11.29,13.32,2.93,26.44,6.68,39.73,9.64a2.52,2.52,0,0,0,3.16-2.41c-1-50.36,1-100.76-1-151.11a2.52,2.52,0,0,0-1.83-2.41c-16.7-2.29-33.57-1.1-50.11-4.76-14.25-3.15-29.73-8.1-40.18-18.8-21.73-22.26-20-57-17.52-85.54,1.49-17.38,4.05-34.63,6.65-51.87,1.23-8.16,2.47-16.32,3.61-24.49,1-7.45,1.39-15.22,3.43-22.48,6.6-23.58,30.66-37.22,51.93-45.58C589.21,94.38,621,89.38,652,93.25s59.9,17.1,85.77,34.08A406,406,0,0,1,774.68,155c11.18,9.32,24,19.52,29.17,33.55,4.74,12.73,6,26.8,8.12,40.15,2.74,17.38,4.48,34.91,5.67,52.46,2.35,34.4,2.63,68.89,4.11,103.33.73,17,1.76,34,3.47,51,.86,8.49,1.9,17,3.35,25.36,1.47,8.57,3.74,17.36,4.17,26.06.33,6.79-2.38,13.27-2.85,20a2.53,2.53,0,0,0,2.5,2.5c11.36.38,22.2-4.17,33-7.19,12.58-3.53,25.52-6.13,38.33-8.72,26.39-5.34,53.21-9.06,80.18-9,7.32,0,14.64.3,21.93.91,6.12.51,12.1,1.66,18.2,2.2a2.51,2.51,0,0,0,2.41-3.16c-12.79-43.62-18.56-88.76-21.38-134-.81-13-1.4-26-1.92-38.95-.12-3.2-5.12-3.22-5,0,1.81,45.81,4.81,91.72,14.11,136.7q3.93,19,9.37,37.61l2.41-3.17c-5.11-.45-10.11-1.45-15.24-1.94-6.7-.64-13.42-1-20.14-1.12a324.57,324.57,0,0,0-39.68,1.83c-26.64,2.79-52.87,8.31-78.89,14.52-12.33,2.93-24.77,9-37.64,8.53l2.5,2.5c.53-7.55,3.52-14.53,2.65-22.21-1-8.65-2.79-17.2-4.25-25.77-3-17.91-4.42-36.12-5.51-54.24-2.15-35.6-2.32-71.28-4.15-106.9-.91-17.79-2.24-35.56-4.43-53.24-1.89-15.23-4-30.73-7.23-45.73a69.81,69.81,0,0,0-6.91-19.49c-3.5-6.22-8.74-11.34-13.83-16.25-11.49-11.08-24.26-21-37.11-30.41-25.48-18.68-54-34.23-85-41.35-32.54-7.47-67-4.81-98.57,5.52-22.58,7.37-47.3,18.45-60.72,39.08C502,148,501.5,162,499.5,176,497,193.36,494.19,210.63,492,228a533.51,533.51,0,0,0-3.84,53.43c-.21,7.65,1.06,15.28,2.73,22.73A86.54,86.54,0,0,0,497.8,324c6.48,12.95,16.63,22.11,29.81,27.92,14.88,6.57,31,9.79,47.21,10.57,8.75.43,17.52.48,26.21,1.67l-1.84-2.41c2,50.35,0,100.75,1,151.11l3.17-2.41c-11.78-2.62-23.42-6-35.21-8.63-12-2.72-24.12-5.17-36.29-7.22-24.17-4.07-48.66-6.57-73.2-6.39-13.74.11-27.39,1.53-41.09,2.17v5c1.94-.2,5.49-.07,6.69-2s-.3-3.59-2.12-4c-3-.65-8.53-.29-9.68,3.1l4.82,1.33c9-59.16,12.44-118.93,14.83-178.67s3.31-119.79,9.5-179.34C445,102.82,450,70,458.23,37.87l-3.08,1.75A1082,1082,0,0,0,660.08,51.74C727.53,49.35,794.67,40.93,861,28.49q28.41-5.32,56.62-11.59c19.17-4.23,38.16-9.39,57.64-12l-3.08-1.75c9.72,38.77,15.3,78.4,18.56,118.2,3.31,40.4,4.39,80.94,5.39,121.45.56,22.88,1.1,45.75,2,68.61C998.22,314.58,1003.22,314.59,1003.09,311.37Z"/><path class="cls-1" d="M563.41,48.45c-2.29,4-4.6,8.09-7,12.1a566.44,566.44,0,0,1-40.29,58.36c-16.52,21.29-15.75,55.36-18.52,81-2.9,26.71-6.93,52.83-6.93,79.86a110.45,110.45,0,0,0,1.36,17.35c3,19.21,11.48,38.48,28.21,48.28,11.68,6.84,25.39,10.73,38.71,13.07.57.11,1.15.2,1.72.3,14,2,27,1,41,3,2,50,0,101,1,151.11,6.78,13.85,23,25.27,23,25.27,18,13,38,16,59,17,29,1,56-6,84-13,16-5,30-10,45-18,0,0,13.47-7.2,21.36-17.16,3.89-4.9-.57-29.4-.8-36-.46-12.68-1.07-25.36-1.74-38-1.26-23.79-2.35-47.6-3.76-71.38-3.28-55.47-8.59-110.73-13.19-166-2.17-26-7.64-48.55-28.54-65.49-18.7-15.17-35.59-32.41-51.8-50.18q-14.87-16.29-29.09-33.15A1118.49,1118.49,0,0,1,563.41,48.45Z"/><path d="M561.25,47.18c-7.33,13-15.12,25.71-23.53,38q-6.26,9.17-12.86,18.09c-4.13,5.59-8.64,11-12.58,16.68-13.27,19.22-14.25,44.49-16,67-2.24,28.64-7.29,57-8,85.78-.59,24.23,3.73,52.11,22.9,69.08,11,9.71,26.08,14.58,40.16,17.65a142.12,142.12,0,0,0,24.06,3c8.55.39,17.13.47,25.63,1.64l-1.84-2.41c1.56,39.37.69,78.77.7,118.15,0,9.83.07,19.65.24,29.48,0,2.11-.09,3.84.91,5.73a44.58,44.58,0,0,0,2.9,4.77,71.78,71.78,0,0,0,6.94,8.51,86.87,86.87,0,0,0,27.22,19.81c15.12,6.83,32.07,9.12,48.55,9.49,18.72.41,37.32-2.53,55.55-6.58,18-4,35.8-8.65,52.95-15.6,11.73-4.76,23.14-10.17,33-18.2,4.11-3.35,9.55-7.5,10.52-13,.94-5.3.38-10.88-.12-16.19s-1.28-10.34-1.71-15.52c-.71-8.66-.73-17.42-1.15-26.1-1.94-39.56-3.82-79.14-6.67-118.65s-6.47-79.15-9.83-118.71c-1.34-15.79-2.14-31.88-7.26-47a75.22,75.22,0,0,0-9.27-18.84A81.62,81.62,0,0,0,787,126.76c-28.79-23.68-53.78-52-77.82-80.34-1.84-2.17-2.71-2.25-5.53-2l-7.5.52q-7.5.49-15,.9-14.52.78-29,1.19-29.66.84-59.33.1-14.67-.37-29.33-1.14c-3.22-.17-3.21,4.83,0,5a1111.7,1111.7,0,0,0,111.2.18q15.78-.77,31.52-1.94l-1.77-.73c20.74,24.54,42.17,48.85,66,70.48,10.39,9.44,22.28,17.41,29.81,29.52,6.51,10.49,9.75,22.51,11.54,34.63,2.29,15.56,3,31.44,4.33,47.11q2.19,25.4,4.35,50.78c2.81,33.7,5.25,67.41,7,101.17.9,16.93,1.71,33.86,2.61,50.78.44,8.51.87,17,1.24,25.52.25,5.74.28,11.5.92,17.21.54,4.85,1.17,9.68,1.58,14.54.35,4.26.86,8.89,0,13.12-.38,2-1.35,3-2.76,4.48a63.38,63.38,0,0,1-7.26,6.64,83.37,83.37,0,0,1-10.69,7.16c-12,6.7-24.94,11.57-37.93,15.83-15.21,5-31.15,8.49-46.88,11.43s-31.82,4.53-47.88,3.52c-14.27-.9-28.73-3.13-41.71-9.42a83,83,0,0,1-22.32-16.13,78,78,0,0,1-6-6.69c-1.73-2.18-4.39-5.18-5.15-7.9-.43-1.55-.07-3.76-.09-5.38,0-2.16-.06-4.32-.09-6.48q-.06-6.5-.09-13c-.13-33.75.57-67.5,0-101.25q-.21-12.21-.69-24.41a2.53,2.53,0,0,0-1.83-2.41c-14.45-2-29.23-.84-43.59-3.45-13.12-2.39-26.43-6.06-37.9-13.06-20.89-12.74-27.62-40.2-27.68-63.08-.07-28.94,5-57.44,7.54-86.19,1.92-22,1.91-46.21,12.83-66.11,3.36-6.14,8-11.48,12.22-17.05q7.1-9.45,13.85-19.14c9.32-13.43,17.91-27.3,25.94-41.53C567.15,46.9,562.83,44.38,561.25,47.18Z"/><path class="cls-1" d="M1199.24,710.14c-3.31-34.1-4-28-6.44-40-8.62-43-22.7-67-40.4-103-7.9-9.67-15.32-21.5-24.14-31.29-6.59-7.33-14.55-13.46-21.94-20a270.47,270.47,0,0,0-52.1-25.65c-10.69-2.24-21.2-5.26-32.08-6.54-15.66-1.84-31.07-3.51-46.9-2.64-46.71,2.56-92.41,12.77-137.54,24.66-8,6.11-15.24,13.9-24,18.72-14.46,8-29.64,12.8-44.93,18.56-28,6.11-55.27,13.33-84.24,12.89-21-.33-40.18-6.9-58.68-16.74-8.54-7.41-16-14.93-22-24.48-61.67-17.75-125.65-33.19-190.23-21.41a91.13,91.13,0,0,0-19.21,5.33c-41.27,16.52-72.27,54.65-84.38,97.45-3.53,12.47-4.15,25.1-10.08,36.59s-17.89,31-33.86,26.48a25.49,25.49,0,0,1-3.38-1.22V926.57h865.78c13.16-4.76,25.71-10.77,36.82-19.25C1216.32,868.39,1204.69,766.3,1199.24,710.14Z"/><path d="M1201.74,710.14a336.92,336.92,0,0,0-14.55-71.6c-5.29-16.24-12.35-31.79-19.91-47.09-2-4.14-4.11-8.26-6.17-12.38-2.15-4.28-3.95-9.16-6.55-13.16s-6-7.69-8.79-11.57c-3.08-4.22-6.14-8.45-9.36-12.57-6.53-8.35-14-15.4-22.07-22.26s-16.69-12-26-16.92a283.84,283.84,0,0,0-28.56-12.91c-9.71-3.77-20.68-5.76-31-7.51-44.22-7.52-88.8-1.8-132.37,7.05q-16.71,3.4-33.27,7.47-7.86,1.9-15.68,3.92c-4.71,1.2-9.57,1.75-13.41,4.83-8.37,6.73-15.83,14-25.49,18.91-9.86,5-20.26,8.84-30.64,12.64-10.61,3.88-21.38,6.23-32.43,8.64-11.32,2.47-22.7,4.78-34.21,6.2-21.83,2.71-43.17,1.94-64-5.69A148.32,148.32,0,0,1,633,540a48.34,48.34,0,0,1-13-9.57,99.52,99.52,0,0,1-10.44-11.75c-1.22-1.64-2.17-3.81-3.59-5.25s-3.66-1.77-5.78-2.38c-21.51-6.13-43.16-11.89-65.1-16.27-42-8.4-87.11-12.52-129.22-2.47-33.39,8-62.05,33.37-79.95,61.88a154.15,154.15,0,0,0-20.32,49.35c-2.14,10-3.72,20-8.54,29.15-3.47,6.59-7.5,13.16-13,18.3-6.07,5.72-12.91,7.76-20.76,4.51-1.54-.63-3.17,1-3.17,2.41V926.57a2.54,2.54,0,0,0,2.5,2.5h861.44c1.27,0,2.62.12,3.88,0,.41,0,.69,0,1.13-.09,4.36-.73,9.24-3.55,13.27-5.37a132.58,132.58,0,0,0,14.19-7.39,86.41,86.41,0,0,0,31.2-31.4c7.18-12.58,11.57-26.64,14.36-40.8,6.09-30.82,5.39-62.74,3.16-93.93-1-13.34-2.29-26.64-3.58-40-.31-3.18-5.31-3.21-5,0,2.86,29.39,5.71,58.83,5,88.4-.71,29.77-4.3,62.22-20.75,87.86-9.1,14.18-22.43,23.93-37.48,31.2-5,2.43-10.67,5.9-16.25,6.47-4.47.45-9.24,0-13.73,0H262.69l2.5,2.5V657.9L262,660.31c14.36,5.93,25.92-4.15,33.65-15.5A79.1,79.1,0,0,0,306,624.1c3.07-9.84,4.17-20.18,7.16-30.05,10.25-33.86,32.48-64.61,62.71-83.31,16.73-10.34,34.42-15.13,53.82-17.37a298.61,298.61,0,0,1,66.82.34c22.58,2.49,44.89,7.09,66.92,12.6,10.7,2.67,21.35,5.57,32,8.58,2.15.61,5.33.91,7.1,2.41,1.46,1.24,2.7,3.89,3.87,5.4a105,105,0,0,0,9.51,10.71c3.1,3.07,6.32,6.54,10.14,8.68A134.12,134.12,0,0,0,640,548.6a127.57,127.57,0,0,0,28.49,8.34c20.79,3.36,42.21.63,62.74-3.26,10.77-2,21.45-4.52,32.15-6.91,10.43-2.33,20.55-6.49,30.49-10.44,9.59-3.8,19.45-7.87,27.78-14.06,3.63-2.7,7-5.68,10.44-8.63a63.05,63.05,0,0,1,5.54-4.67c2.67-1.8,6.35-2.3,9.46-3.1,43-11.07,87.29-21.06,131.84-22.46,22.87-.72,45.71,2.64,67.93,7.76,10.69,2.46,20.69,6.82,30.58,11.55,9.54,4.57,20.1,9.39,28.39,16,8.09,6.48,16.15,13.47,22.88,21.37s12.48,16.61,18.82,24.84c5.74,7.45,9.38,16.74,13.57,25.15,3.94,7.93,7.83,15.89,11.41,24a271.34,271.34,0,0,1,17.22,53.3c1.4,6.57,3.37,13.05,4.41,19.69,1.19,7.63,1.89,15.35,2.64,23C1197.05,713.31,1202.05,713.34,1201.74,710.14Z"/></g><g id="Layer_36" data-name="Layer 36"><path class="cls-2" d="M88.82,284c-.17-.58-.34-1.22-.52-1.86A21,21,0,0,0,87,278.4c-.57-1.11-1.17-2.2-1.77-3.29a209.67,209.67,0,0,0-11.34-18.32c-7.85-11.42-16.57-22.19-25.26-33-4.54-5.66-9.07-11.34-13.46-17.14a11.8,11.8,0,0,1-1-1.35h0s0,.07,0,.08c-3.22,1.29-5.23-.55-7.94-2.08s-5.12-3.81-8.21-4.43c-5-1-9.78-.13-13.15,3.77S-.81,210.75.27,216C3,229.34,10,238.12,21.54,245.31s24.16,10.41,36.71,15.94C70.14,266.5,80.49,273.75,88.82,284Z"/><path class="cls-2" d="M182.69,308.73c35.6-1.33,69.81-8.81,103.16-19.43a177.06,177.06,0,0,0-8.94-38.88,36.06,36.06,0,0,0-1.37-3.56c-25.26-52.06-75.89-107.23-74.85-167.28.11-6.26,2-15-1.72-20.53-5.48-8.09-14.36-10-21.51-2-18.08,20.17-6,64.82,3.67,86.62,3,6.78,6,12.51,9.56,19.53,1.79,3.48,8.34,12.84,6.1,16.9s-5.77,2.62-8.7.95c-7.05-4-13.82-10-17.83-16.87-10.4-17.92-16.68-37.21-19.87-57.55-2.59-16.56-1.07-33.69-5.6-50.2-1.55-5.66-7.24-11.49-13.72-9.93-8.81,2.11-12.66,6.68-14,16.52-6.37,47.63-2.3,77.66,31,114.48,3.72,4.11,6.48,6.32,7.86,11.06s.7,10-4.65,11.51c-6.45,1.79-10.86-1.24-15.94-6.16-34.81-33.68-39.63-61.83-42.59-108.18-.54-8.54.43-14-.92-21.19S87.2,51.17,80.07,50.67C70.5,50,64.64,56,62.64,65.28c-4.38,20.29-6.42,38.34-1,59.39s16.46,41.62,27.56,60.61c2.69,4.59,6.19,9.83,5.36,15-.93,5.87-5.17,8.34-10.72,7.85a22.44,22.44,0,0,1-14.55-6.55C45.12,177.33,40.53,142.87,42.41,110c.43-7.43,1.77-14.66-.69-21.74S33.46,75.13,25.66,76.8c-9.59,2.06-13.3,10.86-14.24,19.89A183.5,183.5,0,0,0,34.19,205.27h0a11.8,11.8,0,0,0,1,1.35c4.39,5.8,8.92,11.48,13.46,17.14,8.69,10.83,17.41,21.61,25.26,33a209.67,209.67,0,0,1,11.34,18.32c.59,1.09,1.2,2.18,1.77,3.29a20.36,20.36,0,0,1,1.3,3.74c.18.64.35,1.28.52,1.86,0,.13.07.26.1.37a109.88,109.88,0,0,1,3.48,18C122.28,307.24,152.49,310.1,182.69,308.73Z"/><path class="cls-2" d="M241.26,605.6a472.14,472.14,0,0,1,6.45-99.05C260,435.86,294.33,362.28,285.85,289.3c-33.35,10.62-67.56,18.1-103.16,19.43-30.2,1.37-60.41-1.49-90.29-6.34a166.61,166.61,0,0,1,1.08,21.06c-.8,59.71-32.62,121.71-47.16,176.15C30.25,559.74,19.49,616.15,20.18,674.24c.59,50.53,5.76,94.42,22.65,140.07,5.54,15,11,29.6,16.8,43.81,9.92,24.29,20.79,47.3,34.57,68.45H262.69V657.9C244.25,649.86,241.92,622.94,241.26,605.6Z"/></g></g></g></g></svg>