<svg xmlns="http://www.w3.org/2000/svg" viewBox="0 0 375.2 113.58"><defs><style>.cls-1{fill:#fff;}.cls-2{fill:#231f20;}</style></defs><title>jisoo-cap2</title><g id="Layer_2" data-name="Layer 2"><g id="Layer_1_copy" data-name="Layer 1 copy"><path class="cls-1" d="M358.66,85.58c-27.45-45-73.27-72.84-129.6-81.06-65.84-9.6-143.59,15-191.7,64.77-12.52,12.95-25.22,27-34.5,41.21l-.34.54H372.74C368.42,102.42,363.75,93.92,358.66,85.58Z"/><path class="cls-2" d="M360.82,84.32a168.59,168.59,0,0,0-54.2-54.79c-23-14.44-49.24-23.28-76-27.29S176.19-.23,149.7,5.66A240.31,240.31,0,0,0,72.53,37.52a208.26,208.26,0,0,0-32.22,25.3A314.48,314.48,0,0,0,7.22,100c-2.4,3.19-4.71,6.44-6.86,9.8a2.52,2.52,0,0,0,2.16,3.76H357.71c4.8,0,9.61.09,14.4,0h.63a2.53,2.53,0,0,0,2.16-3.76q-6.52-13-14.08-25.46c-1.67-2.74-6-.23-4.31,2.53q7.56,12.42,14.07,25.45l2.16-3.76H17.55c-4.78,0-9.64-.27-14.4,0H2.52l2.16,3.76C13.6,98.38,24.85,86,36.24,74.07A210.42,210.42,0,0,1,67.09,47.19,233,233,0,0,1,140.84,13c25.7-6.89,52.65-9.64,79.17-7,26.2,2.55,52.3,10.12,75.41,22.81a163.68,163.68,0,0,1,55.82,50q2.75,4,5.27,8.1C358.18,89.59,362.51,87.08,360.82,84.32Z"/></g></g></svg>