<svg xmlns="http://www.w3.org/2000/svg" viewBox="0 0 927.73 720.17"><title>jisoo-shadow2</title><g id="Layer_2" data-name="Layer 2"><g id="Layer_7_copy_2" data-name="Layer 7 copy 2"><g id="Layer_19_copy" data-name="Layer 19 copy"><g id="Layer_18_copy_4" data-name="Layer 18 copy 4"><path d="M925.21,717.58c0-.22,0-.45-.07-.67-3.71-33-10.61-65.56-23-96.36C880.19,566.19,838.85,517.31,783.52,498a177.64,177.64,0,0,0-32.34-7.9c-6.82-28.45-15.19-56.84-18.59-85.75-3.37-28.6-4.92-57.41-6.05-86.17-1.12-28.48-1.68-57-2.42-85.46-.75-28.32-1.67-56.65-3.52-84.93S716,91.32,711.54,63.37q-2.91-18.25-6.85-36.31c-.07,13.53-116,24.49-259.05,24.49q-7.87,0-15.63,0l-4.73,0-6.12-.06-3.26,0-6.48-.08h-.87L402,51.2c-13.75-.22-27.14-.54-40.07-1l-4.23-.14c-2.87-.09-5.72-.2-8.54-.31L346,49.67c-.71,0-1.41-.05-2.11-.09l-4.81-.19-1,0-1.84-.08q-5.87-.25-11.55-.54l-5.21-.27c-1.82-.1-3.63-.19-5.42-.3-6.8-.37-13.41-.78-19.79-1.22C229,42.48,186.6,35.23,186.59,27.05q-2.51,8.43-4.7,17l-.13,0c-10.36,40.49-15.6,82.33-19.12,124.52-7.11,85.18-5.74,170.86-13,256.05-2.13,24.8-5,49.72-8.07,74.7a141.38,141.38,0,0,0-35,12.48C52.26,539.88,27.93,604.08,14.32,660c-4.64,19.07-8.54,38.28-11.86,57.59Z"/><path d="M927.71,717.58c-8.18-79.28-40-162.78-110.75-206.39a174,174,0,0,0-65.11-23.54l1.74,1.74c-7.15-29.7-15.62-59.1-19-89.55-3.35-30.16-4.8-60.49-5.88-90.79-2.16-61-2.1-122.08-7.2-182.92-2.81-33.5-7.23-66.88-14.4-99.74-.62-2.84-4.79-2.06-4.91.67,0,0,.14.08-.33.46a15.22,15.22,0,0,1-2.31,1.62,41.67,41.67,0,0,1-8.59,3.2c-10.1,2.89-20.59,4.51-31,6-35.23,4.94-70.92,7-106.43,8.52-91,3.94-182.75,3.71-273.56-3.45-21.86-1.72-43.86-3.71-65.43-7.79a121.71,121.71,0,0,1-18.63-4.65,22.72,22.72,0,0,1-5.29-2.45,14.67,14.67,0,0,1-1.55-1.44,2.51,2.51,0,0,0-4.91-.67q-2.49,8.44-4.7,17l3.08-1.74-.13,0a2.56,2.56,0,0,0-3.08,1.74c-14.46,57-19.43,116-22.5,174.52-3.13,59.75-3.73,119.61-7.68,179.32-2.27,34.14-6,68.13-10.15,102.1l1.84-2.41c-35.75,8-65,28.47-86,58.3C35.54,582.57,23.72,614.78,15.07,647c-6.19,23-11,46.46-15,70a2.53,2.53,0,0,0,2.41,3.16h885.3c12,0,23.93.2,35.88,0h1.57c3.22,0,3.23-5,0-5H16.37c-4,0-8.33-.42-12.34,0a13.71,13.71,0,0,1-1.57,0l2.41,3.17c6.33-36.57,14-73.43,27.24-108.21,11.47-30.2,27.83-59.68,52.78-80.8,16.51-14,36.28-22.85,57.3-27.58a2.57,2.57,0,0,0,1.83-2.41c3.62-29.72,7-59.46,9.25-89.31s3.51-59.73,4.59-89.62c2.16-59.56,3.56-119.2,9.78-178.51,3.42-32.71,8.43-65.27,16.53-97.17l-3.07,1.75.13,0a2.56,2.56,0,0,0,3.07-1.75q2.22-8.52,4.7-16.95l-4.91-.66c.36,7.2,12.56,9.54,17.8,10.89,16,4.11,32.71,6,49.13,7.77,47.15,5.08,94.69,6.91,142.09,7.83Q467,55,540.86,52.34c38.51-1.44,77.18-3.49,115.41-8.53,12.5-1.64,25.25-3.36,37.35-7,4.52-1.38,13.32-3.71,13.57-9.71l-4.91.66c13,59.6,16.73,120.64,18.67,181.46s1.71,122,7.78,182.6c3.38,33.76,12.12,66.06,20,98.94a2.46,2.46,0,0,0,1.75,1.75c39,6,73.36,24.58,100.68,52.91,26.61,27.6,45.16,62,56.56,98.42a376.46,376.46,0,0,1,15,73.78C923,720.75,928,720.79,927.71,717.58Z"/><ellipse cx="445.65" cy="27.04" rx="259.05" ry="24.5"/><path d="M702.2,27c0-.48-.08.41,0-.1a1.35,1.35,0,0,1-.28.48c-.15.15.39-.42-.08.07l-.5.47c-.49.46.36-.23-.22.18a16.15,16.15,0,0,1-1.59,1,44,44,0,0,1-9.41,3.44c-11.6,3.21-23.65,4.93-35.57,6.47-40.09,5.16-80.63,7.19-121,8.57q-79.08,2.7-158.24.53c-42.51-1.13-85.14-3-127.43-7.75-13.46-1.51-27-3.24-40.22-6.19a95.79,95.79,0,0,1-12.45-3.49A22.09,22.09,0,0,1,191.54,29c-.49-.28-1-.57-1.42-.89s.27.28-.22-.18c-.2-.18-.39-.37-.58-.57-.43-.44.33.34,0,0a1.16,1.16,0,0,1-.25-.43c.05.2,0,.07.06,0-.21.73.11-.45-.06.2a1.4,1.4,0,0,1,.29-.48c-.07.06-.3.32.17-.16.14-.15.3-.29.46-.43.39-.35-.38.25.16-.12a16.08,16.08,0,0,1,1.68-1,22.83,22.83,0,0,1,3.82-1.67c9.74-3.54,20.27-5.16,30.48-6.71,37.68-5.74,76-7.78,114-9.39C392.31,5,444.57,4.53,496.76,5.51c44.73.85,89.53,2.59,134.07,6.9,15,1.45,30,3.14,44.77,5.87,5,.93,10.1,2,15,3.37a41,41,0,0,1,9.19,3.46,14,14,0,0,1,1.47.93c.3.22-.39-.34.14.13a4.52,4.52,0,0,1,.45.43c.46.5,0-.05.08.06a1.55,1.55,0,0,1,.28.48c-.09-.35,0,.24,0-.1.06,3.22,5.06,3.23,5,0-.12-5.94-9-8.33-13.43-9.68-11.31-3.45-23.2-5.15-34.89-6.74C618,5.07,576.62,3,535.43,1.55Q454.51-1.28,373.48,1c-43.31,1.19-86.76,3.13-129.8,8.2-13.35,1.57-26.78,3.32-39.86,6.47a74.23,74.23,0,0,0-12.21,3.83c-2.38,1-5.05,2.32-6.53,4.54C177,36.19,217,41.13,221.78,41.9c38.06,6.09,76.84,8.22,115.29,9.9,53.67,2.34,107.44,2.79,161.15,1.74,45.67-.89,91.44-2.68,136.9-7.29,14.85-1.5,29.74-3.26,44.39-6.11,7.8-1.52,17.16-3,23.91-7.5,2-1.31,3.73-3.11,3.78-5.6C707.26,23.82,702.26,23.82,702.2,27Z"/></g></g></g></g></svg>