<svg xmlns="http://www.w3.org/2000/svg" viewBox="0 0 523.4 249.52"><defs><style>.cls-1{fill:#fff;}.cls-2{fill:#231f20;}</style></defs><title>jisoo-cap</title><g id="Layer_2" data-name="Layer 2"><g id="Layer_7_copy_2" data-name="Layer 7 copy 2"><g id="Layer_19" data-name="Layer 19"><g id="Layer_20" data-name="Layer 20"><path class="cls-1" d="M497.08,201c7.94-2,15.89-3.35,23.83-4.49q-3.7-14.24-8.18-28.28c-8.31-25.89-18.23-51.64-33-74.58a206.74,206.74,0,0,0-54.83-57.29c-21.51-15-47.4-27.09-73.42-31.15-29.83-4.66-58.92-3-88.51,2.44C255.8,9,248.71,10.42,241.61,11.9l-25.69,5.49c-12.36,3.07-24.33,7.17-36.3,10.27l-15,6.13A268.94,268.94,0,0,0,121.4,55.52a253.4,253.4,0,0,0-24.13,17A235.84,235.84,0,0,0,32.65,151.9c-13.43,27-23.08,55-30.17,83.73C172,260.73,330.39,242.22,497.08,201Z"/><path class="cls-2" d="M497.75,203.42c7.86-1.92,15.82-3.33,23.83-4.49,1.35-.19,2-1.9,1.75-3.07-6.89-26.31-15.32-52.52-27-77.14a219.49,219.49,0,0,0-43.55-62.2,202.9,202.9,0,0,0-63-42.55C364.7,3.24,337.8-.52,310.6.06c-24.33.51-48.22,4.85-72,9.92l-19.38,4.14c-8.83,1.88-17.46,4.55-26.11,7.12-4.9,1.45-10.11,2.47-14.87,4.28-2.85,1.09-5.65,2.32-8.47,3.47-8.62,3.53-17.25,7-25.63,11.1A258.89,258.89,0,0,0,80,84.15a237.78,237.78,0,0,0-44.21,56.43C22.64,164.05,12.9,189.65,5.34,215.43Q2.49,225.14.07,235c-.3,1.19.38,2.88,1.74,3.08a1077.53,1077.53,0,0,0,195.12,10.79c64.41-2.25,128.54-10.07,191.89-21.75,36.55-6.73,72.85-14.75,108.93-23.66,3.12-.77,1.8-5.6-1.33-4.82-63.52,15.69-127.8,28.61-192.75,36.65-63.26,7.83-127.11,11-190.82,8.33A1055.7,1055.7,0,0,1,3.14,233.22l1.75,3.07c12.27-49.46,31.75-98.53,66.68-136.47C101.2,67.64,139.05,45.4,179.81,30.26c4.72-1.75,9.84-2.77,14.67-4.2,6.7-2,13.39-4,20.16-5.77C219.77,19,225,18,230.19,16.89c19.17-4.09,38.35-8.34,57.87-10.39,27-2.83,55.3-2.36,81.47,5.4,24.36,7.21,47.31,20.1,66.79,36.34a207.52,207.52,0,0,1,47.07,56.33c13.07,22.87,22.08,47.91,29.64,73.07q2.93,9.72,5.47,19.55l1.75-3.08c-8,1.16-16,2.57-23.83,4.49C493.29,199.36,494.62,204.18,497.75,203.42Z"/><path class="cls-1" d="M110.16,246A1117.48,1117.48,0,0,0,252.86,243a1144.65,1144.65,0,0,1-87.1-115.35C148.55,167.68,131.25,207.81,110.16,246Z"/><path class="cls-2" d="M110.16,248.46q28,1.24,56.06,1,27.74-.21,55.44-1.79,15.61-.88,31.2-2.18a2.54,2.54,0,0,0,1.77-4.27Q236.29,219.89,219,197.67q-17.15-22.06-33.19-45-9.13-13-17.89-26.29c-.92-1.39-3.52-1.85-4.32,0-6.71,15.61-13.43,31.21-20.38,46.71s-14.14,30.9-21.78,46.07Q115,232.06,108,244.7c-1.55,2.82,2.76,5.35,4.32,2.53,8.21-14.87,15.86-30,23.15-45.39s14.21-30.86,21-46.43q5.76-13.22,11.44-26.48H163.6q15.59,23.59,32.31,46.39t34.65,44.88q10.09,12.44,20.53,24.58l1.77-4.26q-27.74,2.29-55.56,3.3t-55.58.58q-15.8-.24-31.56-.94C106.94,243.32,107,248.32,110.16,248.46Z"/></g></g></g></g></svg>