<svg id="Layer_1" data-name="Layer 1" xmlns="http://www.w3.org/2000/svg" viewBox="0 0 736.06 1066.84"><defs><style>.cls-1{fill:#fff;}.cls-2{fill:#231f20;}</style></defs><title>marrymejisoo_half_left</title><g id="Layer_2" data-name="Layer 2"><g id="Layer_11" data-name="Layer 11"><g id="Layer_1_copy" data-name="Layer 1 copy"><path class="cls-1" d="M577.32,430.07c-1,19-4,38-5,57,0-48.27,10.62-95.81,16.9-143.47-1.92,14.72-3.8,29.54-5.9,44.47l-3,15Z"/><path class="cls-2" d="M574.82,430.07c-1,19.06-4,37.95-5,57h5a454.64,454.64,0,0,1,4-56.27c2.33-18.56,5.4-37,8.29-55.49,1.65-10.55,3.24-21.12,4.64-31.71h-5c-1.42,10.92-2.82,21.84-4.29,32.75-.52,3.89-.88,7.86-1.65,11.7l-1.32,6.61c-.63,3.15-1.4,6.29-1.76,9.48l-1.53,13.8-1.35,12.13a2.51,2.51,0,0,0,2.5,2.5,2.55,2.55,0,0,0,2.5-2.5l2.77-24.88c.06-.59.13-1.18.19-1.77.1-.93-.17.8,0,.07.46-1.95.79-3.95,1.18-5.91l1.47-7.35c.62-3.09,1-6.23,1.39-9.36,1.69-12.41,3.28-24.84,4.9-37.27a2.51,2.51,0,0,0-2.5-2.5,2.57,2.57,0,0,0-2.5,2.5c-2.46,18.61-5.57,37.12-8.44,55.66s-5.52,37.22-7.07,56c-.87,10.59-1.38,21.21-1.39,31.84,0,3.24,4.83,3.2,5,0,1-19.05,4-37.94,5-57C580,426.86,575,426.87,574.82,430.07Z"/><path class="cls-1" d="M640.6,565.77c-13.32-2.34-27-6.23-38.71-13.07-16.73-9.8-25.18-29.07-28.21-48.28C580.34,535.81,609.05,559.83,640.6,565.77Z"/><path class="cls-2" d="M641.27,563.36c-13.61-2.41-27.61-6.15-39.4-13.6-9.7-6.12-16.47-16-20.61-26.54a94.22,94.22,0,0,1-5.17-19.46l-4.82,1.33a76.16,76.16,0,0,0,17.24,33.69,90.16,90.16,0,0,0,30.61,22.71,91.31,91.31,0,0,0,20.82,6.69,2.56,2.56,0,0,0,3.07-1.74,2.52,2.52,0,0,0-1.74-3.08,88.18,88.18,0,0,1-33.73-14.2,80,80,0,0,1-24.3-26.45,68.11,68.11,0,0,1-7.15-19A2.54,2.54,0,0,0,573,502a2.57,2.57,0,0,0-1.75,3.08c2,12.19,6,24.44,13.14,34.58a54.5,54.5,0,0,0,12.76,13c5.73,4.09,12.38,7,19,9.4a141.66,141.66,0,0,0,23.79,6.16,2.57,2.57,0,0,0,3.07-1.74A2.53,2.53,0,0,0,641.27,563.36Z"/><path class="cls-1" d="M499.2,700.2h0c-.78.08-1.67.16-2.69.24C496.87,698.15,510.75,699,499.2,700.2Z"/><path class="cls-2" d="M499.2,697.7a5.32,5.32,0,0,0-.56.06l-.66.06-1.48.12,2.41,3.17a.33.33,0,0,1,0-.14l-.25.6a.51.51,0,0,1,.09-.16l-.39.5a1.34,1.34,0,0,1,.21-.2l-.51.39a2.1,2.1,0,0,1,.53-.29l-.6.25a7.68,7.68,0,0,1,2-.48l-.67.09a16.37,16.37,0,0,1,3.13-.13,2.81,2.81,0,0,1,.65.05l-.66-.09a2.23,2.23,0,0,1,.51.12l-.6-.25h.09L502,701h0l-.39-.51h0l-.25-.6h0l-.09-.66h0l.09-.66h0l.25-.6h0l.4-.5h0l.5-.4a.38.38,0,0,1-.15.09l.6-.25a5.84,5.84,0,0,1-.82.22c-.51.1-1,.18-1.54.25l.66-.09c-.67.09-1.34.16-2,.23a1.93,1.93,0,0,0-1,.22,2.16,2.16,0,0,0-1.32,1.32,1.93,1.93,0,0,0-.22,1l.09.67a2.5,2.5,0,0,0,.64,1.1l.51.39a2.43,2.43,0,0,0,1.26.34c1.13-.11,2.26-.24,3.38-.42A10.88,10.88,0,0,0,504,702l.2-.07a6.43,6.43,0,0,0,.71-.32,2.82,2.82,0,0,0,.58-.45,5,5,0,0,0,.4-.51h0a2.61,2.61,0,0,0,.34-1.28,2.72,2.72,0,0,0-2.16-2.59,9.59,9.59,0,0,0-1.6-.2,9.84,9.84,0,0,0-1.33,0,7.57,7.57,0,0,0-1.5.1,18.33,18.33,0,0,0-2.08.32,7.58,7.58,0,0,0-1.72.64,4.6,4.6,0,0,0-.88.64,3.27,3.27,0,0,0-.92,1.55,2.5,2.5,0,0,0,0,1.33,1.94,1.94,0,0,0,.45.85,1.87,1.87,0,0,0,.7.64,2.43,2.43,0,0,0,1.26.34l1.48-.12.66-.06a5.32,5.32,0,0,1,.56-.06,1.83,1.83,0,0,0,1-.21A2,2,0,0,0,501,702a2.71,2.71,0,0,0,.73-1.77l-.09-.66a2.44,2.44,0,0,0-.64-1.11A2.63,2.63,0,0,0,499.2,697.7Z"/><path class="cls-1" d="M1105.61,692.35c-1.26-.14-5.07-.19-7-1-61.37-8-121.57,8-180.52,22.61l-.27.07-.78.19a1.8,1.8,0,0,1-.39.08c-.36-53.23.64-105.23-1.36-158.22-11-84-19-165-38-251-3-15-6-28-10-42-5-13-8-27-13-40-.31-.87-.63-1.74-1-2.61a531.28,531.28,0,0,0-35.24-77h0l-.07-.13,3.08,6.78q13.86,30.54,27.69,61.06l-1-.77h0c-21.84-22-33.2-48.29-50.51-73.3-4-5-8-8-14-9a9.61,9.61,0,0,0-9,7c-2,7-9,12-16,9-6-3-10-10-16-13-3,0-7-2-9,2-2,5-3,13-8,14-10,3-18-4-28-5a18.88,18.88,0,0,0-8,2c-6,6-12,10-18,15a9.71,9.71,0,0,1-9,1c-6-3-10-18-19-11-17,12-19,34-25,52-15.46,45.1-22.24,90.79-28.36,137.44-.2,1.5-.39,3-.59,4.51a1.44,1.44,0,0,1-.07.54c-6.28,47.66-16.9,95.2-16.9,143.47a66.5,66.5,0,0,0,1.36,17.35c3,19.21,11.48,38.48,28.21,48.28,11.68,6.84,25.39,10.73,38.71,13.07.57.11,1.15.2,1.72.3,14,2,27,1,41,3,2,50,0,101,1,151.11a57.32,57.32,0,0,1-7.07-1.83c-55.73-14.22-112.41-25-170.93-18.28-2.13,0-4.76,0-7.12.13,11.55-1.16-2.33-2.05-2.7.24,16.82-110.37,13.82-220.37,21.82-331.37,6-72,17-143,50-208A235.71,235.71,0,0,1,633.6,82.24a252.52,252.52,0,0,1,24.27-16.8,270.22,270.22,0,0,1,43.45-21.37l15-6c12-3,24-7,36.39-10l25.73-5.27c7.11-1.42,14.22-2.81,21.36-4.06,29.63-5.19,58.73-6.61,88.52-1.7,26,4.28,51.78,16.55,73.16,31.76a206.71,206.71,0,0,1,54.35,57.75c14.62,23.06,24.32,48.9,32.41,74.86a587.34,587.34,0,0,1,19,82.5c4.45,27.95,7.22,56.15,9.06,84.38s2.77,56.61,3.52,84.93c.74,28.49,1.3,57,2.42,85.46,1.13,28.76,2.68,57.57,6,86.17C1091.74,634.43,1097.19,663.8,1105.61,692.35Z"/><path class="cls-2" d="M1105.61,689.85c-4.84-.42-9.55-1.38-14.41-1.86q-9.75-1-19.56-1.19a315.28,315.28,0,0,0-38.87,1.57c-25.68,2.54-51,7.69-76.12,13.58-13.55,3.18-27,7.14-40.63,9.93l3.16,2.41c-.26-39.77.23-79.55-.36-119.32q-.23-14.58-.66-29.15c-.32-10-1.66-19.84-2.92-29.8-2.39-18.8-4.7-37.61-7.07-56.41-4.76-37.71-9.82-75.39-16.26-112.86q-5-29.22-11.28-58.23c-3.92-18.07-7.72-35.95-13.53-53.52-3.3-10-5.85-20.24-9.45-30.14s-7.35-19.76-11.44-29.48c-7.7-18.27-16.61-35.87-26-53.32-1.55-2.88-5.62-.35-4.32,2.52q15.4,33.91,30.77,67.84l3.93-3c-5.37-4.26-9.87-10.37-14-15.8s-8-11.16-11.64-17c-7.48-11.8-14.31-24-22-35.67-5.19-7.88-16-20.81-26.52-13-4.63,3.42-4.34,9.78-9.12,13-6.39,4.29-11.68-1.6-16-5.85a38.63,38.63,0,0,0-6-5.13c-2.1-1.37-4.29-1.58-6.74-1.79-5.24-.45-7.32,2.87-8.75,7.38-.73,2.33-1.31,4.9-2.63,7-1.58,2.51-4.44,2.85-7.26,2.8-6.33-.1-12.11-3.55-18.17-5a18.74,18.74,0,0,0-8.9-.19c-3.57.84-5.52,2.47-8.17,4.88-2.43,2.21-5,4.26-7.58,6.29-2.77,2.17-6.33,6.15-9.85,6.82-5.14,1-7.56-4.08-10.23-7.45-2.17-2.74-4.92-5.67-8.64-5.91-4.66-.31-8.84,3.74-11.87,6.78a48.56,48.56,0,0,0-9.39,13.69c-4.73,10-6.9,21-10.09,31.53-4.33,14.38-9.1,28.52-12.67,43.13-3.65,14.9-6.62,30-9.19,45.08-5,29.78-8.37,59.82-13,89.66-4.82,30.76-10.08,61.54-11.78,92.67-.79,14.52-1.16,28.73,1.85,43,2.4,11.39,6.81,22.6,14,31.82,8,10.2,19.26,16.2,31.33,20.4,13.6,4.72,27.63,6.83,42,7.41,7.72.31,15.45.49,23.11,1.53l-1.84-2.41c2,50.35,0,100.75,1,151.11l3.17-2.41c-11.72-2.6-23.3-5.94-35-8.59-12.16-2.75-24.38-5.23-36.68-7.29-23.94-4-48.18-6.51-72.47-6.36-13.92.08-27.74,1.54-41.62,2.17v5c2.15-.23,5.38-.09,6.74-2.11a2.52,2.52,0,0,0,0-2.52c-1.83-3.52-10.69-1.48-11.85,1.71l4.82,1.33c8.9-58.66,12.38-117.92,14.77-177.15,2.36-58.64,3.24-117.51,9.06-175.94,5.42-54.51,15-109.15,35.94-160,10.07-24.41,22.69-47.62,39.58-68A242.82,242.82,0,0,1,655.9,69.67c18.46-11.63,38.24-20,58.42-28.07a104.42,104.42,0,0,1,11.08-3.31c7.15-2,14.25-4.16,21.42-6.07,6.11-1.63,12.27-2.84,18.46-4.1,47.8-9.8,98.07-18.82,145.65-2.73,50.72,17.15,91.65,56.55,114.88,104.26,12.29,25.25,20.84,52.5,27.74,79.66a663.83,663.83,0,0,1,15.58,86.37c7,59.61,7.71,119.71,9.27,179.64,1.53,58.92,3.17,118.38,14.72,176.36q4.16,20.9,10.13,41.37c.9,3.08,5.73,1.77,4.82-1.33-17-58.05-21.29-118.42-23.51-178.58-2.24-60.71-2.14-121.54-7-182.14-4.67-58.42-14.22-116.71-34.16-172-9.18-25.46-21-49.75-37.76-71.16a206.54,206.54,0,0,0-58.32-51.12,179.62,179.62,0,0,0-76.77-24.31c-29.69-2.5-59,1.39-88.08,7.13-12.35,2.43-24.83,4.63-37,7.87-7.17,1.91-14.27,4.07-21.42,6.07A104.42,104.42,0,0,0,713,36.79c-7.05,2.82-14.15,5.54-21.13,8.5-48.3,20.48-90.48,55-117.65,100.14-28.25,46.92-42.41,102-50.61,155.73-8.77,57.52-10.86,115.76-13,173.84-2.24,60-4.15,120.19-10.63,180q-2.44,22.49-5.81,44.85a2.5,2.5,0,0,0,4.82,1.33c-.48,1.34-1,.56.12.64a10.56,10.56,0,0,0,1.47-.19,8.77,8.77,0,0,0,1.62,0c1.27-.36.56,1.1-.5-.93v-2.52c1.18-1.75,1.33-.65.2-.71a17.72,17.72,0,0,0-2.62.34c-3.13.34-3.27,5.15,0,5,12.08-.55,24.12-1.83,36.23-2.09a360.63,360.63,0,0,1,36.16,1.06c24.41,1.89,48.59,6.05,72.48,11.32,13.27,2.92,26.34,6.66,39.59,9.6a2.53,2.53,0,0,0,3.08-1.8,2.49,2.49,0,0,0,.08-.61c-1-50.36,1-100.76-1-151.11a2.53,2.53,0,0,0-1.83-2.41c-14.16-1.93-28.65-.8-42.72-3.3-13.49-2.4-27.28-6.08-39-13.36-22-13.61-27.65-42.49-27.41-66.34.31-30.28,4.68-60.31,9.37-90.17,4.58-29.1,8.33-58.3,12.67-87.44s9.77-58,18.08-86.23c3.54-12,7.48-23.87,10.87-35.94,3-10.49,6.6-21.36,14.59-29.15,3-2.94,6.73-6.89,10.6-3.34,2.8,2.56,4.54,6.07,7.25,8.72a11.27,11.27,0,0,0,12.63,2c2.74-1.24,5-3.61,7.4-5.45,2.71-2.12,5.44-4.22,8-6.46,3-2.6,5.46-5.25,9.69-5.59,3.38-.27,7,1.16,10.1,2.26,5.13,1.8,10.37,3.87,15.92,3.33,5-.47,8.31-2.38,10.38-7a57.14,57.14,0,0,0,2.22-6.37c.31-1,.65-2.93,1.59-3.53s2.58-.13,3.58,0c5.2.65,8.76,6.42,12.54,9.64s8.41,5.44,13.57,4a15.84,15.84,0,0,0,10.13-9.4c1.16-2.83,1.93-5.57,5.18-6.65,2.84-.95,6.23.73,8.56,2.3,5.44,3.65,8.75,10,12.17,15.43,3.58,5.65,7,11.4,10.47,17.14,6.76,11.23,13.63,22.4,21.71,32.75,3.86,4.94,8,10.46,12.89,14.37a2.51,2.51,0,0,0,3.93-3l-30.84-67.93-4.32,2.52c17.34,32.2,32.47,65.3,42.9,100.42,2.59,8.74,5.79,17.27,8.15,26.07s4.38,17.46,6.24,26.26c4,19.07,8.06,38.14,11.53,57.32,6.84,37.72,12.16,75.7,17,113.72,2.38,18.55,4.66,37.11,7,55.66q1.75,14,3.57,28c1.27,9.8,1.06,19.88,1.28,29.75,1,44.16.31,88.33.6,132.49a2.53,2.53,0,0,0,2.57,2.49,2.47,2.47,0,0,0,.6-.08c11.65-2.39,23.16-5.76,34.73-8.53,12.45-3,24.94-5.81,37.51-8.26,25.48-5,51.34-8.38,77.34-8.19,7.2.06,14.4.38,21.57,1,5.75.51,11.37,1.61,17.11,2.11C1108.82,695.13,1108.8,690.13,1105.61,689.85Z"/><path class="cls-2" d="M754,123.11a229.11,229.11,0,0,1-25.6-44,229.07,229.07,0,0,1-15.14-48.38A223.41,223.41,0,0,1,709.57,2.5a2.5,2.5,0,0,0-5,0,231.88,231.88,0,0,0,9.1,51,234.71,234.71,0,0,0,20.13,47.7,226.38,226.38,0,0,0,15.84,24.45,2.58,2.58,0,0,0,3.42.9,2.53,2.53,0,0,0,.9-3.42Z"/><path class="cls-2" d="M722.23,127.85a163,163,0,0,1-63.39-27.29A169.9,169.9,0,0,1,612.07,50.5a157.16,157.16,0,0,1-16-35.43c-1-3.07-5.78-1.76-4.83,1.32A167.78,167.78,0,0,0,626.3,78.06,174.77,174.77,0,0,0,683,120.37a163.41,163.41,0,0,0,37.88,12.3,2.5,2.5,0,0,0,1.33-4.82Z"/><path class="cls-2" d="M679,133.16c-17.8.9-38.38,1.89-52.81-10.56a2.56,2.56,0,0,0-3.53,0,2.54,2.54,0,0,0,0,3.54c11.67,10.07,27.32,12.58,42.27,12.51,4.69,0,9.38-.25,14.07-.49C682.2,138,682.22,133,679,133.16Z"/><path class="cls-2" d="M527.78,101.17a110.67,110.67,0,0,1,13.5-19.79,106.78,106.78,0,0,1,18.29-17.32A68.29,68.29,0,0,1,581,53.45a84.85,84.85,0,0,1,26.8-3.25,83.75,83.75,0,0,1,26.31,5.33A103.73,103.73,0,0,1,654,65.86c12.75,8.3,24,18.57,35.66,28.32s23.92,19.4,37.93,25.73c1.77.8,3.57,1.55,5.38,2.26a2.52,2.52,0,0,0,3.08-1.75,2.56,2.56,0,0,0-1.75-3.07c-14.3-5.55-26.78-14.83-38.51-24.54-12-10-23.57-20.59-36.49-29.42A115.71,115.71,0,0,0,639.18,52.2a88.94,88.94,0,0,0-26.24-6.65c-17.63-1.71-36.57,1.68-51.63,11.28C547,65.92,535,79.2,526.3,93.63c-1,1.64-1.94,3.32-2.84,5-1.5,2.84,2.82,5.37,4.32,2.52Z"/><path class="cls-1" d="M915.32,556.07c-11-84-19-165-38-251-3-15-6-28-10-42-5-13-8-27-13-40-.31-.87-.63-1.74-1-2.61-9.86-26.74-23.5-51.14-35.24-77l1.5,3.32c.51,1.1,1,2.2,1.5,3.31q13.86,30.54,27.69,61.06l.18.39c-.39-.38-.78-.77-1.15-1.16h0c-21.84-22-33.2-48.29-50.51-73.3-4-5-8-8-14-9a9.61,9.61,0,0,0-9,7c-2,7-9,12-16,9-6-3-10-10-16-13-3,0-7-2-9,2-2,5-3,13-8,14-10,3-18-4-28-5a18.88,18.88,0,0,0-8,2c-6,6-12,10-18,15a9.71,9.71,0,0,1-9,1c-5.7-2.85-9.6-16.53-17.69-11.89a14.37,14.37,0,0,0-1.31.89c-17,12-19,34-25,52-14.43,43.31-21.79,88-27.86,133.11-.19,1.45-.39,2.91-.58,4.37s-.39,3-.59,4.51a1.44,1.44,0,0,1-.07.54q-.74,5.52-1.53,11c-6.33,44-15.37,87.88-15.37,132.42a110.79,110.79,0,0,0,1.36,17.35c3,19.21,11.48,38.48,28.21,48.28,11.68,6.84,25.39,10.73,38.71,13.07.57.11,1.15.2,1.72.3,14,2,27,1,41,3,2,50,0,101,1,151.11.31.64.64,1.27,1,1.89v.07c7.25,13,22,23.31,22,23.31,18,13,38,16,59,17,29,1,56-6,84-13,16-5,30-10,45-18a88.26,88.26,0,0,0,10.18-6.62l.08-.06a68.93,68.93,0,0,0,8.19-7.17,41.49,41.49,0,0,0,2.91-3.31C916.32,661.06,917.32,609.06,915.32,556.07ZM801.06,265.69a16.66,16.66,0,0,1-16.66,16.66H682.75A16.64,16.64,0,0,1,666.1,265.7h0V248.18a67.5,67.5,0,1,1,135,0Z"/><path class="cls-2" d="M917.82,556.07c-7.27-55.56-13.43-111.28-22.17-166.63-4.47-28.3-9.8-56.4-15.78-84.42-2.85-13.34-5.68-26.64-9.34-39.79-1.83-6.55-4.34-12.92-6.3-19.45-1.9-6.35-3.71-12.74-5.9-19-10.23-29.29-25.22-56.42-38-84.57-1.33-2.93-5.64-.39-4.32,2.52,10.29,22.7,20.43,45.46,30.87,68.08l3.93-3c-19.73-19.52-31.94-44.46-46.93-67.46-5.13-7.88-15.18-21.57-26.31-15.13a12.08,12.08,0,0,0-4.94,5.38c-1.31,2.89-1.94,5.67-4.54,7.79-5.69,4.64-11,.33-15.28-3.87a60.76,60.76,0,0,0-6.09-5.59,13.09,13.09,0,0,0-7.15-2.64c-5.49-.71-8,2-9.6,7a38.89,38.89,0,0,1-2.44,6.78c-1.5,2.79-4.15,3.27-7.18,3.29-6.38,0-12.22-3.45-18.29-4.93a18.92,18.92,0,0,0-8.69-.35c-3.66.78-5.67,2.28-8.35,4.73-2.47,2.26-5.08,4.37-7.71,6.43s-5.74,5.39-8.91,6.58c-9,3.38-11.37-12.73-20.19-13-4.76-.16-9.12,4.16-12.17,7.34a49.83,49.83,0,0,0-9.11,13.71c-4.72,10.27-6.85,21.4-10.18,32.14-4.41,14.23-8.8,28.38-12.29,42.87-3.56,14.75-6.52,29.65-9.11,44.6-5.2,30.08-8.63,60.42-13.37,90.57-4.76,30.31-9.89,60.66-11.56,91.35-1.42,25.94-.65,54.28,16.43,75.52,8,9.9,19.22,15.71,31,19.79a144.05,144.05,0,0,0,41.4,7.31c7.81.32,15.64.48,23.41,1.54l-1.84-2.41c1.65,41.84.56,83.72.72,125.58,0,5.19.05,10.39.12,15.58.06,4.4-.68,9.22,1.52,13.14a71,71,0,0,0,14.11,17,86.3,86.3,0,0,0,32.75,19c36.86,11.49,76.3,3.51,112.69-5.53a236.06,236.06,0,0,0,52.81-19.77,84.65,84.65,0,0,0,16-11c2.62-2.27,7.55-5.82,7.69-9.54.19-5.25-.06-10.55-.07-15.81-.1-42,.37-84-.78-126q-.21-7.87-.51-15.75c-.12-3.21-5.12-3.22-5,0,2,52.72,1,105.48,1.36,158.22l.73-1.77C908,721,898.67,727.11,889,732a249.44,249.44,0,0,1-38.09,14.72,380.22,380.22,0,0,1-42.15,9.75c-14.27,2.6-28.85,4.15-43.37,3.46-21.75-1-43.5-5.45-60.64-19.71a93,93,0,0,1-10.22-9.83,58.22,58.22,0,0,1-5.4-7,26.65,26.65,0,0,1-1.51-2.52c-.89-1.81-.72-3.6-.75-5.6-.24-15-.23-30-.17-45,.15-33.73.59-67.47-.74-101.19a2.53,2.53,0,0,0-1.83-2.41c-14.53-2-29.37-.85-43.81-3.49-13.08-2.4-26.42-6.08-37.84-13.12-21.65-13.34-27.68-41.85-27.51-65.45.22-30.29,4.55-60.34,9.24-90.2,4.56-29,8.32-58.21,12.75-87.28s9.92-57.91,18-86.15c3.46-12.15,7.43-24.13,10.81-36.31,2.92-10.49,6.43-21.41,14.24-29.36,2.89-3,7-7.58,11-4.07,2.95,2.59,4.7,6.28,7.53,9a11.37,11.37,0,0,0,13.2,1.6c2.72-1.46,5.08-3.87,7.51-5.76,2.76-2.15,5.52-4.3,8.14-6.61,2.79-2.46,5-4.56,9-4.83,3.27-.23,6.73,1.15,9.78,2.22,5.5,1.92,11,4.08,17,3.27,5-.67,7.85-2.91,9.77-7.52.92-2.2,1.53-4.5,2.28-6.77,1-3.13,2.44-2.82,5.33-2.44,5.06.67,9,7.11,12.77,10.18,4.16,3.37,9.11,5,14.28,2.94,4.85-1.93,7.64-6.05,9.36-10.76,2.52-6.91,9.61-5.4,14.3-1.61,4.94,4,8.15,10.09,11.49,15.38,3.6,5.72,7.06,11.53,10.54,17.32,6.77,11.23,13.69,22.38,21.84,32.67a152.45,152.45,0,0,0,12.33,13.82c2.13,2.1,5.08-.54,3.93-3-10.44-22.62-20.58-45.39-30.87-68.08L816,144.73c11.45,25.12,24.9,49.37,34.57,75.27,4.7,12.59,8,25.56,12.39,38.27a327.21,327.21,0,0,1,10,38c5.94,27.8,11.52,55.64,16.13,83.7,4.53,27.55,8.37,55.21,11.95,82.9,4,31.06,7.73,62.16,11.79,93.21C913.23,559.22,918.24,559.26,917.82,556.07Z"/><path class="cls-2" d="M798.56,265.69a14.3,14.3,0,0,1-14.16,14.16H682.78c-7.12-.06-13.53-5.54-14.12-12.77-.16-1.87-.06-3.77-.06-5.64v-8.9a84.35,84.35,0,0,1,1.45-18.08,65,65,0,0,1,128.47,11.23c.18,5.06,0,10.14,0,15.2v4.8c0,3.22,5,3.22,5,0,0-12.53.74-25.22-2.86-37.39a70,70,0,0,0-137.08,18.12c-.13,5.08,0,10.16,0,15.24a53.3,53.3,0,0,0,.11,5.93,19.33,19.33,0,0,0,5.85,12,20.2,20.2,0,0,0,14.27,5.27h99.86a19.2,19.2,0,0,0,19.86-18.5c0-.22,0-.44,0-.66C803.59,262.47,798.59,262.47,798.56,265.69Z"/><path class="cls-2" d="M684.32,722.68c3.22,0,3.22-5,0-5S681.1,722.68,684.32,722.68Z"/></g><g id="Layer_3_copy" data-name="Layer 3 copy"><path class="cls-1" d="M435.4,162.51c-3.11-.13-3.51-3.67-4.66-6.56s-1.58-6.09-3.16-8.78c-2.55-4.32-7.88-6.59-12.89-6.16a19.75,19.75,0,0,0-12.88,7.06c-8.32,9.64-8.18,24.27-3.76,36.21s12.4,22.17,18.86,33.15,11.53,23.7,9.23,36.22l27.92,17.45-10.6-111.35Z"/><path class="cls-2" d="M435.4,160s-.36-.16-.26-.07c-.38-.32-.34-.36-.58-.81a17.78,17.78,0,0,1-1-2.63c-.87-2.55-1.58-5.18-2.54-7.7a15.56,15.56,0,0,0-11.41-9.93c-11.21-2.4-20.95,6.32-24.81,16.15-3.76,9.6-2.62,20.87,1,30.33C400,196.45,407,206,413.16,216.05c6.68,10.9,12.89,23.8,10.56,36.94a2.61,2.61,0,0,0,1.15,2.82l24.4,15.25,3.53,2.2c1.51.94,3.94-.26,3.76-2.16l-1.05-11L453,233.4l-3.06-32.13-2.65-27.78c-.43-4.52-.81-9-1.29-13.56v-.18c-.15-1.51-1.5-3-3.17-2.41l-8.05,2.76a2.57,2.57,0,0,0-1.75,3.08,2.52,2.52,0,0,0,3.08,1.74l8.05-2.76L441,159.75l1.05,11,2.54,26.66,3.06,32.13,2.64,27.78.88,9.17c.13,1.45.15,3,.41,4.39v.18l3.76-2.16-24.4-15.24-3.52-2.21,1.15,2.83c2.09-11.83-1.61-23.46-7.09-33.86-5.34-10.14-12.46-19.24-17.7-29.45-4.52-8.82-7.53-19-5.7-28.95,1.62-8.87,8.3-19,18.43-18.59a11.75,11.75,0,0,1,6.53,2.28c2.26,1.71,3.23,4.17,4,6.8s1.58,5.2,2.59,7.7c1.08,2.67,2.78,4.51,5.78,4.76a2.51,2.51,0,0,0,2.5-2.5A2.55,2.55,0,0,0,435.4,160Z"/><path class="cls-1" d="M1281.47,1064.34H202c-36.05-8.64-59.81-67-75.89-95.6-29.44-52.38-72.49-95.16-98.51-149.9C-9.5,740.72-4,649.71,34.32,573.07c22-44,52-82,87-118,40.25-41.39,88.67-73.61,139.23-101,45.76-24.79,109.62-40.66,147.48-76.51a80.54,80.54,0,0,0,18.38-25.77c.69-1.54,1.33-3.12,1.91-4.72,8-27,4-55,7-83,.06-.54.13-1.07.21-1.6,5.68-37.61,24.05-73.21,53.27-97.87,7.09-6,17.33-11.45,25.09-6.37,6.33,4.14,7.12,13.56,3.93,20.42s-9.26,11.83-14.9,16.86c-25,22.32-45.89,54.69-39.43,87.58,1.09,5.58,3.09,11.23,7.18,15.19s10.66,5.75,15.64,3c4.44-2.45,6.52-7.61,8.08-12.42,6.48-19.91,9.85-40.75,16.9-60.46S529.86,89.5,548,79.12c8.35-4.77,20.11-7,26.7.06,4.91,5.23,4.71,13.69,1.67,20.2S568.05,111,563.2,116.25a158.3,158.3,0,0,0-41.28,106.32c0,5.68,1.22,12.64,6.59,14.51,4.46,1.55,9.42-1.72,11.51-6s2.1-9.15,2.27-13.87a159.2,159.2,0,0,1,52.65-111.69c6.54-5.81,15.61-11.35,23.5-7.58,5.8,2.77,8.49,9.91,7.85,16.31-1.85,18.68-19.64,34.63-29.94,49.28-12.64,18-23.89,37.29-29.2,58.82-2,8.29-3.15,17.23-.15,25.22,1.25,3.33,4.07,6.84,7.58,6.25,2.77-.47,4.44-3.26,5.73-5.76,9.14-17.69,18.11-34.8,24.42-53.74,2.95-9.82,4.89-20.07,9.67-29.15s13.22-17,23.45-17.87,21.09,8.25,19.37,18.36c-1.18,6.91-7.19,11.75-12.44,16.4-50.37,44.57-36.82,110.44-55.46,168q-.52,1.62-1.11,3.21C561.15,426.84,463.88,458,403.4,498c-61.79,40.81-114,94.13-130.3,168.23-4.23,19.29-5.27,39.72.63,58.56,15.6,49.79,62.95,50.6,102.79,28.38,0,0,57.79-45,101.32-51q9.07-1.24,18.16-2c64.59-5.78,129,4.64,189.32,22,5,10,13,17,22,24,18,13,38,16,59,17,29,1,56-6,84-13,16-5,30-10,45-18,9-5,16-13,24-19,45-12,91-22,138-24a239.35,239.35,0,0,1,47,3,315.16,315.16,0,0,1,32,7c19,6,36,14,52,26,8,7,15,12,22,20,9,11,17,21,24,33,19.65,30.13,31.58,62,38.92,95,2,9.21,3.74,18.52,5.13,27.91C1279.62,909.3,1280.64,1055.9,1281.47,1064.34Z"/><path class="cls-2" d="M1281.47,1061.84H207.33c-20.4,0-35.92-20.25-46.3-35.63-12.58-18.65-21.76-39.17-32.73-58.73-15.68-28-35.46-53.37-54.32-79.23s-36.95-52.39-49.23-82A261.89,261.89,0,0,1,5.11,713.44C3.25,648,25.29,585.54,61.43,531.59S144.62,431,198.2,394.62c25.38-17.24,52.05-33.48,79.85-46.54,26.05-12.24,53.22-22,79.13-34.51,24.11-11.68,50.19-26.36,65.26-49.31,18.41-28,12.35-63.69,14.93-95.39,2.47-30.29,15.59-60.71,34.92-84A145.54,145.54,0,0,1,487.53,69c5.65-5,14.23-12.35,22.48-9.85,9.68,2.93,7.9,15.34,3.65,21.8-4.39,6.67-11.28,11.45-17,16.92-20.23,19.45-38,46.22-36.85,75.38.41,11,3.11,25.42,14.39,30.35,11.76,5.14,19.14-3.88,22.56-14.07,10.2-30.3,12.59-64.06,32.53-90.31,8-10.5,23.13-25.25,37.81-21.6,10.33,2.57,10.38,14.52,6.23,22.23-3.65,6.77-9.67,12-14.67,17.69a160.79,160.79,0,0,0-39.17,98.89c-.23,5.84-.69,12.89,2.47,18.16,5.87,9.77,18.11,4.43,21.21-4.65,2-5.91,1.45-12.47,1.92-18.61a151,151,0,0,1,4-24.73A158.68,158.68,0,0,1,566,145.08,154.76,154.76,0,0,1,593.78,110c5.84-5.47,16.31-14.82,24.79-9.08,7,4.77,5.72,14.65,3.27,21.54C617,136.12,606,146.76,597.37,158A207,207,0,0,0,573,198.31c-5.91,13.08-12,28.88-10,43.5.69,4.85,2.38,11,7.06,13.6,4.86,2.66,9-.47,11.58-4.52,8.35-13.13,14.88-28.61,20.73-43,6-14.82,7.62-32.89,17-46.06,4.44-6.21,11.31-11.81,19.27-12,8.62-.19,18.52,7.7,15.67,17-2.26,7.41-10.48,12.37-15.72,17.53A111.09,111.09,0,0,0,626,199.24C594.3,243.7,603.53,301.51,586.37,351c-16.45,47.46-62.81,76.54-104.44,99.79-21.32,11.91-43.17,22.87-64.2,35.29a418,418,0,0,0-63.79,46.27C312.88,568.6,280.19,615.48,269.77,670c-5.13,26.88-3.76,58,14.48,80,13.22,16,33.8,21.42,53.83,18.9a100,100,0,0,0,45.65-18.08,353.29,353.29,0,0,1,53.36-32.48c11.28-5.46,23.09-10.23,35.4-12.81,16.19-3.38,33.31-4.09,49.8-4.49,35.38-.85,70.75,2.81,105.45,9.58,16.89,3.29,33.62,7.32,50.2,11.92,2.2.61,4.41.86,6.14,2.49,1.19,1.12,2.1,3.49,3.08,4.86a63.77,63.77,0,0,0,5.24,6.35,93.72,93.72,0,0,0,16.38,13.82c25.49,16.84,59.69,17.68,89,13.71,32.31-4.37,65.54-12.75,94.75-27.47A84.61,84.61,0,0,0,910.24,724c2.54-2.22,5-4.75,7.7-6.71,4.54-3.24,10.48-4.08,15.81-5.44,16.88-4.31,33.86-8.24,51-11.5,35-6.66,71.21-11.44,106.77-7.51,33.92,3.75,70,13.25,96.75,35.43a193.69,193.69,0,0,1,34,36,290.32,290.32,0,0,1,25.81,43c14.08,28.76,24.64,63.16,27.86,94,1,9.76.71,19.79.89,29.59.35,18.55.59,37.11.83,55.67.23,17,.43,33.91.7,50.87.14,8.91-.16,18,.64,26.89.29,3.18,5.29,3.21,5,0-.86-9.56-.53-19.35-.67-28.94-.29-18.48-.51-37-.76-55.42q-.35-26.59-.81-53.17c-.21-10.41,0-20.88-1.67-31.18-5.24-32.88-14.54-65.18-29.72-94.9a287.45,287.45,0,0,0-26.45-42.58,204.38,204.38,0,0,0-32.1-33.37c-24.75-20.92-57.73-30.67-89.17-35.44-33.9-5.14-68-2.27-101.65,3.14-17.61,2.83-35.08,6.47-52.42,10.6q-12.71,3-25.31,6.37c-6.93,1.82-11.22,6.41-16.54,11-13.06,11.4-29.12,17.81-45.37,23.36-16.54,5.66-33.81,9.65-51,12.88-31.87,6-70.79,7.87-99-11a85.9,85.9,0,0,1-16.65-14.44c-2.67-3-4.35-6.48-6.71-9.66-2.1-2.82-5.28-3-8.68-3.92C662.75,713,646,709,629.13,705.7c-34.34-6.71-69.37-10.46-104.39-9.81-28.4.53-56.09,2.93-82.3,14.42-20.58,9-39.94,21-58.23,34-3.43,2.44-6.72,5.23-10.33,7.35A97.79,97.79,0,0,1,339,763.71c-23.06,3.3-45.18-4.93-56.85-25.83-16.29-29.15-10.1-65.23.26-95.27,18.76-54.35,59.22-97.44,105.06-130.65,41-29.68,87.93-49.07,130.13-76.73,20-13.12,39.17-28.24,53.93-47.23,15.49-19.93,23.16-42.64,27.5-67.29,4.62-26.2,6-53,13-78.79,3.59-13.16,8.75-25.87,16.31-37.27a105,105,0,0,1,13.23-16.13c4.93-4.93,11-9,15-14.85,6.54-9.61,2.6-21.14-7.39-26.43-11.17-5.92-23.63-.34-31.3,8.54-9.76,11.29-11.57,26.34-16.18,40-5.49,16.29-13.46,31.66-21.32,46.9-.73,1.42-1.68,4.56-2.93,5.59-6.65,5.42-8.37-2.06-9.09-5.48a37.86,37.86,0,0,1,0-13.51,110.13,110.13,0,0,1,8.18-26.54A203.61,203.61,0,0,1,600.59,162c8.4-11.16,18.64-21.28,24.44-34.18,4.28-9.49,6.57-22.78-2.69-30.25-10.77-8.7-24.06,1.39-32.1,8.92a159.45,159.45,0,0,0-26.57,32.68,163.73,163.73,0,0,0-17.81,40.36c-4,13.87-5.13,27.54-6.23,41.82-.34,4.39-1.15,10.57-5.74,12.78-7.38,3.55-9.18-5.11-9.44-10a120.92,120.92,0,0,1,1.49-23.35,156.06,156.06,0,0,1,40.36-84.21c8-8.64,17.57-19.08,14.14-31.95-3.22-12.08-16.26-14.26-26.71-10.77C542.05,77.76,532.27,87,525,96.7c-19.29,25.67-22.8,58.33-32,88.18-2.3,7.47-5.87,17.9-15.86,14.55-9.4-3.16-11.62-15.69-12.22-24.22-1.07-15.48,3.84-30.65,11.49-44,8-13.83,18.72-25.47,30.57-36,8.82-7.87,18.69-18.71,14-31.55-4-11.23-16.27-11.48-25.51-6.66-12.2,6.35-22.43,18.5-30.64,29.24-17.05,22.31-28.66,49.88-32,77.83-4.2,35,4.84,74.51-19.34,104-17.84,21.74-45.18,35.2-70.31,46.56-26.25,11.86-53.52,21.56-79.14,34.79a647.14,647.14,0,0,0-82.66,50.93C130.23,437.42,85.1,484.64,51.27,538.07,17.65,591.14-2.11,652.35.18,715.57a266.32,266.32,0,0,0,19.75,92c12,29,29.45,55.26,47.85,80.59,18.6,25.62,38.19,50.64,54.08,78.09,11.68,20.18,21,41.62,33.94,61.09,10.86,16.37,28.17,39.48,50.07,39.48h1075.6C1284.69,1066.84,1284.69,1061.84,1281.47,1061.84Z"/><path class="cls-1" d="M528.45,422.79S500.35,350.62,408,277.56"/><path class="cls-2" d="M530.86,422.13c-1.09-2.81-2.39-5.55-3.7-8.26-3.5-7.22-7.41-14.23-11.55-21.09a365.65,365.65,0,0,0-21.16-31.18,443.9,443.9,0,0,0-32.67-38.49,495.09,495.09,0,0,0-45.43-42.05c-2.17-1.77-4.35-3.52-6.55-5.27a2.56,2.56,0,0,0-3.53,0,2.52,2.52,0,0,0,0,3.54,503.41,503.41,0,0,1,47,42.15A444,444,0,0,1,487,360a371.47,371.47,0,0,1,22.27,32c4.52,7.28,8.77,14.73,12.59,22.4,1.08,2.17,2.13,4.36,3.12,6.57l.86,2c-.34-.78-.13-.33,0,.08l.15.36v.13a2.57,2.57,0,0,0,3.08,1.74,2.51,2.51,0,0,0,1.74-3.07Z"/></g></g></g></svg>