<svg xmlns="http://www.w3.org/2000/svg" viewBox="0 0 922.76 242.59"><defs><style>.cls-1{fill:none;}.cls-2{fill:#fff;}.cls-3{fill:#231f20;}</style></defs><title>jisoo-cap2_1</title><g id="Layer_2" data-name="Layer 2"><g id="Layer_7_copy_2" data-name="Layer 7 copy 2"><g id="Layer_19_copy" data-name="Layer 19 copy"><g id="Layer_18_copy_4" data-name="Layer 18 copy 4"><rect class="cls-1" y="56.51" width="184.14" height="155.53"/><rect class="cls-1" x="738.62" y="56.51" width="184.14" height="155.53"/></g><path class="cls-2" d="M184.14,215.55c.14-.47.28-.94.43-1.41a390.47,390.47,0,0,1,25.62-64.62,235.76,235.76,0,0,1,65.28-78.83,252.94,252.94,0,0,1,24.27-16.8,269.94,269.94,0,0,1,43.45-21.37l15-6c12-3,24-7,36.39-10l25.73-5.27c7.11-1.42,14.22-2.81,21.36-4.06C471.3,2,500.4.61,530.19,5.52c26,4.28,51.78,16.55,73.16,31.76A206.85,206.85,0,0,1,657.7,95c14.62,23.06,24.32,48.9,32.41,74.86q4.3,13.81,7.82,27.84l.13,0q2.24,8.88,4.18,17.84h-1.42c0,13.53-115.66,24.5-258.34,24.5s-258.34-11-258.34-24.5"/><path d="M186.55,216.22c7.51-25.08,17-49.86,29.7-72.78a232.71,232.71,0,0,1,42.91-55.37A252.38,252.38,0,0,1,320,45.49c8.74-4.4,17.74-8.13,26.81-11.76L356,30.06a85.62,85.62,0,0,1,9.44-2.87c10.26-2.82,20.42-6.31,30.84-8.45l17.38-3.56C433.93,11,454.2,7,474.84,5.61c26.41-1.8,53.7-.16,78.86,8.52a192.6,192.6,0,0,1,63.67,37.43,208.23,208.23,0,0,1,44.86,56.07c12.35,22.49,20.89,47,28.06,71.52q2.79,9.58,5.23,19.25a2.55,2.55,0,0,0,3.07,1.74l.13,0-3.07-1.74q2.22,8.88,4.18,17.84l2.41-3.17h-1.42a2.53,2.53,0,0,0-2.5,2.5c0-.47-.09.41,0-.09a1.47,1.47,0,0,1-.29.48c-.15.15.39-.42-.08.07-.16.17-.33.32-.5.48-.5.46.36-.23-.23.17a16.6,16.6,0,0,1-1.51.94,43.08,43.08,0,0,1-9.4,3.46c-11.54,3.21-23.53,4.93-35.39,6.46-40,5.18-80.52,7.21-120.84,8.59q-78.53,2.69-157.12.55c-42.63-1.13-85.38-3-127.77-7.78a376.6,376.6,0,0,1-39.85-6.14,95.59,95.59,0,0,1-12.54-3.51,22.07,22.07,0,0,1-3.66-1.63c-.52-.29-1-.6-1.51-.94s.27.29-.22-.17c-.17-.16-.35-.31-.51-.48-.46-.5,0,0-.08-.07a1.66,1.66,0,0,1-.29-.48c.1.35,0-.24.06.09-.07-3.21-5.07-3.22-5,0,.12,5.92,9,8.32,13.36,9.67,11.33,3.47,23.25,5.18,35,6.77,40.58,5.51,81.67,7.6,122.56,9q80.61,2.83,161.31.58c43.31-1.18,86.78-3.12,129.84-8.19,13.38-1.57,26.86-3.33,40-6.5a75.16,75.16,0,0,0,12.1-3.8c2.39-1,5.08-2.32,6.57-4.56a5.6,5.6,0,0,0,1-3l-2.5,2.5h1.42a2.53,2.53,0,0,0,2.41-3.16q-2-9-4.18-17.84a2.58,2.58,0,0,0-3.08-1.75l-.13,0,3.08,1.75c-6.53-25.74-14.55-51.38-25.6-75.58a220.93,220.93,0,0,0-41.47-61.64,203.91,203.91,0,0,0-60.15-43.17A168.23,168.23,0,0,0,537.93,4.47,210.26,210.26,0,0,0,496.9,0c-26.2-.46-52,3.71-77.57,8.91-12.08,2.45-24.21,4.68-36.09,8-6.69,1.86-13.33,3.87-20,5.69a82.34,82.34,0,0,0-9.3,2.94c-6.46,2.58-13,5.08-19.37,7.77a264.73,264.73,0,0,0-66.16,39.88,239.89,239.89,0,0,0-47.44,52.84c-14.26,21.66-24.76,45.84-33.24,70.28q-3.19,9.21-6,18.56c-.93,3.09,3.89,4.41,4.82,1.33Z"/><path class="cls-2" d="M348.9,130.62l-46.67,84.93q-5.1,10-10.47,19.9c38.64,2.64,85.28,4.29,135.8,4.56q-10.15-12.09-20-24.46Z"/><path class="cls-3" d="M346.74,129.36l-5.33,9.7-12.52,22.78-14.53,26.44L303.2,208.59c-3.47,6.33-6.73,12.77-10.12,19.14q-1.72,3.24-3.48,6.46a2.53,2.53,0,0,0,2.16,3.76q24.27,1.65,48.59,2.61,27.19,1.11,54.42,1.57,16.39.3,32.79.38a2.53,2.53,0,0,0,1.77-4.27Q424.1,232,418.94,225.7q-2.54-3.1-5.05-6.22l-2.43-3c-.41-.5-.81-1-1.22-1.52,0,0-.78-1-.52-.64-.7-1-1.36-2-2-3L395,192.93l-18.34-26.54L359.7,141.86c-2.84-4.1-5.63-8.26-8.52-12.33a1.09,1.09,0,0,0-.13-.17,2.56,2.56,0,0,0-3.42-.9,2.53,2.53,0,0,0-.89,3.42l7,10.19,16.37,23.7,18.6,26.92,13.69,19.82c5.58,8.08,11.95,15.55,18.22,23.11q2.55,3.09,5.13,6.16l1.77-4.27q-28.53-.15-57.07-.92-26-.72-52.06-2-13.35-.7-26.67-1.6l2.16,3.76c4.31-7.92,8.33-16,12.68-23.92l10.43-19,14.41-26.23,13-23.64c2.17-4,4.47-7.87,6.53-11.89l.09-.17C352.61,129.06,348.29,126.53,346.74,129.36Z"/></g></g></g></svg>