<svg xmlns="http://www.w3.org/2000/svg" viewBox="0 0 1206.86 926.85"><defs><style>.cls-1{fill:none;}.cls-2{fill:#fff;}</style></defs><title>jisoo-arm</title><g id="Layer_2" data-name="Layer 2"><g id="Layer_7_copy_2" data-name="Layer 7 copy 2"><g id="Layer_19_copy_2" data-name="Layer 19 copy 2"><g id="Layer_37" data-name="Layer 37"><path class="cls-1" d="M1003.09,308.93c-1.12-28.48-1.68-57-2.42-85.46-.75-28.32-1.67-56.65-3.52-84.93s-4.61-56.43-9.06-84.38C985.2,36,981.56,17.87,977.06,0a240.67,240.67,0,0,0-23.87,4.29c-167,39.81-325.58,57-494.87,30.47C448,75.26,442.71,117.1,439.19,159.29c-8,111-5,221-21.82,331.37.37-2.29,14.25-1.4,2.7-.24,2.36-.13,5-.13,7.12-.13,58.52-6.72,115.2,4.06,170.93,18.28a56.86,56.86,0,0,0,7.07,1.83c-1-50.11,1-101.11-1-151.11-14-2-27-1-41-3-.57-.1-1.15-.19-1.72-.3-13.32-2.34-27-6.23-38.71-13.07-16.73-9.8-25.18-29.07-28.21-48.28a66.37,66.37,0,0,1-1.36-17.35c0-41.22,8.83-81.07,13.7-121.77,3.8-31.75,37.2-48.92,65.81-58.45C603.91,86.69,637.88,83.81,670,91c33.86,7.56,64.78,25.36,92.06,46.36,13.4,10.32,27.62,21.52,38.83,34.27,10.82,12.31,12.31,32,15,48.06,12.69,74.4,6.52,150.36,15.61,225.11,1.53,12.55,4.39,24.9,6,37.4,1.13,8.71-2.22,14.14-2.65,22.21,11.2.55,24.88-5.4,36-8.06,16-3.84,32-7.47,48.24-10.35,33.09-5.9,66.95-8.77,100.41-4.41,1.9.82,5.71.87,7,1-8.42-28.55-13.87-57.92-17.34-87.47C1005.77,366.5,1004.22,337.69,1003.09,308.93Z"/><path class="cls-1" d="M565.91,46c-2.29,4.06-4.6,8.1-7,12.1a564.28,564.28,0,0,1-40.29,58.36c-16.52,21.29-15.75,55.37-18.52,81-2.9,26.72-6.93,52.84-6.93,79.87a110.45,110.45,0,0,0,1.36,17.35c3,19.21,11.48,38.48,28.21,48.28,11.68,6.84,25.39,10.73,38.71,13.07.57.11,1.15.2,1.72.3,14,2,27,1,41,3,2,50,0,101,1,151.11,6.78,13.85,23,25.27,23,25.27,18,13,38,16,59,17,29,1,56-6,84-13,16-5,30-10,45-18,0,0,13.47-7.2,21.36-17.16,3.89-4.91-.57-29.41-.8-36-.46-12.68-1.07-25.36-1.74-38-1.26-23.79-2.35-47.61-3.76-71.39-3.28-55.46-8.59-110.73-13.2-166-2.16-26-7.63-48.55-28.53-65.49-18.7-15.17-35.59-32.41-51.8-50.17q-14.87-16.29-29.09-33.15A1120.34,1120.34,0,0,1,565.91,46Z"/><path class="cls-1" d="M1201.74,707.69c-3.31-34.1-4-28-6.44-40-8.62-43.05-22.7-67-40.4-103-7.9-9.67-15.32-21.5-24.14-31.3-6.59-7.33-14.55-13.45-21.94-20a269.9,269.9,0,0,0-52.1-25.65c-10.69-2.24-21.2-5.27-32.08-6.55-15.66-1.83-31.07-3.51-46.9-2.64-46.71,2.57-92.41,12.77-137.54,24.66-8,6.11-15.24,13.9-24,18.72-14.46,8-29.64,12.81-44.93,18.57-28,6.1-55.27,13.32-84.24,12.88-21-.32-40.18-6.9-58.68-16.74-8.54-7.41-16-14.92-22-24.47C544.66,494.49,480.68,479,416.1,490.82a91.13,91.13,0,0,0-19.21,5.33c-41.27,16.53-72.27,54.66-84.38,97.46-3.53,12.47-4.15,25.1-10.08,36.58s-17.89,31-33.86,26.48a27,27,0,0,1-3.38-1.21V924.12H1131c13.16-4.76,25.71-10.77,36.82-19.25C1218.82,865.94,1207.19,763.86,1201.74,707.69Z"/></g><g id="Layer_36" data-name="Layer 36"><path class="cls-2" d="M91.32,281.56c-.17-.59-.34-1.22-.52-1.87A20.87,20.87,0,0,0,89.5,276c-.57-1.11-1.17-2.2-1.77-3.3a211.17,211.17,0,0,0-11.34-18.32c-7.85-11.42-16.57-22.19-25.26-33-4.54-5.66-9.07-11.34-13.46-17.14a11.8,11.8,0,0,1-1-1.35h0s0,.07,0,.08c-3.22,1.29-5.23-.54-7.94-2.07s-5.12-3.81-8.21-4.44c-5-1-9.78-.13-13.15,3.77s-5.65,8.14-4.57,13.4C5.5,226.9,12.52,235.67,24,242.86s24.16,10.41,36.71,15.95C72.64,264.06,83,271.3,91.32,281.56Z"/><path d="M93.73,280.89a38.3,38.3,0,0,0-3.17-8.26c-1.5-2.75-3-5.48-4.65-8.16-3.28-5.44-6.82-10.72-10.52-15.89C67.88,238.1,59.75,228.09,51.69,218c-2.22-2.77-4.44-5.54-6.63-8.34l-3.18-4.08a35.87,35.87,0,0,1-3-4.05,2.53,2.53,0,0,0-4.32,0l-.05.08L36,200.49a3.37,3.37,0,0,1-2.71.07,29.27,29.27,0,0,1-3.64-2.09c-2.32-1.38-4.41-3.09-7-4.05A16.21,16.21,0,0,0,7,197a21.9,21.9,0,0,0-5.13,6.71A15.89,15.89,0,0,0,0,211.54c.23,5,2.28,10.37,4.56,14.81,4.63,9,12.64,15.67,21.37,20.54,10.89,6.05,23,9.31,34.3,14.41a79.63,79.63,0,0,1,29.31,22,2.52,2.52,0,0,0,3.53,0,2.55,2.55,0,0,0,0-3.54,80.81,80.81,0,0,0-25.2-20.31C57.45,254,46.06,250.84,35.36,246c-9-4.07-18.14-9.54-23.87-17.85a39.43,39.43,0,0,1-5.62-12.32c-.6-2.25-1.18-4.54-.67-6.86a15.56,15.56,0,0,1,3.26-6.28,10.33,10.33,0,0,1,6.6-4.09,11.87,11.87,0,0,1,7.41,1.21c2.5,1.41,4.8,3.14,7.3,4.55A10.45,10.45,0,0,0,34,205.81c1.66.14,3.92-.24,4.87-1.73H34.53A27.69,27.69,0,0,0,37,207.36q1.52,2,3.05,4,3,3.83,6,7.6c4,5,8,10,12,15A334.44,334.44,0,0,1,79.87,264.2q2.75,4.38,5.25,8.9a47,47,0,0,1,2.4,4.48,41.27,41.27,0,0,1,1.39,4.64C89.77,285.32,94.6,284,93.73,280.89Z"/><path class="cls-2" d="M185.19,306.29c35.6-1.34,69.81-8.82,103.16-19.44A177.2,177.2,0,0,0,279.41,248c-.44-1.24-.9-2.58-1.37-3.56-25.26-52.06-75.89-107.22-74.85-167.27.11-6.26,2-15-1.72-20.54-5.48-8.09-14.36-10-21.51-2-18.08,20.17-6,64.81,3.67,86.62,3,6.78,6,12.51,9.56,19.53,1.79,3.48,8.34,12.83,6.1,16.9s-5.77,2.61-8.7.94c-7.05-4-13.82-10-17.83-16.86-10.4-17.93-16.68-37.21-19.87-57.55-2.59-16.57-1.07-33.7-5.6-50.21-1.55-5.65-7.24-11.49-13.72-9.93-8.81,2.11-12.66,6.68-14,16.52-6.37,47.63-2.3,77.67,31,114.48,3.72,4.11,6.48,6.33,7.86,11.06s.7,10-4.65,11.52c-6.45,1.78-10.86-1.25-15.94-6.17-34.81-33.67-39.63-61.83-42.59-108.17-.55-8.55.43-14-.92-21.19S89.7,48.73,82.57,48.23c-9.57-.67-15.43,5.28-17.43,14.6-4.38,20.29-6.42,38.34-1,59.39s16.46,41.62,27.56,60.61c2.69,4.59,6.19,9.83,5.36,15-.93,5.87-5.17,8.33-10.72,7.85a22.45,22.45,0,0,1-14.55-6.56C47.62,174.89,43,140.42,44.91,107.5c.43-7.42,1.77-14.65-.69-21.73S36,72.68,28.16,74.36c-9.59,2.06-13.3,10.85-14.24,19.88A183.48,183.48,0,0,0,36.69,202.82h0a11.8,11.8,0,0,0,1,1.35c4.39,5.8,8.92,11.48,13.46,17.14,8.69,10.83,17.41,21.61,25.26,33a211.17,211.17,0,0,1,11.34,18.32c.59,1.09,1.2,2.18,1.77,3.29a20.62,20.62,0,0,1,1.3,3.74c.18.65.35,1.28.52,1.87l.1.37a109.75,109.75,0,0,1,3.48,18C124.78,304.79,155,307.66,185.19,306.29Z"/><path d="M185.19,308.79c27.61-1.06,55-5.81,81.62-13q11.18-3,22.21-6.53a2.54,2.54,0,0,0,1.83-2.42,187.56,187.56,0,0,0-4-22.68c-.92-3.78-2-7.54-3.14-11.25a77.64,77.64,0,0,0-3.94-10.68c-5.46-11.12-11.73-21.82-18.16-32.39-13.57-22.29-28.08-44.11-39.36-67.69-10.57-22.12-18-46.06-16.19-70.81.46-6.22.44-12.45-3.58-17.58-3.66-4.67-9.26-7.69-15.28-6.49-5.61,1.12-9.83,5.81-12.67,10.5a42.14,42.14,0,0,0-5.08,13.46c-2.16,10.63-1.43,21.67.33,32.3A162.2,162.2,0,0,0,178,133.92c1.88,5,4.05,9.94,6.36,14.78,2.65,5.53,5.35,11.07,8.44,16.37a57.09,57.09,0,0,1,3.33,6.28,16.67,16.67,0,0,1,1,3.3,4.2,4.2,0,0,1,.09.95s0,.87,0,.31c0,.11-.22.75,0,.27-.92,2.24-2.69,1.66-4.49.73a46.08,46.08,0,0,1-8-5.3,46.62,46.62,0,0,1-7.18-7.21,58.56,58.56,0,0,1-5.31-8.71,149.92,149.92,0,0,1-8.69-19.52,162.87,162.87,0,0,1-9.36-42.31c-.6-7.62-.79-15.27-1.51-22.88-.36-3.86-.86-7.72-1.59-11.53-.64-3.36-1.3-6.87-3-9.9-3-5.47-8.9-9.36-15.26-7.93-4.78,1.07-9.23,3.45-12.07,7.53-3.24,4.66-3.67,10.61-4.33,16.07-.75,6.11-1.34,12.24-1.67,18.39a142.49,142.49,0,0,0,1.71,32.88,103.37,103.37,0,0,0,10.4,30c5.69,10.8,13.14,20.6,21.27,29.67,3.71,4.13,8.39,8,8.37,14.08,0,2-.67,3.87-2.63,4.74a9.63,9.63,0,0,1-7.45-.08,24.54,24.54,0,0,1-6.86-5.17q-3.51-3.39-6.83-6.94a140.89,140.89,0,0,1-11.1-13.4,108.88,108.88,0,0,1-14.38-27.09,148.62,148.62,0,0,1-7-30.23c-.75-5.61-1.3-11.24-1.75-16.88-.53-6.51-1.07-13-1-19.58,0-6.11.09-12.34-1.87-18.21-1.71-5.14-5.11-10-10.68-11.27a18.18,18.18,0,0,0-15.32,3.53c-4.31,3.52-6.22,8.82-7.33,14.09-3,14.32-5,29-3.45,43.59,1.6,15.11,6.65,29.54,12.89,43.31,3.12,6.88,6.57,13.59,10.2,20.21,1.79,3.29,3.64,6.54,5.51,9.79,1.78,3.08,3.72,6.09,5.32,9.27,1.38,2.75,2.37,5.77,1.5,8.83a5.9,5.9,0,0,1-3.62,4.1c-2.38.86-5.12.48-7.54-.09a19.39,19.39,0,0,1-7.95-3.79,50.08,50.08,0,0,1-6.69-7,78.07,78.07,0,0,1-5.46-7.44A87.79,87.79,0,0,1,54.75,168a123.94,123.94,0,0,1-7.37-36.19c-.39-6.29-.43-12.6-.21-18.9.11-3.43.33-6.84.61-10.25a58.48,58.48,0,0,0,.16-11.38c-.7-6.19-3.25-12.51-8.27-16.44s-11.24-4-16.77-1.2c-11.37,5.74-11.81,20.56-12.26,31.57A187,187,0,0,0,26.2,187.49q2.1,4.8,4.48,9.47a54.82,54.82,0,0,0,4.83,8.47Q42.65,214.76,50,223.9c9.6,12,19.25,23.94,27.63,36.8q2.94,4.51,5.64,9.18C85,272.78,87,275.79,88,279a117.66,117.66,0,0,1,4.39,20.93,2.54,2.54,0,0,0,1.83,2.41c23.49,3.8,47.2,6.45,71,6.75q10,.12,19.95-.31c3.21-.15,3.23-5.15,0-5a408.27,408.27,0,0,1-70-3.39c-6.57-.84-13.12-1.81-19.66-2.87l1.84,2.41A131.8,131.8,0,0,0,93,278.13c-1-3.53-3-6.71-4.83-9.88s-3.84-6.48-5.89-9.64C74,245.81,64.41,233.89,54.88,222c-4.85-6-9.72-12.08-14.41-18.25a56.41,56.41,0,0,1-5-8.47q-2.41-4.66-4.54-9.45a182.05,182.05,0,0,1-15.24-81.15c.43-9.77.6-24.63,12.38-27.74,5.3-1.39,9.7,1.72,12.27,6.21,3.55,6.2,3,13.37,2.4,20.22a184.64,184.64,0,0,0,.57,38A115.51,115.51,0,0,0,53.42,177.4a88.16,88.16,0,0,0,9.72,15.66c3.88,5,8.25,10.29,14.16,12.91,5,2.24,12,3.67,17,.62,5.46-3.32,6.35-10.47,4.25-16a63,63,0,0,0-4.83-9.2q-2.76-4.71-5.43-9.48c-3.69-6.58-7.22-13.25-10.45-20.06-6.36-13.42-11.81-27.7-13.71-42.51C62.34,95,64,80.62,66.9,66.55c1-4.9,2.19-10.19,6.36-13.4,3.37-2.59,9-3.56,12.85-1.31,4.22,2.51,5.57,8.35,6.15,12.85.83,6.42.16,13,.58,19.45,1.4,21.66,3.19,43.93,11.49,64.22a117.71,117.71,0,0,0,16.1,27.54,153.53,153.53,0,0,0,11.85,13.51c4.17,4.26,8.87,9.65,15,10.9,5.67,1.15,12.5-1,14-7.18,1.34-5.69-1.27-11.41-5-15.62-4.32-4.94-8.82-9.65-12.85-14.84a133.7,133.7,0,0,1-9.81-14.47,100.59,100.59,0,0,1-11.4-28.72,126.47,126.47,0,0,1-2.57-31.72c.19-6,.67-12,1.31-18,.33-3,.67-6.11,1.12-9.15a24,24,0,0,1,1.87-6.9c1.91-3.92,5.25-6,9.56-7.1,5.41-1.43,9.94,3.09,11.36,8,4.2,14.54,3.17,30,4.89,44.91a167.74,167.74,0,0,0,10.54,42.06A160.37,160.37,0,0,0,169.49,161a50,50,0,0,0,13.34,15.37,44.18,44.18,0,0,0,8,5.12c2.53,1.19,5.43,1.85,8,.28,5.24-3.25,3.32-9.47,1.19-13.95-1-2.17-2.26-4.25-3.47-6.33-1.4-2.39-2.62-4.87-3.87-7.34-2.77-5.45-5.69-11.34-7.94-16.76a166.06,166.06,0,0,1-8.93-28.93c-2.17-10.3-3.39-21-2.21-31.54a44.12,44.12,0,0,1,3.52-13.36c2-4.28,5-9.11,9.58-11,4.83-2,9.62.93,12.4,4.87,3.34,4.73,2.16,11.25,1.78,16.65-.85,12.12,1,24.57,4.12,36.26,6.51,24.75,19.08,47.5,32.21,69.27,13,21.54,27.18,42.47,38.27,65.08a70,70,0,0,1,3.52,9.75q1.67,5.31,3,10.73a178.24,178.24,0,0,1,3.89,21.61l1.84-2.41c-25.78,8.2-52.22,14.6-79.14,17.6q-11.64,1.29-23.36,1.75C182,303.91,182,308.91,185.19,308.79Z"/><path class="cls-2" d="M243.76,603.15a472,472,0,0,1,6.45-99c12.32-70.7,46.62-144.28,38.14-217.26C255,297.47,220.79,305,185.19,306.29c-30.2,1.37-60.41-1.5-90.29-6.35A166.7,166.7,0,0,1,96,321c-.8,59.71-32.62,121.71-47.16,176.15C32.75,557.29,22,613.71,22.68,671.8c.59,50.52,5.76,94.41,22.65,140.06,5.54,15,11,29.61,16.8,43.81C72.05,880,82.92,903,96.7,924.12H265.19V655.46C246.75,647.41,244.42,620.49,243.76,603.15Z"/><path d="M246.26,603.15a472.26,472.26,0,0,1,12.68-128.36c9.64-40,22.88-79.21,29.4-119.92,3.6-22.49,5.08-45.33,2.51-68a2.54,2.54,0,0,0-3.16-2.41C264,292,239.84,298,215.21,301.23a364.86,364.86,0,0,1-75.91,1.67c-14.65-1.14-29.23-3-43.74-5.37-1.42-.23-3.36.64-3.16,2.41,4,35.62-4.45,70.79-15.31,104.49-10.7,33.22-23.8,65.59-32.63,99.4C34.9,540.45,27,577.57,23,615.24A524.64,524.64,0,0,0,23,724.89a381.35,381.35,0,0,0,8.66,50.9c4.35,17.77,10.5,34.87,16.93,52,6.59,17.5,13.41,34.94,21.2,51.94,3.87,8.45,8,16.78,12.42,24.94q3,5.57,6.26,11,1.77,3,3.6,5.87c.92,1.46,1.85,3.87,3.37,4.76,1.77,1,5.37.34,7.27.34H265.19a2.53,2.53,0,0,0,2.5-2.5V655.46a2.46,2.46,0,0,0-1.23-2.16c-18.07-8.21-19.53-33-20.2-50.15-.13-3.2-5.13-3.22-5,0,.74,18.92,2.84,45.45,22.67,54.47l-1.24-2.16V924.12l2.5-2.5H96.7l2.16,1.24C87.39,905.18,77.93,886.31,69.57,867c-8.83-20.41-16.87-41.3-24.16-62.3-13.54-39-18.87-79.86-20-121-1.2-43.32,3.38-86.17,12.11-128.58C42,533.56,47.05,512,53.17,490.85c5.52-19.11,12.41-37.8,19-56.55,13.37-37.9,27-77.58,26.28-118.3-.1-5.37-.48-10.72-1.07-16.06l-3.17,2.41c25.76,4.16,51.81,6.94,77.93,6.77a360.82,360.82,0,0,0,75.46-8.61c14-3.08,27.76-6.92,41.4-11.24l-3.17-2.42c4.64,41-4,81.82-14.38,121.31C261,448.11,249,487.54,244.12,528.7a483.51,483.51,0,0,0-2.86,74.45C241.38,606.36,246.38,606.38,246.26,603.15Z"/></g></g></g></g></svg>