<svg xmlns="http://www.w3.org/2000/svg" viewBox="0 0 734.27 745.97"><defs><style>.cls-1{fill:#fff;}.cls-2{fill:#231f20;}</style></defs><title>jisoo-body2</title><g id="Layer_2" data-name="Layer 2"><g id="Layer_1_copy" data-name="Layer 1 copy"><path class="cls-1" d="M540,2.58H169.74c-26.15,40.24-40.89,86.23-45.92,132.86-6.82,63.31-3.65,124.76-7.33,187.62-2.13,36.46-5.79,71.93-.25,108.62s20.16,71.52,48.55,97.12C178.42,541.1,195,550.37,213,557.2c57.73,21.89,121.87,21.33,181.63,8,63.89-14.19,122.22-41.44,181.37-68.68,7.52-3.46,11.37-57.41,12.73-66.41q5.4-35.62,7.76-71.62a801.07,801.07,0,0,0-3.26-143.6C584.9,142.1,573,68.41,540,2.58Z"/><path class="cls-2" d="M540,.08h-366a34.62,34.62,0,0,0-4.2,0C167.7.33,167,2.27,166,3.85c-1.44,2.26-2.84,4.55-4.2,6.85q-4,6.66-7.54,13.55a292.73,292.73,0,0,0-12.45,27.28A311.3,311.3,0,0,0,125,110.4c-3.9,21.27-5.58,42.92-6.75,64.48-1.22,22.56-1.6,45.14-1.93,67.72-.33,22.76-.61,45.53-1.64,68.27-1,22.51-3.11,45-3.67,67.5-1,39.76,3.6,80.69,23.3,115.94a139.58,139.58,0,0,0,35.57,42C185.39,548.41,203.34,556.83,222,563c39.74,13.22,82.35,16.37,123.89,12.47,42.39-4,83.66-15.34,123.46-30.15,19.9-7.41,39.47-15.66,58.87-24.27q14.58-6.47,29.07-13.14l14.77-6.79c2.41-1.12,5.33-1.9,7.1-4,2.53-3,3.53-7.47,4.44-11.2,1.4-5.72,2.34-11.55,3.18-17.38,1.62-11.22,2.72-22.5,3.94-33.77l.27-2.49c.1-.84.14-1.1.2-1.49.76-5.34,1.56-10.68,2.27-16q2.25-17,3.83-34.15,3.15-34.17,3.49-68.53c.43-44.35-3.4-88.35-9.38-132.26C585.74,138.3,578,96.85,564.9,57A414.73,414.73,0,0,0,542.12,1.31c-1.44-2.88-5.75-.35-4.32,2.53,22.41,44.86,35.16,93.74,43.55,143,8.79,51.64,14.39,104,14.46,156.43q0,40.41-3.84,80.69c-1.83,19.11-4.94,38-6.92,57.11-1.48,14.22-2.79,28.64-6,42.59a52.64,52.64,0,0,1-2.22,7.58,14,14,0,0,1-1.13,2.26,3.63,3.63,0,0,1-.8.88c-5.37,3.14-11.58,5.34-17.24,7.94s-11.42,5.23-17.14,7.83c-46.67,21.13-94.3,40.87-144.42,52.24-48.6,11-99.89,13.73-148.72,2.54-23.59-5.4-47.08-13.68-67.24-27.32-18.52-12.53-33.3-29.93-43.61-49.71-23.34-44.77-21.89-96.06-18.74-145q2.6-40.23,3.24-80.48c.44-27,.62-53.93,1.89-80.86,1.22-26,3.11-52.05,8.42-77.53a301.36,301.36,0,0,1,23-68.75A281.62,281.62,0,0,1,171.9,3.84l-2.16,1.24H494.53c14.9,0,29.89.44,44.79,0H540C543.18,5.08,543.18.08,540,.08Z"/><path class="cls-1" d="M12.68,684.42C7.36,641.37-1.5,599.71,4.51,556s15.24-81.51,52.55-114.24C91.42,411.61,138.33,406,182.3,407.06c51,1.22,91.65,23.73,139.74,37.39,55.17,15.66,102.09-15.56,146-33.4s105.15-29.28,149.47-25.35c42.25,3.75,87,41.09,102.64,84.9s12.44,89.83,7.24,135.32-12.08,91.84-4,137.47H15.27S16.29,713.68,12.68,684.42Z"/><path class="cls-2" d="M15.18,684.42c-2.86-22.93-6.73-45.74-8.79-68.77a281.64,281.64,0,0,1,1.86-68.22c2.64-17.2,6.22-34.38,12.63-50.62a136.09,136.09,0,0,1,29.61-45.44,128.74,128.74,0,0,1,49.83-31.53c18.24-6.32,37.52-9.12,56.75-10,20.53-1,41-.17,61.15,4.11,20.31,4.32,39.9,11.35,59.41,18.37s39.5,15.23,60.14,17.94c19.28,2.54,38.72-.23,57.21-5.91,18.34-5.63,35.73-13.86,53.15-21.81a382,382,0,0,1,52.61-20c36.94-10.71,76.77-17.49,115.31-14.39,36.05,2.89,68.87,27.73,88.44,57.11,24.32,36.5,26.65,83.08,23.79,125.54-3.14,46.62-12.71,92.84-10.78,139.73a257.3,257.3,0,0,0,3.56,33.59l2.42-3.16H26c-3.13,0-6.41-.3-9.53,0a11.61,11.61,0,0,1-1.18,0l2.5,2.5a384.72,384.72,0,0,0-2.59-59c-.38-3.15-5.39-3.19-5,0a384.72,384.72,0,0,1,2.59,59,2.53,2.53,0,0,0,2.5,2.5H694.68c9.2,0,18.42.18,27.61,0h1.19a2.54,2.54,0,0,0,2.41-3.16c-8.37-48-.31-96.43,4.88-144.24,4.83-44.55,7.26-92.33-10.51-134.57-14.07-33.46-43.13-61.89-77.13-74.75-16.55-6.25-34-7.13-51.57-6.63a354.81,354.81,0,0,0-59.62,7.16,372.17,372.17,0,0,0-57.43,16.18c-17.83,6.68-34.84,15.3-52.3,22.85-18.27,7.91-37.41,14.83-57.35,16.85a112.69,112.69,0,0,1-31.6-1.09c-10.65-1.94-21-5.48-31.28-8.93C282,428.83,262.4,421,242.21,415c-20.45-6.15-41.36-10.1-62.76-10.47-38.33-.65-79.07,3.95-111.65,25.85-31.18,21-50.7,53.66-59.38,89.7a292,292,0,0,0-8.31,59C-.6,602.58,2.18,626,5.38,649.23,7,661,8.71,672.67,10.18,684.42,10.57,687.57,15.57,687.61,15.18,684.42Z"/><path class="cls-1" d="M454.6,434.25c-42.32,48.89-130.74,70.86-176.29,10.38-9.36-12.44,3.23-89.27-3.45-93.28-8.64-5.18-17.87-3.62-27.42-4.24-14.49-1-30.41-4.46-42.42-13.05-14-10-19.83-23.62-24.26-39.76-1.36-4.94-.89-9.77-1.42-14.72-.1-1,.08-1.83,0-2.79a.32.32,0,0,0,0-.1c0-.05,0-.2,0-.25v-.12c0-.53,0-1.11,0-1.63s0-1.12,0-1.57,0-.8,0-1.17c0-.92.05-1.89.08-2.75s.06-1.65.1-2.46c.34-6.33.79-12.61,1.33-18.92,0-.36.06-.71.1-1.07.88-8.74,1.83-17.47,2.8-26.2a.37.37,0,0,1,0-.11c.33-2.79.6-5.83.88-8.74,2.17-22.34,2.33-49,15.47-67.51,28.11-39.59,54.5-76.63,83-115.93,1.54-2.13,9.68-9.35,8.66-14,39.58,48.34,87.83,96.34,135.85,136.45,16,13.39,22,32.85,24,53.54,6.34,66.33,5.51,133.13,9,199.6.33,6.29.41,12.95-.86,18.83A26,26,0,0,1,454.6,434.25Z"/><path class="cls-2" d="M452.83,432.48a137.07,137.07,0,0,1-52.45,36.88c-19.75,7.9-41.73,11.66-62.88,8.25a88.74,88.74,0,0,1-55.38-32.13c-2.1-2.61-2.85-3.85-3.55-6.86a54.52,54.52,0,0,1-1.15-9.4,252,252,0,0,1,.24-25.93c.41-9.19,1-18.37,1.43-27.56.3-6.6.76-13.38-.08-20-.24-2-.55-4.31-2-5.83s-4.26-2.54-6.35-3.25A39.18,39.18,0,0,0,260,344.93c-7.36-.37-14.63-.2-21.94-1.3a87.34,87.34,0,0,1-20.53-5.48,53.78,53.78,0,0,1-28-26.47,97.68,97.68,0,0,1-6.43-18.05c-1.06-4.07-.89-8.24-1.18-12.4-.19-2.7-.16-5.4-.1-8.11.35-16,2.17-32,3.93-47.93,1.56-14.15,2.28-28.42,4.12-42.54,1.77-13.6,5.11-26.93,13.15-38.24q14.66-20.64,29.34-41.24Q246.83,83,261.28,62.86q7.44-10.33,14.9-20.66c4-5.51,7.59-10.86,11.89-15.65,3.13-3.49,7.05-7.88,6.2-12.93l-4.18,2.44c20,24.42,41.34,47.77,63.61,70.15s45.42,43.74,69.53,64c5.16,4.34,9.92,8.81,13.65,14.47a67.83,67.83,0,0,1,7.91,16.81c4.43,13.92,5.09,28.73,6.18,43.19,2.49,33.22,3.49,66.53,4.42,99.82.47,16.79.93,33.58,1.55,50.37q.45,12.36,1.06,24.73c.38,7.78,1.08,15.82-.8,23.47a23.14,23.14,0,0,1-4.37,9.39c-2.05,2.46,1.47,6,3.53,3.54,10.11-12.15,6.88-30.41,6.24-44.93-.77-17.06-1.29-34.13-1.78-51.2-1-34-1.77-68-3.94-102q-.79-12.57-1.87-25.12A210,210,0,0,0,452.35,191c-2.48-12.71-7.35-25-15.8-35-4.71-5.56-10.6-10-16.11-14.66q-9.12-7.8-18.05-15.8-18-16.14-35.29-33.06C344.05,69.89,322,46.3,301.18,21.62q-3.81-4.53-7.55-9.1c-1.76-2.14-4.54.26-4.18,2.43.32,1.9-1.83,4.36-2.89,5.7-1.42,1.79-3.05,3.4-4.54,5.13-2.36,2.73-4.34,5.85-6.45,8.77l-7.4,10.23Q253.26,65.45,238.43,86.2q-14.72,20.58-29.38,41.22c-4.65,6.54-9.84,12.94-13.83,19.92a75.22,75.22,0,0,0-7.38,19.13c-3.35,13.51-4.06,27.5-5.26,41.32-1.41,16.1-3.63,32.12-4.8,48.25-.5,6.82-1,13.68-.93,20.52,0,7.55.42,15,2.59,22.23,3.69,12.34,9.17,24.28,18.87,33.06,10.62,9.62,24.48,14.49,38.46,16.6,7.28,1.09,14.48,1.19,21.81,1.42a36.2,36.2,0,0,1,11.13,1.78,20.82,20.82,0,0,1,2.52,1.09c.46.24.9.55,1.37.77.22.1-.2-.06-.11-.1-.23.08.06,0-.12-.09s0-.14.08.18c.15.53-.16-.47,0-.05l.19.57c.12.47.22.93.32,1.4,0,.23.07.47.11.7,0,0,0-.11,0,.33.07.66.12,1.32.16,2,.22,3.32.18,6.65.1,10-.22,8.82-.81,17.62-1.28,26.43-.5,9.22-1,18.46-.87,27.7.07,6.57,0,13.89,2.33,20.14,1.45,3.93,4.55,7.11,7.29,10.18a94.77,94.77,0,0,0,12.68,11.76,90.88,90.88,0,0,0,28.91,14.88c20.89,6.38,43.55,5.32,64.41-.58a145.72,145.72,0,0,0,57.51-31.68,128.12,128.12,0,0,0,11-11.21C458.47,433.6,454.94,430.05,452.83,432.48Z"/></g></g></svg>