<svg xmlns="http://www.w3.org/2000/svg" viewBox="0 0 954.03 334.98"><defs><style>.cls-1{fill:#fff;}.cls-2{fill:#231f20;}</style></defs><title>jisoo-hand2</title><g id="Layer_2" data-name="Layer 2"><g id="Layer_1_copy" data-name="Layer 1 copy"><path class="cls-1" d="M358.66,85.58c-27.45-45-73.27-72.84-129.6-81.06-65.84-9.6-143.59,15-191.7,64.77-12.52,12.95-25.22,27-34.5,41.21l-.34.54H372.74C368.42,102.42,363.75,93.92,358.66,85.58Z"/><path class="cls-2" d="M360.82,84.32a168.59,168.59,0,0,0-54.2-54.79c-23-14.44-49.24-23.28-76-27.29S176.19-.23,149.7,5.66A240.31,240.31,0,0,0,72.53,37.52a208.26,208.26,0,0,0-32.22,25.3A314.48,314.48,0,0,0,7.22,100c-2.4,3.19-4.71,6.44-6.86,9.8a2.52,2.52,0,0,0,2.16,3.76H357.71c4.8,0,9.61.09,14.4,0h.63a2.53,2.53,0,0,0,2.16-3.76q-6.52-13-14.08-25.46c-1.67-2.74-6-.23-4.31,2.53q7.56,12.42,14.07,25.45l2.16-3.76H17.55c-4.78,0-9.64-.27-14.4,0H2.52l2.16,3.76C13.6,98.38,24.85,86,36.24,74.07A210.42,210.42,0,0,1,67.09,47.19,233,233,0,0,1,140.84,13c25.7-6.89,52.65-9.64,79.17-7,26.2,2.55,52.3,10.12,75.41,22.81a163.68,163.68,0,0,1,55.82,50q2.75,4,5.27,8.1C358.18,89.59,362.51,87.08,360.82,84.32Z"/></g><g id="Layer_2-2" data-name="Layer 2"><path class="cls-1" d="M436.57,7.81c-26.46,2.57-52.3,4.79-78.6,10.06-20.25,4.06-41.88,8.86-58.84,21.32-18.56,13.63-2.71,19.4,11.72,17.43,18.67-2.55,35.77-11.3,54.14-13.18,6.81-.7,12.51-.12,14.25,7,1.2,4.91-2.56,8-8.06,9.63-14.88,4.52-71.5,2.63-64.82,28,3.27,12.39,26.42,4.8,35,2.59,10.84-2.8,20.44-5.22,31.22-7.15,4.64-.83,11-1.45,15.47,0,6,2,9.57,7.17,5.24,12.66-4.93,6.25-15,5-21.89,6-17.5,2.5-33.12,5.87-49,13.28-4,1.87-6.88,6.77-5.52,10.88,1.73,5.23,6,5.77,10.82,5.61,13.16-.45,25.45-4.72,37.63-9.08,6.21-2.22,12.47-5.17,18.82-4.8,16,1,26.56,10.13,6.7,18.46-11.83,5-23,3.42-35.43,7-9.9,2.85-24.55,6.76-21.53,20.33,2.12,9.5,13.08,6.69,20.61,4.76,30.78-7.94,62.56-10.7,94.33-11.38C448.77,107.39,447.71,56.67,436.57,7.81Z"/><path class="cls-2" d="M436.57,5.31c-19,1.85-38,3.56-56.95,6.32q-13.77,2-27.4,4.87a245.66,245.66,0,0,0-24,6A114.84,114.84,0,0,0,305.61,32,72.56,72.56,0,0,0,295,39.28c-2.53,2.12-5,4.62-6.19,7.73a7.43,7.43,0,0,0,.5,6.71A11.35,11.35,0,0,0,295,57.9c5.67,2.17,12.17,1.81,18,.9,17.22-2.68,33.23-10.63,50.57-12.71,3-.37,6.29-.73,9,.11a4.24,4.24,0,0,1,1.35.59,4.09,4.09,0,0,1,1.23,1,8.45,8.45,0,0,1,1.58,3.46,3.57,3.57,0,0,1-.52,2.94,8.1,8.1,0,0,1-3.05,2.38,22.19,22.19,0,0,1-5.52,1.75c-1.67.34-3.36.61-5,.85l-.68.09-.24,0-1.65.22L357,59.9c-4.86.58-9.72,1.13-14.57,1.8-9.32,1.29-19,2.87-27.53,7A23.26,23.26,0,0,0,305.82,76a14.78,14.78,0,0,0-2.23,11,11.69,11.69,0,0,0,9.16,9.81c5.27,1.29,10.95.49,16.19-.53,4.81-.94,9.51-2.33,14.26-3.56,8.86-2.28,17.74-4.5,26.73-6.23a59.22,59.22,0,0,1,11.64-1.38c3.3,0,7,.56,9.49,2.94,2.11,2,2.07,4.44.13,6.74s-4.89,3.27-7.8,3.81a90.28,90.28,0,0,1-9.29.83c-4.07.32-8.12,1.06-12.13,1.74A180.48,180.48,0,0,0,337.25,107c-4.2,1.35-8.33,2.91-12.38,4.65-3.71,1.59-7.12,3.22-9.22,6.86a10.77,10.77,0,0,0-.14,10.89,10.32,10.32,0,0,0,8,4.91c4.05.52,8.28,0,12.3-.58A99,99,0,0,0,348.89,131c4.3-1.2,8.54-2.61,12.76-4.09s8.51-3.23,12.83-4.64a27.55,27.55,0,0,1,12-1.42,33.53,33.53,0,0,1,4.45.83,28,28,0,0,1,3.85,1.28c.54.25,1.08.53,1.6.83.21.13.42.25.62.39l.39.26c.38.26-.08-.08.12.09a11.21,11.21,0,0,1,1.06,1c.38.41-.06-.16.13.18s.26.42.37.63-.06-.43,0,.14c.05.28.11.59.06.09,0,.2,0,.4,0,.6,0,.54.15-.3,0,.22-.08.21-.12.42-.2.63.18-.48,0,0-.14.22a6.42,6.42,0,0,1-.41.65c.25-.35-.29.32-.38.42-2.32,2.5-5.78,4.09-8.94,5.32a57,57,0,0,1-12.53,3.08c-4.27.61-8.56,1-12.82,1.59a83.78,83.78,0,0,0-11.29,2.55c-5.47,1.59-11.1,3.41-15.62,7a15.15,15.15,0,0,0-5.36,15.74,10.49,10.49,0,0,0,5,7,15.13,15.13,0,0,0,8.15,1.45,48.51,48.51,0,0,0,8.78-1.55c4.1-1,8.18-2.05,12.31-3A379.36,379.36,0,0,1,421.53,161c9.09-.61,18.2-1,27.31-1.17a2.54,2.54,0,0,0,2.5-2.5c0-19.59-.21-39.18-1.08-58.74S447.79,59.28,445,39.81c-1.58-11-3.56-21.87-6-32.66-.71-3.14-5.54-1.81-4.82,1.33a445.73,445.73,0,0,1,8.92,57.58c1.79,19.37,2.61,38.82,3,58.27.21,11,.27,22,.29,33l2.5-2.5a505.55,505.55,0,0,0-55.93,4c-9.23,1.23-18.43,2.77-27.54,4.74-4.26.92-8.48,1.95-12.71,3-1.34.34-2.69.67-4.05.94a27.41,27.41,0,0,1-3.8.55q-1,.08-1.95.06l-.95,0-.4,0c-.47,0,.56.11-.24,0a10.26,10.26,0,0,1-1.71-.45c-.42-.14.08.07-.3-.13a8.77,8.77,0,0,1-.84-.49c-.41-.26-.17-.11-.08,0-.13-.1-.25-.22-.37-.33s-.35-.35-.51-.55c.18.23-.22-.34-.29-.45s-.41-.78-.42-.79a11.33,11.33,0,0,1-.75-4,9.23,9.23,0,0,1,2-6.1,17.17,17.17,0,0,1,5.94-4.39,47.66,47.66,0,0,1,7.43-2.85,98.11,98.11,0,0,1,9.69-2.59c8.28-1.64,16.83-1.65,25-3.91a43.3,43.3,0,0,0,11.81-5.09c2.44-1.57,4.82-3.57,5.87-6.36,1.86-5-2.45-9-6.58-10.86a32.69,32.69,0,0,0-21.19-2c-4.32,1.11-8.44,2.9-12.63,4.4s-8.43,3-12.71,4.27c-8.08,2.45-16.75,4.58-25.26,4.25-2.58-.1-4.76-.68-5.88-3.19-1.23-2.75.23-5.8,2.44-7.6a20.58,20.58,0,0,1,5-2.53c1.91-.83,3.85-1.6,5.8-2.32,4-1.47,8-2.75,12.06-3.86a213.82,213.82,0,0,1,24.94-5c6.1-.91,13.29-.32,19.33-2.8a14,14,0,0,0,7.71-7,9.19,9.19,0,0,0-1.65-10c-5.29-6-14.7-5.39-21.83-4.28-8.72,1.35-17.33,3.49-25.88,5.65-5.49,1.39-10.94,3-16.45,4.26-5.12,1.19-9.91,2.11-15.22,1.57a1.48,1.48,0,0,1-.43-.06c-.27,0-.55-.09-.82-.15a13.6,13.6,0,0,1-1.66-.46c-.14,0-.77-.29-.34-.1-.23-.1-.45-.21-.68-.33l-.64-.37c-.15-.1-.73-.53-.35-.22a9,9,0,0,1-1-1c-.07-.08-.27-.38,0,0-.06-.09-.13-.18-.18-.27l-.44-.75a2.59,2.59,0,0,1-.14-.29c.19.4,0,0,0,0-.1-.26-.18-.53-.26-.79-.14-.5-.25-1-.34-1.52,0-.12-.11-.77-.07-.44s0-.3,0-.42c0-.46,0-.91,0-1.37,0-.2,0-.41,0-.62s.08-.77,0-.35,0-.26.06-.34.09-.44.15-.66c.09-.38.22-.74.34-1.11l.09-.23c.11-.32-.21.45-.06.14s.18-.4.28-.59c.17-.35.37-.68.57-1s.86-1.15.44-.64a17.38,17.38,0,0,1,1.66-1.77c.31-.28.64-.55,1-.81s-.33.22.15-.12l.69-.48a33.28,33.28,0,0,1,5.05-2.74c.56-.25-.11,0,.3-.12l.71-.29c.52-.2,1-.4,1.56-.58,1.05-.38,2.11-.72,3.18-1,2.25-.67,4.54-1.23,6.84-1.72,9.45-2,18.13-2.82,27.74-4a103.35,103.35,0,0,0,11.06-1.73c5.36-1.24,12-4.49,11.81-10.92a11.85,11.85,0,0,0-4-8.55,13.67,13.67,0,0,0-8.57-2.73A56.53,56.53,0,0,0,357.93,42c-4.25.78-8.44,1.84-12.59,3-8.32,2.37-16.5,5.22-24.91,7.25-6.45,1.56-13.76,3-20.07,1.9a21.68,21.68,0,0,1-3.65-.92c-.12-.05-.81-.33-.39-.14l-.71-.34a8.8,8.8,0,0,1-1.34-.83c.38.29,0,0-.17-.17s-.31-.31-.45-.47.15.38-.09-.14c-.05-.11-.36-.73-.23-.4s-.06-.24-.09-.36c-.12-.38-.05.47,0-.12,0-.22,0-.44,0-.65,0,.56,0-.07.08-.31a6.18,6.18,0,0,1,.23-.73c.1-.26,0,0,0,.07.07-.15.14-.3.22-.44a11.36,11.36,0,0,1,1-1.59A23.89,23.89,0,0,1,298.35,43a65.27,65.27,0,0,1,10-6.73c14.16-8,30.24-11.83,46-15.08,18.17-3.74,36.51-6.23,54.95-8.16,9.08-1,18.17-1.8,27.26-2.68a2.57,2.57,0,0,0,2.5-2.5A2.52,2.52,0,0,0,436.57,5.31Z"/><path class="cls-1" d="M471.39,7.74c-2-.08-33.75,0-33.73.11,8.61,48.77,11.82,99.63,11.21,149.38,127.82,1.45,247.81,51.53,346,131.85,5.14,4.2,43,35.42,52.13,43.42C882.4,292,916.29,250.34,951.56,209.67,804.71,101.94,658.16,15,471.39,7.74Z"/><path class="cls-2" d="M471.39,5.24c-5.95-.19-11.93,0-17.88,0l-11,0c-1.71,0-3.88-.32-5.55.16a2.56,2.56,0,0,0-1.75,3.07,770.74,770.74,0,0,1,10.95,116q.38,16.36.17,32.75a2.53,2.53,0,0,0,2.5,2.5,509.16,509.16,0,0,1,97.07,10.55,540.27,540.27,0,0,1,92.31,28.06,581.51,581.51,0,0,1,86.83,44,640.52,640.52,0,0,1,71,50.91c15.32,12.59,30.67,25.17,45.75,38q1.71,1.46,3.41,2.94a2.54,2.54,0,0,0,3.54,0C876.29,302.75,903,270.52,930,238.63q11.6-13.65,23.31-27.19a2.56,2.56,0,0,0-.51-3.93c-28.41-20.83-57.18-41.18-86.63-60.51-28.74-18.86-58.13-36.75-88.39-53.06a849,849,0,0,0-91.44-42.75A681.81,681.81,0,0,0,589,20.86a636.69,636.69,0,0,0-104.35-15c-4.43-.27-8.85-.48-13.28-.66-3.22-.13-3.21,4.87,0,5A632.28,632.28,0,0,1,576.24,23.17,670.6,670.6,0,0,1,673.53,51.6a811.49,811.49,0,0,1,92.26,41.61c30,15.74,59.15,33.09,87.62,51.44,29.41,18.94,58.1,39,86.4,59.52q5.25,3.81,10.49,7.66l-.51-3.93c-27.4,31.62-54,63.87-81.18,95.71Q857,317.23,845.24,330.73h3.54c-14.85-13-30.29-25.44-45.54-38a690.15,690.15,0,0,0-65.85-48.52,590.23,590.23,0,0,0-86.22-45.86,547.48,547.48,0,0,0-92.66-30.43A516.74,516.74,0,0,0,461,155q-6.07-.21-12.15-.28l2.5,2.5A845.36,845.36,0,0,0,445,39.6q-2.09-16.28-4.91-32.42l-1.74,3.08c-1.28.36.37.06.9.05l3.71,0c3.7,0,7.4,0,11.1,0,5.78,0,11.58-.18,17.35,0C474.61,10.35,474.61,5.35,471.39,5.24Z"/></g></g></svg>