<svg xmlns="http://www.w3.org/2000/svg" viewBox="0 0 927.73 695.64"><defs><style>.cls-1{fill:#fff;}.cls-2{fill:#231f20;}</style></defs><title>jisoo-body2</title><g id="Layer_2" data-name="Layer 2"><g id="Layer_7_copy_2" data-name="Layer 7 copy 2"><g id="Layer_19_copy" data-name="Layer 19 copy"><g id="Layer_18_copy_4" data-name="Layer 18 copy 4"><path class="cls-1" d="M678.23,695l7.93-5.55c31.15-21.85,58-38,70-76.26,8.29-26.38,6.3-58.24,4.89-85.67-1-19.73-4.88-39.23-9.52-58.7-6.88-28.9-15.46-57.73-18.91-87.09-3.37-28.6-4.92-57.41-6.05-86.17-1.12-28.48-1.68-57-2.42-85.46-.75-28.32-1.67-56.65-3.52-84.93S716,68.77,711.54,40.82q-2.91-18.26-6.85-36.32C704.62,18,588.67,29,445.64,29s-259-11-259-24.5h0q-2.51,8.43-4.7,17l-.13,0C171.4,61.92,166.16,103.76,162.64,146c-7.11,85.18-5.74,170.86-13,256.05-7.06,82.3-22.66,165.9-23.19,248.52-.1,16.74-.8,31.12.69,44.51Z" transform="translate(0 -2)"/><path class="cls-2" d="M679.49,697.19c15.71-11,32.09-21.44,46.48-34.16,13.71-12.1,24.46-26.76,30.81-44,7.82-21.17,8.48-44.3,7.85-66.62-.67-24.06-2.69-47.69-7.76-71.26-5.33-24.76-12.55-49.08-17.59-73.91-5.11-25.21-7-51-8.56-76.62-3.08-52-3.3-104.1-5.19-156.14-1.85-51.07-5.27-102.27-14.74-152.56q-1.71-9.08-3.69-18.1c-.61-2.83-4.82-2.08-4.91.66a1.72,1.72,0,0,1-.41.54,8.59,8.59,0,0,1-2.36,1.61,45.88,45.88,0,0,1-9.63,3.47C678.13,13.3,666,15,654.07,16.55c-40.15,5.13-80.74,7.15-121.17,8.52q-78.22,2.66-156.54.54c-42.6-1.11-85.31-3-127.68-7.7a387.94,387.94,0,0,1-40.16-6.09,101.62,101.62,0,0,1-12.74-3.48c-2.22-.8-5.06-2-6.28-3.3-.44-.48-.41-.63-.41-.54a2.54,2.54,0,0,0-2.5-2.5h0a2.56,2.56,0,0,0-2.41,1.83q-2.49,8.45-4.7,17L182.56,19l-.13,0a2.56,2.56,0,0,0-3.08,1.74c-10.77,42.33-16,85.82-19.54,129.29-3.59,44.65-4.92,89.44-6.47,134.2-1.56,45.09-3.42,90.19-7.85,135.11-4.35,44-10.57,87.75-15.23,131.69-2.61,24.6-4.74,49.26-5.74,74-.51,12.43-.58,24.87-.76,37.3-.16,10.91-.33,21.84.83,32.7a2.56,2.56,0,0,0,2.5,2.5H655.81c7.16,0,14.34.18,21.49,0h.93c3.21,0,3.22-5,0-5H135.39a64.72,64.72,0,0,0-7.37,0,7.21,7.21,0,0,1-.93,0l2.5,2.5a244.84,244.84,0,0,1-.88-28.92c.13-10.79.18-21.57.5-32.35.66-22.23,2.29-44.42,4.41-66.55,4.24-44,10.44-87.82,15.2-131.78,9.62-88.95,8.62-178.43,14.67-267.61,3.32-49,8.56-98.08,20.68-145.73l-3.07,1.75.13,0a2.56,2.56,0,0,0,3.07-1.75q2.2-8.52,4.7-16.95L186.59,7h0l-2.5-2.5c.17,5.83,8.66,8.19,13,9.55,11.19,3.49,23,5.18,34.58,6.77,40.72,5.57,82,7.67,123,9.13q81.3,2.88,162.7.59c43.52-1.18,87.18-3.13,130.43-8.23,13.36-1.58,26.82-3.33,39.91-6.51,5.63-1.37,14.93-3,18.44-8.3a5.54,5.54,0,0,0,1-3l-4.91.67c10.77,49.35,15.18,99.77,17.47,150.15,2.33,51.22,2.55,102.52,4.86,153.75,1.13,25.14,2.62,50.34,5.8,75.31,3.13,24.47,9.53,48.31,15.51,72.19,6,24.13,11.43,48.36,12.72,73.27,1.17,22.56,2.56,45.57-1.37,67.95-3.4,19.37-11.57,37.38-24.87,52-12.26,13.44-27.51,23.65-42.35,34-4.37,3-8.72,6.1-13.09,9.15C674.35,694.7,676.84,699,679.49,697.19Z" transform="translate(0 -2)"/><path class="cls-1" d="M558.45,417.15c-1.25-23.79-2.34-47.61-3.75-71.38-3.28-55.47-8.6-110.73-13.2-166-2.16-26-7.63-48.55-28.53-65.5-18.71-15.16-35.59-32.4-51.8-50.17q-14.88-16.29-29.1-33.15l-.41,0c-.55-.66-1.09-1.33-1.65-2-50.53-.28-97.15-1.94-135.79-4.57q-2.27,4.15-4.58,8.29h-.28q-3.44,6.09-7,12.11a568,568,0,0,1-40.29,58.36c-16.53,21.28-15.75,55.36-18.52,81-2.9,26.72-6.93,52.84-6.93,79.87A110.45,110.45,0,0,0,218,281.3c3,19.21,11.48,38.48,28.21,48.28,11.68,6.84,25.39,10.73,38.71,13.07.57.11,1.15.2,1.72.3,14,2,27,1,41,3,2,50,0,101,1,151.11,6.78,13.85,23,25.27,23,25.27,18,13,38,16,59,17,29,1,56-6,84-13,16-5,30-10,45-18,0,0,13.47-7.2,21.36-17.16,3.88-4.9-.57-29.4-.81-36C559.74,442.5,559.12,429.82,558.45,417.15Z" transform="translate(0 -2)"/><path class="cls-2" d="M561,417.15c-1.6-30.6-3-61.22-5-91.79-2-30.25-4.59-60.46-7.2-90.67q-2-22.91-3.94-45.8c-1-11.93-1.85-23.92-4.81-35.57a78.79,78.79,0,0,0-13.79-29.22A77,77,0,0,0,514,111.86q-8.26-6.76-16.13-14C486.23,87.12,475.24,75.71,464.54,64q-8.42-9.2-16.64-18.56-4.14-4.71-8.21-9.47c-1.31-1.52-2.61-3-3.91-4.57s-2.1-3.15-4.12-3l1.77.73c-1.46-1.75-2.1-2.67-4.44-2.72-2.72-.07-5.44,0-8.15-.07q-7.54-.06-15.08-.17-14.65-.23-29.3-.6-27.21-.7-54.39-2.08-13.94-.71-27.85-1.65a2.44,2.44,0,0,0-2.15,1.23c-1.52,2.78-3,5.54-4.59,8.29l2.16-1.23h-.28a2.49,2.49,0,0,0-2.16,1.23c-7.33,13-15.09,25.67-23.5,38q-6.19,9.1-12.75,17.95c-4.18,5.66-8.74,11.1-12.74,16.89-13.23,19.19-14.23,44.4-16,66.84-2.24,28.65-7.29,57-8,85.82-.6,24.24,3.69,52.06,22.81,69.08,10.93,9.74,26,14.62,40.09,17.7a142.13,142.13,0,0,0,24.22,3.06c8.55.4,17.13.47,25.63,1.65L325.14,346c1.56,39.38.68,78.8.7,118.21,0,9.79.07,19.58.24,29.36,0,2.14-.1,3.87.9,5.78a47.6,47.6,0,0,0,2.91,4.78,72.51,72.51,0,0,0,6.69,8.24,87.43,87.43,0,0,0,26.48,19.62c15.1,7.08,32,9.42,48.58,9.92,18.82.56,37.57-2.37,55.89-6.42,18-4,35.64-8.55,52.74-15.4,11.71-4.7,23.14-10,33.07-17.92,4.3-3.41,10.2-7.78,11.27-13.51,1-5.24.41-10.79-.08-16.05s-1.27-10.38-1.72-15.6c-.72-8.39-.71-16.89-1.12-25.31q-.35-7.25-.74-14.5c-.17-3.2-5.17-3.22-5,0,.49,9.34,1,18.68,1.35,28,.25,5.9.46,11.73,1.15,17.59.66,5.59,1.35,11.19,1.57,16.82a39.77,39.77,0,0,1-.17,7.32c-.32,2.21-1.12,3.2-2.65,4.88-8,8.7-18.31,14.5-28.89,19.4-15.8,7.3-32.35,12.33-49.22,16.43-17.78,4.33-35.78,8.16-54.1,9.09-16.49.83-33.8-.3-49.62-5.29a80,80,0,0,1-29.54-17,70.28,70.28,0,0,1-13.05-15A8.13,8.13,0,0,1,331.1,495c0-2.53-.08-5.05-.11-7.58q-.09-6.82-.12-13.67c-.18-37.9.72-75.82-.26-113.72q-.19-7.06-.47-14.12a2.53,2.53,0,0,0-1.83-2.41c-14.46-2-29.24-.85-43.61-3.46-13.11-2.39-26.43-6.06-37.89-13.06-20.89-12.74-27.61-40.2-27.67-63.07-.07-29,5-57.48,7.55-86.25,1.91-22,1.9-46.12,12.78-66,3.4-6.21,8.13-11.61,12.36-17.25q7.18-9.57,14-19.41c9.22-13.3,17.71-27,25.67-41.13l-2.16,1.24h.28a2.5,2.5,0,0,0,2.16-1.24q2.32-4.14,4.58-8.29l-2.16,1.24c34.16,2.32,68.39,3.56,102.62,4.18q16.59.3,33.17.39l-1.76-.73c1.1,1.32,1.9,2.83,3.82,2.69l-1.77-.74c18.46,21.84,37.49,43.4,58.16,63.18q7.37,7.07,15.09,13.75c4.73,4.07,9.78,7.81,14.13,12.31a69.06,69.06,0,0,1,16.07,27.8c3.44,11.08,4.63,22.58,5.59,34.09q1.83,21.88,3.75,43.77c2.59,29.86,5.15,59.73,7.26,89.63,2.34,33.29,3.85,66.62,5.6,99.95C556.12,420.35,561.12,420.37,561,417.15Z" transform="translate(0 -2)"/><path class="cls-1" d="M925.21,695c0-.22,0-.45-.07-.67-3.71-33.06-10.61-65.57-23-96.36-21.92-54.37-63.27-103.24-118.6-122.59-52.43-18.33-110-8.63-164.64,1.37-15.86,2.9-31.86,5.86-46.72,12.13-18.59,7.84-34.72,20.59-52.88,29.4-26.67,12.93-56.72,16.91-86.26,19.36-28.19,2.33-59.38,2.53-81.23-15.45-8.36-6.88-14.79-16.07-23.9-21.93-7.85-5.06-17.14-7.28-26.23-9.42-60.72-14.29-136.25-32.25-195.13-1.69-54.27,28.15-78.59,92.34-92.2,148.25C9.68,656.51,5.78,675.72,2.46,695Z" transform="translate(0 -2)"/><path d="M927.71,695c-8-77.66-38.44-158.77-106.13-203.44-34.58-22.82-75.25-30.38-116.19-28.77-22,.86-43.84,4-65.52,7.69-22.32,3.81-45.66,6.81-66.77,15.33-20.06,8.08-37.06,21.86-56.56,31-20.49,9.63-43.07,14-65.43,16.56-20.1,2.29-41,4.45-61.13,1.63-9.56-1.33-19.07-3.94-27.55-8.63-8.72-4.82-15.16-11.94-22.1-18.9a60.2,60.2,0,0,0-23.69-15.19c-9.17-3.11-18.83-4.95-28.25-7.13-19.58-4.54-39.25-8.78-59.15-11.64-38.58-5.53-79.51-6.27-115.9,9.61C45.13,513,21,592.64,6.76,659.37q-3.7,17.43-6.71,35a2.53,2.53,0,0,0,2.41,3.16h885.3c12,0,23.93.21,35.88,0h1.57c3.22,0,3.23-5,0-5H16.37c-4,0-8.33-.42-12.34,0a13.71,13.71,0,0,1-1.57,0l2.41,3.17c6.66-38.5,14.81-77.43,29.43-113.81C47.11,550,66,518.93,94.75,499.16c32.4-22.24,72.7-26.33,111-23.28,20.1,1.61,40,5.12,59.7,9.3,9.12,1.94,18.21,4,27.29,6.15,9.79,2.29,20.1,4.05,29.2,8.48S337.44,512,344.57,519a70.16,70.16,0,0,0,21.63,14.78C383,541,401.9,541.84,420,541c20.44-.92,41.16-3,61.17-7.37,20.87-4.5,39.78-12.51,58-23.55,8.86-5.37,17.6-11,26.88-15.62a143.44,143.44,0,0,1,32.32-11.09c21.3-4.88,43.1-8.44,64.72-11.53,43.07-6.14,88.68-7.74,129.49,9.7,72.57,31,111.71,107.18,125.44,181.18,2,10.69,3.62,21.47,4.73,32.28C923,698.2,928,698.24,927.71,695Z" transform="translate(0 -2)"/></g></g></g></g></svg>