<svg xmlns="http://www.w3.org/2000/svg" viewBox="0 0 149.72 18.85"><defs><style>.cls-1{fill:#666;}</style></defs><g id="Layer_2" data-name="Layer 2"><g id="Layer_1_copy" data-name="Layer 1 copy"><path class="cls-1" d="M7.88.26H11.6V13.18c0,3.64-2.32,5.67-5.72,5.67S0,16.77,0,13.05H3.69c0,1.56.74,2.5,2.14,2.5s2.05-.92,2.05-2.37Z"/><path class="cls-1" d="M16.28.26H20V18.67h-3.7Z"/><path class="cls-1" d="M30.57,18.85c-3.82,0-6.78-2-6.83-5.48h4a2.52,2.52,0,0,0,2.79,2.45c1.74,0,2.77-.92,2.77-2.24,0-4-9.49-1.58-9.47-8.25C23.79,2,26.48,0,30.28,0s6.35,1.92,6.59,5.25H32.81a2.42,2.42,0,0,0-2.64-2.19c-1.45-.05-2.53.66-2.53,2.16,0,3.69,9.44,1.63,9.44,8.12C37.08,16.24,34.76,18.85,30.57,18.85Z"/><path class="cls-1" d="M49.11,18.85a9.25,9.25,0,0,1-9.44-9.44,9.43,9.43,0,0,1,18.85,0A9.21,9.21,0,0,1,49.11,18.85Zm0-3.3c3.32,0,5.62-2.39,5.62-6.14s-2.3-6.09-5.62-6.09-5.64,2.35-5.64,6.09S45.76,15.55,49.11,15.55Z"/><path class="cls-1" d="M70.36,18.85a9.25,9.25,0,0,1-9.44-9.44,9.43,9.43,0,0,1,18.85,0A9.21,9.21,0,0,1,70.36,18.85Zm0-3.3c3.32,0,5.62-2.39,5.62-6.14s-2.3-6.09-5.62-6.09-5.64,2.35-5.64,6.09S67,15.55,70.36,15.55Z"/><path class="cls-1" d="M96.46,18.85c-3.82,0-6.78-2-6.83-5.48h4a2.52,2.52,0,0,0,2.79,2.45c1.74,0,2.77-.92,2.77-2.24,0-4-9.49-1.58-9.47-8.25C89.68,2,92.37,0,96.17,0s6.35,1.92,6.59,5.25H98.7a2.42,2.42,0,0,0-2.64-2.19c-1.45-.05-2.53.66-2.53,2.16,0,3.69,9.44,1.63,9.44,8.12C103,16.24,100.65,18.85,96.46,18.85Z"/><path class="cls-1" d="M117.85,10.84H110v7.83h-3.69V.26H110V7.83h7.88V.26h3.69V18.67h-3.69Z"/><path class="cls-1" d="M125.94.26h3.69V18.67h-3.69Z"/><path class="cls-1" d="M149.72.24V18.67H146L137.67,6V18.67H134V.24h3.69L146,12.89V.24Z"/><ellipse class="cls-1" cx="45.89" cy="9.43" rx="4.71" ry="6.08"/><ellipse class="cls-1" cx="67.07" cy="9.43" rx="4.71" ry="6.08"/></g></g></svg>