<svg xmlns="http://www.w3.org/2000/svg" viewBox="0 0 150 20.08"><defs><style>.cls-1{fill:#666;}</style></defs><g id="Layer_2" data-name="Layer 2"><g id="Layer_1-2" data-name="Layer 1"><path class="cls-1" d="M2.77,14.66A3.36,3.36,0,0,0,6,16.82,3.22,3.22,0,0,0,9.4,13.36V3.6H1.57V.41H13V13.05c0,4.26-2.75,7-7,7a6.18,6.18,0,0,1-6-3.64Z"/><path class="cls-1" d="M17.36.41H21V19.67H17.36Z"/><path class="cls-1" d="M30.2,7.19l3.54,2.16c1.83,1.1,3.32,2.64,3.32,5.21,0,3.34-2.54,5.52-6.22,5.52a6,6,0,0,1-6.42-5.54l3.21-1.18c.18,1.54,1.18,3.46,3.32,3.46a2.16,2.16,0,0,0,2.41-2.16,2.68,2.68,0,0,0-1.57-2.41l-3.21-1.9c-1.74-1-3.49-2.18-3.49-5.14C25.09,2.44,27.25,0,30.82,0a5.68,5.68,0,0,1,6,4.47L33.72,5.6c-.62-1.77-1.67-2.42-3-2.42A1.85,1.85,0,0,0,28.66,5C28.66,6.06,29.2,6.6,30.2,7.19Z"/><path class="cls-1" d="M39.73,10c0-5.85,4.08-10,9.81-10s9.81,4.19,9.81,10-4.08,10-9.81,10S39.73,15.9,39.73,10Zm15.89,0c0-4-2.41-6.76-6.08-6.76S43.45,6,43.45,10s2.42,6.78,6.09,6.78S55.62,14.05,55.62,10Z"/><path class="cls-1" d="M61.94,10c0-5.85,4.08-10,9.81-10s9.81,4.19,9.81,10-4.08,10-9.81,10S61.94,15.9,61.94,10Zm15.9,0c0-4-2.42-6.76-6.09-6.76S65.66,6,65.66,10s2.42,6.78,6.09,6.78S77.84,14.05,77.84,10Z"/><path class="cls-1" d="M96.56,7.19l3.54,2.16c1.83,1.1,3.32,2.64,3.32,5.21,0,3.34-2.55,5.52-6.22,5.52a6,6,0,0,1-6.42-5.54L94,13.36c.18,1.54,1.18,3.46,3.31,3.46a2.17,2.17,0,0,0,2.42-2.16,2.68,2.68,0,0,0-1.57-2.41l-3.21-1.9c-1.75-1-3.49-2.18-3.49-5.14C91.45,2.44,93.6,0,97.17,0c3.37,0,5.27,1.7,6,4.47L100.08,5.6c-.62-1.77-1.67-2.42-3-2.42A1.84,1.84,0,0,0,95,5C95,6.06,95.56,6.6,96.56,7.19Z"/><path class="cls-1" d="M107.06.41h3.65v8h7.5v-8h3.64V19.67h-3.64V11.61h-7.5v8.06h-3.65Z"/><path class="cls-1" d="M126.4.41h3.65V19.67H126.4Z"/><path class="cls-1" d="M146.3,19.67,138.19,6.91h-.11V19.67h-3.49V.41h3.78l8,12.77h.11V.41H150V19.67Z"/><ellipse class="cls-1" cx="53.29" cy="10.04" rx="4.99" ry="6.78"/><ellipse class="cls-1" cx="75.5" cy="10.04" rx="4.99" ry="6.78"/></g></g></svg>