<svg xmlns="http://www.w3.org/2000/svg" viewBox="0 0 12.03 24.49"><defs><style>.cls-1{fill:none;stroke:#8dc63f;stroke-linecap:round;stroke-linejoin:round;stroke-width:2px;}</style></defs><title>seed</title><g id="Layer_2" data-name="Layer 2"><g id="Layer_9" data-name="Layer 9"><path class="cls-1" d="M11,10.56A16.06,16.06,0,0,0,9.11,5.41c-.42-.87-1-1.67-1.44-2.52A4.32,4.32,0,0,0,6.05,1H6A4.35,4.35,0,0,0,4.35,2.89c-.47.85-1,1.65-1.43,2.52a16.06,16.06,0,0,0-1.85,5.15A9.58,9.58,0,0,0,1,12.24a9.66,9.66,0,0,0,.06,1.69,16.06,16.06,0,0,0,1.85,5.15c.42.87,1,1.67,1.43,2.52A4.4,4.4,0,0,0,6,23.49h.07A4.38,4.38,0,0,0,7.67,21.6c.47-.85,1-1.65,1.44-2.52A16.06,16.06,0,0,0,11,13.93a10.71,10.71,0,0,0,0-1.69A10.62,10.62,0,0,0,11,10.56Z"/></g></g></svg>